<svg width="852" height="947" viewBox="0 0 852 947" fill="none" xmlns="http://www.w3.org/2000/svg">
<path d="M371.091 0.48114C370.271 0.769813 368.835 1.53961 368.015 2.21318C367.195 2.88675 365.759 3.36787 364.939 3.36787C363.093 3.36787 357.453 6.54327 358.171 7.21684C358.376 7.50552 359.709 6.92817 361.042 6.15838C362.478 5.29236 363.811 4.90746 364.221 5.19613C364.529 5.48481 366.169 4.81124 367.912 3.75277C369.656 2.59808 373.039 1.25093 375.398 0.866037C379.704 1.82682e-05 379.704 1.82682e-05 376.218 1.82682e-05C374.27 1.82682e-05 371.911 0.192467 371.091 0.48114Z" fill="#222222"/>
<path d="M365.76 8.27508C363.094 10.1996 360.735 12.509 360.53 13.2788C360.223 14.241 360.018 13.9523 359.915 12.7014C359.915 11.5467 360.838 9.42978 362.068 7.89019L364.427 5.09968L361.658 6.7355C360.12 7.69774 358.274 8.17886 357.557 7.98641C356.736 7.69774 354.788 8.75621 353.147 10.392C350.174 13.2788 347.508 14.1448 347.508 12.2203C347.508 11.6429 348.123 11.3543 348.841 11.6429C349.661 11.9316 350.276 11.5467 350.276 10.7769C350.276 9.04488 349.559 9.04488 346.585 10.9694C344.944 12.1241 344.329 13.1825 344.739 14.8183C345.252 17.4164 343.714 17.8013 340.843 15.8768C339.612 14.9146 339.202 13.7599 339.51 12.0278C340.228 8.56376 339.407 8.75621 338.177 12.3165C337.356 14.4334 336.434 15.2032 334.588 15.2032C333.152 15.2032 330.281 16.0693 328.025 17.1277C325.667 18.2824 321.976 19.0522 319.002 19.0522C314.49 19.0522 303.826 21.6503 304.749 22.5163C304.954 22.7087 306.595 22.4201 308.235 21.8427C309.979 21.2654 313.055 20.9767 315.105 21.1691L318.797 21.4578L312.439 25.8841C308.851 28.2898 304.954 30.5991 303.724 30.984C302.391 31.3689 301.365 32.1387 301.365 32.7161C301.365 33.2934 300.647 34.5443 299.725 35.5066C298.392 36.9499 298.392 37.3348 299.622 38.3933C300.853 39.548 300.545 40.414 297.674 44.3592C295.726 46.9573 294.188 50.0365 294.188 51.1911C294.188 52.3458 293.777 53.693 293.367 54.1741C289.881 57.9269 286.087 74.285 286.087 85.9281C286.087 91.7978 285.369 97.5713 284.446 100.843C282.088 108.445 276.756 121.916 274.5 126.054C273.475 128.074 272.859 129.71 273.167 129.71C273.475 129.71 272.552 131.442 271.014 133.655C269.578 135.772 268.655 138.178 268.963 138.948C269.271 139.718 268.86 140.584 268.143 140.872C267.322 141.161 264.861 143.855 262.605 146.838C257.581 153.574 247.122 163.1 240.354 167.141C232.459 171.856 225.486 173.877 206.927 176.764C186.419 180.036 180.472 182.345 172.884 189.658C169.295 193.218 166.424 195.143 163.963 195.624C162.015 196.009 157.811 197.548 154.734 198.992C151.658 200.531 146.121 203.033 142.43 204.669C130.33 209.961 125.613 214.869 120.589 227.378C117.41 235.172 117.308 235.653 119.256 234.98C120.076 234.691 121.204 232.478 121.922 230.072C124.485 220.161 126.434 232.574 123.973 243.832C123.255 246.911 122.332 250.183 121.819 251.049C121.409 251.915 120.794 253.84 120.486 255.283C120.179 256.823 119.461 258.458 118.743 259.036C117.82 259.806 117.82 259.613 118.743 257.977C119.666 256.245 119.666 255.86 118.538 256.341C117.82 256.534 116.692 257.977 116.077 259.421C115.052 261.826 114.949 261.922 114.847 259.806C114.744 258.651 114.026 257.4 113.206 257.111C112.386 256.726 111.668 255.572 111.565 254.417C111.463 250.857 109.822 257.304 109.002 264.424C108.079 273.181 111.258 287.518 114.026 287.518C114.642 287.518 114.744 287.807 114.437 288.192C114.026 288.48 114.231 289.346 114.847 290.116C115.564 290.79 115.77 292.618 115.359 294.35C115.052 296.082 115.154 297.044 115.77 296.659C116.385 296.371 116.795 295.409 116.795 294.639C116.795 293.869 117.513 293.292 118.333 293.292C120.896 293.292 120.179 298.969 116.795 304.55C115.052 307.34 113.001 312.055 112.181 315.038C111.36 317.925 109.515 323.699 107.977 327.74C106.541 331.781 105.105 336.111 104.9 337.266C104.285 340.442 100.696 347.851 99.4658 348.621C98.8506 348.909 97.9277 348.236 97.415 346.985C96.6973 345.253 96.3896 346.119 95.7744 351.411C94.8516 359.494 95.5693 367.962 98.4404 380.471C100.081 388.073 100.594 394.039 100.799 409.723C101.106 430.026 101.824 434.645 105.721 441.958C110.027 449.849 119.974 462.646 122.947 464.09C128.484 466.784 134.021 465.822 139.354 461.107C142.532 458.413 151.453 455.141 168.064 450.811L180.574 447.443L185.188 454.371C191.854 463.994 193.904 468.901 194.52 476.118C194.93 482.18 194.827 482.469 192.366 483.527C189.495 484.778 187.957 489.493 188.88 494.112C189.188 495.555 188.777 498.346 187.957 500.463C187.137 502.58 186.521 506.525 186.521 509.315C186.521 512.106 185.804 515.666 184.983 517.109C184.163 518.649 183.445 520.574 183.445 521.44C183.445 522.306 182.42 524.134 181.292 525.577C180.062 527.021 178.523 530.004 177.806 532.217C176.78 535.488 175.755 536.643 172.063 538.471C165.398 541.839 163.143 544.149 158.836 552.135C153.812 561.565 141.097 592.838 138.328 602.653C134.842 615.162 135.765 637.39 140.174 648.263C140.892 650.092 140.481 651.535 138.533 654.903C136.38 658.559 136.072 659.906 136.585 665.487L137.098 671.934L130.228 678.67C120.999 687.619 119.051 690.987 111.36 711.868C107.669 721.682 99.6709 743.044 93.5186 759.499C81.7266 790.772 80.4961 794.428 81.8291 796.449C82.752 797.892 77.625 815.886 75.3691 819.254C74.4463 820.505 72.9082 822.718 71.9854 824.161C70.5498 826.278 70.4473 826.663 71.6777 825.99C72.498 825.605 72.1904 826.086 70.8574 827.048C69.627 828.01 68.3965 829.742 68.1914 830.897C67.5762 833.88 66.0381 836.189 63.3721 838.403C61.1162 840.231 61.1162 840.135 63.5771 836.959C68.6016 830.416 67.7812 830.801 60.501 838.21C56.3994 842.252 50.4521 847.063 47.2734 848.795C27.1758 859.861 12.5127 868.906 4.30957 875.16C-15.3779 890.171 -31.8867 908.935 -48.7031 935.589C-53.0098 942.517 -57.2139 949.157 -58.0342 950.504C-58.8545 951.851 -61.0078 955.315 -62.751 958.202C-65.8271 963.302 -70.0312 966.477 -72.082 965.322C-73.7227 964.36 -95.666 964.938 -97.7168 965.996C-99.3574 966.766 -100.075 966.766 -100.69 965.804C-101.306 964.938 -101.921 964.841 -102.434 965.419C-102.844 965.996 -107.561 966.573 -112.995 966.766C-121.198 966.958 -123.146 966.766 -124.582 965.419C-125.505 964.456 -126.633 964.072 -127.043 964.36C-127.351 964.745 -127.043 965.419 -126.223 965.9C-125.402 966.381 -125.095 967.055 -125.505 967.536C-126.018 967.921 -126.735 967.632 -127.248 966.862C-127.966 965.804 -131.657 965.226 -142.321 964.649C-150.114 964.264 -158.112 963.783 -160.061 963.687C-162.009 963.59 -164.777 962.917 -166.008 962.243C-167.341 961.474 -168.674 961.185 -169.084 961.474C-169.392 961.762 -169.084 962.051 -168.469 962.051C-167.751 962.051 -167.238 962.436 -167.238 963.013C-167.238 963.494 -167.956 963.975 -168.776 963.975C-169.597 963.975 -170.314 963.494 -170.314 963.013C-170.314 962.436 -173.596 962.051 -178.005 962.051C-184.67 962.051 -185.695 962.243 -185.695 963.687C-185.695 965.13 -185.9 965.226 -186.721 963.975C-187.336 963.013 -187.746 962.917 -187.746 963.687C-187.746 964.36 -188.464 964.938 -189.284 964.938C-190.104 964.938 -190.822 964.553 -190.822 964.168C-190.822 963.783 -192.463 963.59 -194.411 963.783L-198 964.168V972.251V980.333H-93.5127C-24.9141 980.333 11.2822 980.045 11.6924 979.371C12 978.794 12.9229 978.409 13.5381 978.409C14.2559 978.409 14.1533 978.794 13.2305 979.371C12.2051 979.949 160.169 980.333 431.897 980.333H852V973.694C852 968.305 851.692 966.958 850.257 966.285C847.488 965.226 834.568 965.034 834.568 966.092C834.568 966.67 833.748 966.766 832.825 966.477C831.902 966.092 822.674 965.804 812.317 965.804C801.038 965.804 793.553 965.419 793.553 964.938C793.553 964.36 793.143 963.975 792.527 963.975C792.015 963.975 791.502 964.649 791.502 965.419C791.502 966.189 790.887 966.573 790.169 966.285C789.451 966.092 781.863 965.804 773.353 965.611C761.048 965.419 758.074 965.707 758.895 966.573C759.612 967.439 759.612 967.824 758.895 967.824C758.279 967.824 757.459 967.343 757.049 966.766C756.639 966.092 747.718 965.996 726.492 966.477C710.086 966.958 695.525 967.247 694.09 967.247C673.582 966.766 615.853 966.958 615.135 967.343C614.52 967.728 614.109 967.632 614.212 967.151C614.52 965.322 614.007 965.13 611.238 965.9C609.598 966.285 605.188 966.381 601.497 965.996C596.985 965.515 594.524 965.707 594.217 966.285C593.909 966.958 593.294 966.766 592.679 965.9C591.756 964.745 591.551 964.938 591.551 966.862C591.448 968.883 591.346 969.075 590.423 967.632C589.705 966.381 588.885 966.189 587.142 966.766C585.911 967.151 580.374 967.439 574.734 967.247C565.506 967.055 564.583 967.247 564.173 968.883C563.66 970.422 563.045 970.615 559.866 970.134C557.815 969.749 556.072 969.46 555.97 969.364C555.765 969.268 559.354 953.776 564.891 930.778C569.095 913.169 572.068 895.464 574.119 875.449C575.452 862.651 575.965 860.342 580.784 842.733C588.987 812.518 591.551 800.875 591.551 793.851C591.551 786.826 590.218 782.496 588.475 783.555C587.962 783.843 587.039 783.17 586.321 782.015C585.706 780.86 583.553 777.974 581.707 775.568C577.913 770.949 577.811 769.121 581.502 772.104C583.655 773.74 583.655 773.74 581.399 771.334C580.066 769.891 578.528 768.929 578.016 769.217C577.503 769.506 577.298 769.41 577.4 768.929C577.605 768.544 574.734 765.657 571.043 762.578C567.352 759.499 561.609 754.302 558.328 751.031C555.047 747.759 553.304 746.412 554.432 748.048C555.662 749.684 557.405 751.608 558.328 752.378C560.789 754.302 564.891 762.77 564.173 764.598C563.66 765.753 563.147 765.561 561.712 763.732C560.789 762.482 558.943 760.365 557.815 759.017C556.585 757.67 554.432 755.169 552.894 753.34C551.253 751.608 548.792 748.721 547.254 746.989C545.613 745.257 544.383 743.525 544.383 743.044C544.383 742.563 543.46 741.408 542.332 740.254C537.41 735.443 536.18 733.903 536.18 732.748C536.18 731.978 535.257 730.631 534.129 729.669C533.001 728.707 532.078 727.36 532.078 726.686C532.078 726.013 531.36 725.05 530.54 724.665C529.72 724.184 528.797 722.548 528.387 720.913C527.874 718.218 528.079 717.833 531.053 716.871C532.796 716.198 534.129 715.332 533.924 714.851C533.001 712.637 521.619 696.183 515.672 688.677C506.751 677.419 491.473 661.446 481.116 652.593C476.502 648.648 469.632 641.816 465.838 637.294C458.763 628.826 455.687 626.901 447.996 625.843C444.202 625.362 442.562 624.4 439.28 620.936C437.024 618.53 432.205 615.258 428.514 613.43L421.849 610.255L421.336 604.866C420.618 597.649 418.875 596.013 411.902 595.917C406.468 595.821 402.366 594.185 401.341 591.78C401.033 591.01 402.469 587.257 404.417 583.312C406.365 579.463 408.006 575.037 408.006 573.593C408.006 572.054 406.468 567.82 404.622 564.163C398.367 551.943 388.729 546.65 370.579 545.207L367.503 544.918L366.17 534.815C365.452 529.234 364.324 522.306 363.709 519.419C363.094 516.532 362.684 511.047 362.786 507.295C362.991 500.848 362.889 500.27 360.223 498.346C358.582 497.191 356.634 496.517 355.301 496.806C352.02 497.576 350.892 496.325 349.251 490.552C347.815 485.837 347.713 485.644 347.61 488.531C347.508 490.359 347.2 491.514 346.79 491.225C346.482 490.84 345.252 491.225 344.227 492.187C343.201 493.053 342.073 493.438 341.663 493.15C341.355 492.765 341.561 492.476 342.176 492.476C342.894 492.476 343.406 491.514 343.406 490.263C343.406 488.531 343.201 488.435 342.381 489.589C341.766 490.455 341.355 490.552 341.355 489.878C341.355 489.301 341.868 488.435 342.483 488.05C343.304 487.569 343.201 487.184 342.176 486.606C341.355 486.221 340.638 484.105 340.433 481.699C340.125 475.829 339.715 473.616 337.356 466.014C334.588 457.45 334.793 456.103 337.664 462.069L339.92 466.784L340.125 458.701C340.125 454.275 340.535 441.766 340.945 430.892C342.176 397.695 342.073 395.482 339.612 389.035C337.767 384.416 337.459 382.299 338.074 378.45L338.792 373.735L349.456 369.598C355.301 367.384 364.632 363.15 370.169 360.168C375.809 357.281 380.73 354.875 381.141 354.875C381.551 354.875 382.781 356.222 383.807 357.762C386.78 362.573 402.571 377.584 409.852 382.588C413.646 385.186 423.387 391.152 431.59 395.771C450.149 406.355 462.044 413.861 470.555 420.308C479.476 427.043 484.705 429.16 502.342 433.298C511.058 435.319 516.902 435.319 520.696 433.202C524.9 430.892 529.617 424.542 532.591 417.036C533.924 413.668 537.615 406.548 540.589 401.352C543.665 396.155 548.689 386.244 551.868 379.412C554.944 372.484 560.379 360.649 563.865 352.951C567.352 345.253 571.453 334.187 572.991 328.414L575.862 317.829L583.143 316.867C593.499 315.519 594.422 314.461 600.164 297.91C602.83 290.212 605.804 280.782 606.829 276.837C607.957 272.892 609.085 269.043 609.495 268.177C609.803 267.215 609.7 266.253 609.085 265.964C607.854 265.29 610.828 259.806 614.725 255.475C618.313 251.53 625.696 238.155 629.9 228.244C633.899 218.718 634.31 216.793 632.259 217.563C631.438 217.852 630.208 217.659 629.388 217.178C628.362 216.601 628.875 216.312 631.131 216.312C633.899 216.312 634.515 215.831 636.565 211.02C637.898 208.133 638.719 205.054 638.411 204.38C638.104 203.611 638.411 202.456 639.129 201.878C642.205 199.569 644.153 183.211 641.795 179.747C640.975 178.592 640.77 178.592 640.77 180.228C640.77 181.768 640.462 181.575 639.129 179.266C638.309 177.726 637.796 175.705 638.001 174.839C639.437 169.643 609.905 153.959 580.271 144.144C572.068 141.45 557.61 140.487 551.048 142.219C546.023 143.567 540.281 148.666 540.281 151.842C540.281 154.151 540.384 154.151 536.282 152.227C531.771 150.11 525.208 151.168 519.979 154.729C517.005 156.749 514.749 159.636 511.878 165.025C508.084 172.338 507.981 172.626 507.981 183.596C507.981 194.373 508.084 194.854 511.775 202.071C516.8 212.078 523.465 221.412 529.925 227.667C532.796 230.457 535.154 232.959 535.154 233.248C535.154 233.536 536.385 236.615 537.82 239.983C540.179 245.564 540.281 246.43 538.948 247.393C536.487 249.125 525.105 285.882 523.362 297.333C522.747 301.567 522.952 301.856 525.926 303.491C527.566 304.454 529.002 305.705 529.002 306.282C529.002 307.533 525.926 311.574 518.543 319.753C515.364 323.314 511.673 328.221 510.545 330.627C508.392 334.764 504.085 340.249 498.035 346.311C496.497 347.947 494.241 349.102 492.806 349.102C490.037 349.102 481.219 343.425 481.731 341.981C481.834 341.5 481.629 340.826 481.116 340.538C479.783 339.672 473.631 328.798 473.631 327.259C473.631 326.489 472.503 324.853 471.067 323.506C469.632 322.159 468.504 320.523 468.504 319.753C468.504 318.984 467.991 318.31 467.376 318.31C466.863 318.31 466.658 317.829 466.966 317.348C467.376 316.77 468.094 316.674 468.709 316.963C469.427 317.348 469.529 317.155 469.119 316.578C468.709 315.904 467.684 315.423 466.966 315.423C466.146 315.423 465.735 314.846 466.043 314.172C467.068 311.574 447.894 299.161 434.666 293.965C428.411 291.463 427.591 290.694 422.054 283.092C418.67 278.569 416.312 274.624 416.619 274.335C416.927 273.951 417.234 274.335 417.234 275.009C417.234 275.683 417.439 276.067 417.747 275.779C418.362 275.201 413.44 267.119 407.288 258.747C402.981 252.974 402.674 251.723 405.955 254.032C406.878 254.706 406.468 254.321 405.135 253.07C403.802 251.915 402.366 251.145 401.854 251.434C401.443 251.723 400.726 251.242 400.418 250.376C400.11 249.606 400.213 249.221 400.828 249.51C401.341 249.798 400.623 248.162 399.188 245.757C395.394 239.406 389.036 233.055 384.114 230.842C376.834 227.57 349.866 224.684 345.765 226.704C344.021 227.667 341.971 226.801 332.537 221.027C326.385 217.274 321.258 214.099 321.053 213.907C320.848 213.81 321.565 211.79 322.488 209.576C323.719 206.69 323.924 205.343 323.104 204.861C322.386 204.477 323.206 203.514 325.257 202.456C327 201.494 330.281 199.088 332.332 197.26L336.126 193.892L343.919 200.82C354.686 210.346 363.094 216.023 367.913 216.793C375.911 218.044 382.371 213.041 382.371 205.439C382.371 201.397 383.909 199.954 388.216 199.954C392.728 199.954 394.163 197.452 392.112 192.833C390.164 188.6 390.164 187.83 392.01 189.273C392.83 189.947 395.599 190.332 398.367 190.139C404.212 189.754 406.365 187.637 403.597 184.751C401.443 182.537 401.341 181.671 403.392 181.671C404.212 181.671 405.34 180.805 405.955 179.747C406.878 178.207 407.903 177.919 412.62 178.111C416.619 178.207 418.67 177.822 419.9 176.764C421.438 175.321 421.438 174.936 419.798 172.049C418.26 169.355 418.26 168.104 419.183 163.581C419.798 160.598 420.311 154.921 420.311 150.88C420.311 142.797 421.131 141.257 425.745 141.257C427.796 141.257 428.821 140.68 429.231 139.333C429.847 137.119 431.18 136.831 431.897 138.563C432.308 139.333 432.513 139.236 432.513 138.178C432.615 137.312 434.051 136.157 435.691 135.58C437.435 135.099 441.331 132.212 444.407 129.325C447.483 126.439 450.047 124.514 450.047 124.995C450.047 125.476 447.176 128.556 443.792 131.731C436.922 138.082 439.588 137.697 446.868 131.25L451.38 127.305L449.021 131.154C445.535 136.927 439.896 142.027 435.794 143.278C433.743 143.951 432.615 144.625 433.23 144.817C435.281 145.491 445.33 141.353 449.329 138.274C451.482 136.638 454.866 133.078 456.814 130.288C459.173 127.208 460.198 126.246 459.788 127.786C458.558 131.827 456.199 135.387 452.303 139.525C449.739 142.219 449.227 143.182 450.662 142.412C456.507 139.525 461.429 131.25 463.377 121.05C465.428 110.85 466.351 110.08 466.351 118.644C466.453 124.899 465.94 127.305 463.89 131.635C462.352 134.714 462.044 136.157 462.967 135.003C466.043 131.346 467.786 126.342 468.504 119.126C469.119 112.005 469.119 112.005 470.35 115.277L471.58 118.644L470.965 114.892C470.657 112.871 469.324 108.83 467.991 106.039C466.658 103.152 465.838 100.843 466.146 100.843C467.068 100.843 473.016 104.884 474.451 106.424C475.271 107.482 475.682 107.579 475.682 106.713C475.682 106.039 473.323 103.152 470.452 100.266C467.479 97.3788 465.428 95.0695 465.838 95.0695C466.248 95.0695 465.12 93.0487 463.377 90.6431C461.531 88.2375 460.301 86.1206 460.608 85.8319C461.429 85.0621 466.863 87.3715 469.324 89.4884C472.195 92.0865 472.298 90.9318 469.427 87.564L467.376 85.0621L469.734 84.1961C471.067 83.8112 473.426 83.6188 474.964 83.9074C476.502 84.1961 477.63 84.0999 477.322 83.6188C477.015 83.2339 473.221 82.5603 468.914 82.2716C463.479 81.8867 460.506 81.2131 459.378 80.0585C457.84 78.6151 458.045 78.5189 461.839 79.0962L465.94 79.7698L463.479 78.134L460.916 76.4019L464.505 75.2472L467.991 74.0925L464.71 73.9963C460.403 73.9001 453.431 71.302 452.713 69.4738C452.405 68.704 451.072 67.6455 449.842 67.1644C447.483 66.2021 447.483 66.2021 450.047 66.587C451.482 66.7795 453.738 66.587 455.174 66.2984C457.532 65.6248 457.43 65.5286 453.636 64.855C449.021 63.989 445.535 62.4494 446.355 61.6796C446.663 61.3909 447.586 61.6796 448.406 62.2569C449.227 62.9305 450.457 63.123 451.175 62.7381C451.995 62.3532 451.38 61.5834 449.432 60.5249L446.458 59.0815L450.047 58.5042L453.636 57.9269L449.124 57.2533C443.895 56.3873 435.076 52.1534 434.256 50.1327C433.846 49.0742 434.256 48.8818 435.999 49.3629C437.332 49.6516 436.922 49.1704 434.666 47.9195C431.897 46.3799 431.692 46.0913 433.641 46.5724C436.819 47.3422 441.536 49.5553 445.125 51.9609C449.534 54.8477 447.381 51.7685 442.562 48.112C440.203 46.2837 437.332 44.263 436.204 43.4932C434.358 42.1461 434.563 42.1461 439.28 42.6272C442.151 42.9159 445.535 42.8196 446.868 42.3385C448.611 41.7612 447.278 41.4725 441.639 41.3763C437.127 41.28 432.82 40.7027 430.975 39.7404C428.616 38.5858 428.411 38.2971 430.052 38.2971C433.743 38.2971 429.437 36.3726 425.438 36.2764C422.874 36.2764 422.361 36.0839 423.694 35.5066C425.438 34.9292 425.335 34.7368 422.874 33.6783C421.438 33.0047 419.285 32.5236 418.157 32.5236C417.029 32.5236 416.312 32.1387 416.619 31.6576C416.927 31.1765 415.901 29.6369 414.363 28.1935L411.595 25.4992L414.363 25.9804C418.055 26.6539 417.029 25.1143 413.235 24.3446C411.595 24.0559 409.646 23.0936 409.031 22.4201C408.313 21.6503 404.109 19.7258 399.598 18.09C395.086 16.4542 389.754 14.1448 387.601 12.8939C384.935 11.3543 381.551 10.4882 375.706 9.9109L367.503 9.23733L370.374 6.92794C374.988 3.17519 370.989 4.32989 365.76 8.27508ZM356.941 12.0278C356.429 12.9901 356.121 14.241 356.429 14.8183C356.634 15.3957 356.019 16.4542 354.993 17.2239C353.455 18.3786 353.353 18.3786 353.968 16.8391C354.378 15.8768 354.686 13.9523 354.686 12.7014C354.686 11.258 355.301 10.392 356.224 10.392C357.454 10.392 357.557 10.8731 356.941 12.0278ZM365.965 12.3165C365.965 12.7976 365.555 13.2788 364.939 13.2788C364.427 13.2788 363.914 12.7976 363.914 12.3165C363.914 11.7392 364.427 11.3543 364.939 11.3543C365.555 11.3543 365.965 11.7392 365.965 12.3165ZM370.579 12.3165C367.708 13.4712 366.785 13.4712 367.503 12.3165C367.811 11.7392 369.144 11.3543 370.374 11.4505C372.527 11.4505 372.527 11.5467 370.579 12.3165ZM385.857 13.375C388.011 13.9523 389.549 14.6259 389.241 14.8183C388.626 15.3957 377.347 12.7014 376.424 11.7392C375.706 11.0656 378.167 11.5467 385.857 13.375ZM349.866 16.2617C349.456 17.5126 348.943 17.8975 348.328 17.3202C347.2 16.2617 348.021 14.241 349.559 14.241C349.969 14.241 350.174 15.107 349.866 16.2617ZM334.485 18.5711C334.588 19.1484 333.152 19.6296 331.409 19.822C327.615 20.2069 326.795 18.4749 330.384 17.8013C333.357 17.3202 334.28 17.4164 334.485 18.5711ZM344.432 20.1107C345.56 21.9389 345.457 22.0352 343.509 20.9767C342.278 20.3994 341.355 19.5333 341.355 19.0522C341.355 17.3202 343.304 17.9937 344.432 20.1107ZM338.279 20.0145C338.279 20.4956 337.869 20.9767 337.254 20.9767C336.741 20.9767 336.229 20.4956 336.229 20.0145C336.229 19.4371 336.741 19.0522 337.254 19.0522C337.869 19.0522 338.279 19.4371 338.279 20.0145ZM323.924 23.2861C323.924 23.4785 323.001 23.8634 321.873 24.1521C320.745 24.4408 320.027 24.2483 320.438 23.7672C320.95 22.9012 323.924 22.5163 323.924 23.2861ZM467.171 107.194C466.863 107.482 465.94 106.328 465.018 104.596C462.762 100.266 462.967 99.7844 465.53 103.537C466.761 105.269 467.479 106.905 467.171 107.194ZM437.229 116.527C435.076 121.435 433.641 121.82 435.384 117.009C437.229 112.005 438.05 110.754 438.46 112.005C438.665 112.582 438.152 114.603 437.229 116.527ZM463.069 114.988C462.762 115.95 462.557 115.373 462.557 113.833C462.557 112.197 462.762 111.524 463.069 112.101C463.274 112.775 463.274 114.122 463.069 114.988ZM442.767 121.146C442.049 122.975 439.998 126.439 438.152 128.844C436.204 131.25 434.871 133.463 435.076 133.655C435.384 133.848 434.358 134.04 432.923 134.04C430.564 134.04 430.462 133.848 431.077 130.191C431.487 127.497 432.82 125.188 435.691 122.493C437.947 120.376 439.793 119.222 439.793 119.895C439.793 120.665 438.46 122.493 436.819 124.033C435.179 125.573 434.358 126.823 435.076 126.823C436.717 126.823 440.511 121.916 441.434 118.644C441.844 117.201 442.459 116.431 442.972 116.912C443.587 117.49 443.382 119.222 442.767 121.146ZM462.044 120.761C461.736 121.724 461.531 121.146 461.531 119.607C461.531 117.971 461.736 117.297 462.044 117.875C462.249 118.548 462.249 119.895 462.044 120.761ZM451.688 133.078C449.637 135.965 446.971 138.755 445.74 139.429C443.484 140.487 443.484 140.487 445.945 137.793C450.149 133.271 453.021 129.133 453.841 126.246C454.559 123.648 454.661 123.552 454.969 125.669C455.174 127.112 453.943 129.903 451.688 133.078ZM441.126 129.229C439.588 131.057 438.152 132.308 437.845 132.02C437.435 131.635 442.767 125.861 443.587 125.861C443.792 125.861 442.664 127.401 441.126 129.229ZM285.984 141.738C285.984 141.931 285.062 142.604 283.934 143.182C282.293 144.048 282.088 143.951 282.498 142.701C283.011 141.45 285.984 140.584 285.984 141.738ZM264.554 150.014C262.811 153.381 261.683 155.113 261.99 153.766C263.016 150.014 266.502 142.797 267.117 143.374C267.425 143.663 266.194 146.646 264.554 150.014ZM402.879 148.282C402.879 148.666 401.956 148.57 400.828 147.993C399.7 147.415 398.777 145.972 398.777 144.817C398.777 142.701 398.88 142.701 400.828 145.106C401.956 146.453 402.879 147.897 402.879 148.282ZM637.181 178.304C637.591 180.324 637.488 180.709 636.873 179.747C635.335 177.437 634.207 173.3 635.438 174.455C636.053 174.936 636.771 176.668 637.181 178.304ZM325.564 218.044C327.718 219.584 330.179 221.508 330.999 222.374C333.255 224.972 330.486 224.299 325.872 221.22C323.616 219.584 321.053 218.622 320.232 218.91C318.592 219.488 318.489 219.103 319.412 216.889C320.232 214.773 320.95 214.965 325.564 218.044ZM317.156 227.089C318.592 233.729 318.489 234.114 315.003 235.076C312.234 235.749 311.619 236.423 311.619 238.54C311.619 242.389 310.081 242.774 307.518 239.406C305.467 236.712 305.467 236.423 307.107 233.44C308.646 230.553 308.953 230.457 309.568 232.189C310.389 234.114 310.389 234.114 311.106 232.189C312.337 228.821 315.105 224.01 315.823 224.01C316.233 224.01 316.849 225.453 317.156 227.089ZM135.867 227.763C135.56 228.148 135.149 229.976 134.842 231.804C134.637 233.633 133.919 237.866 133.304 241.33C132.688 244.795 131.971 248.836 131.766 250.472C131.561 252.011 130.535 254.898 129.612 256.726L127.972 260.094L128.484 253.359C129.1 243.736 133.816 226.897 135.867 226.897C136.175 226.897 136.175 227.282 135.867 227.763ZM335.101 237C334.075 240.946 333.665 241.427 332.64 239.983C331.922 239.117 330.896 238.444 330.384 238.444C327.923 238.444 330.281 232.382 333.152 231.516C335.818 230.65 336.331 232.189 335.101 237ZM294.7 248.066C295.11 253.647 295.623 259.709 295.726 261.634C295.931 263.558 295.623 267.311 295.008 270.005C294.29 273.758 294.495 276.164 295.623 279.724L297.059 284.439L293.47 289.058C291.521 291.656 288.035 296.756 285.779 300.316C282.908 304.742 281.268 306.474 280.755 305.705C280.345 305.031 280.242 304.069 280.55 303.491C280.96 303.01 280.447 302.818 279.524 303.203C278.396 303.588 278.089 303.395 278.499 302.337C278.807 301.663 278.602 300.99 278.089 300.99C276.858 300.99 274.397 296.178 275.115 295.409C275.423 295.12 275.013 294.446 274.09 293.869C273.27 293.292 272.449 292.041 272.347 291.175C272.142 290.309 271.526 289.058 270.911 288.384C268.348 285.401 267.117 277.992 269.065 277.318C269.783 277.03 270.296 276.067 270.091 275.201C269.988 274.335 270.398 273.277 271.014 272.892C272.757 271.737 273.885 272.026 273.064 273.277C272.552 274.239 272.654 274.239 273.68 273.373C274.397 272.796 275.628 272.507 276.346 272.796C277.166 273.085 277.781 272.796 277.781 272.218C277.781 271.545 278.396 271.16 279.114 271.352C280.755 271.737 285.267 268.37 286.805 265.771C287.728 264.232 287.522 263.173 286.087 260.96C284.446 258.458 284.344 257.785 285.574 256.245C288.548 252.492 286.395 246.142 282.19 246.142C281.062 246.142 279.524 246.815 278.807 247.585C276.961 249.702 275.525 249.317 275.936 246.815C276.141 245.179 276.961 244.698 279.217 244.698C280.857 244.602 282.396 244.121 282.703 243.447C283.523 241.042 286.087 242.389 288.855 246.623C290.394 249.028 291.932 250.953 292.342 250.953C292.854 250.953 293.162 247.874 293.162 244.025C293.162 240.272 293.367 237.385 293.572 237.578C293.777 237.77 294.393 242.485 294.7 248.066ZM227.127 241.908C227.845 244.698 226.819 250.953 225.486 250.953C223.128 250.953 221.59 249.702 222.103 248.355C222.615 247.2 222.41 247.008 221.385 247.585C220.564 248.066 220.257 247.97 220.77 247.296C221.077 246.815 221.077 246.142 220.667 245.853C220.154 245.661 220.359 245.661 221.077 245.757C221.692 245.949 222.513 244.41 222.923 242.293C223.641 238.059 226.102 237.866 227.127 241.908ZM322.898 239.214C322.898 239.598 323.924 240.08 325.154 240.08C326.487 240.176 328.025 241.042 328.743 241.908C329.461 242.87 330.076 243.255 330.076 242.87C330.076 242.389 331.102 243.255 332.435 244.795C333.665 246.334 335.818 248.451 337.151 249.606L339.612 251.626L333.768 254.128C330.589 255.572 326.487 257.592 324.642 258.747C322.283 260.287 321.873 260.383 323.104 259.132C324.642 257.592 324.642 257.207 323.206 255.187C322.386 253.936 321.976 252.877 322.386 252.877C322.796 252.877 322.591 252.204 321.873 251.434C320.232 249.606 319.515 242.293 320.95 242.293C321.565 242.293 321.668 241.427 321.36 240.368C320.95 239.31 321.155 238.444 321.771 238.444C322.386 238.444 322.898 238.829 322.898 239.214ZM222.41 240.849C222.41 241.619 222 242.293 221.385 242.293C220.872 242.293 220.359 241.619 220.359 240.849C220.359 240.08 220.872 239.406 221.385 239.406C222 239.406 222.41 240.08 222.41 240.849ZM262.913 257.111C264.349 257.592 264.554 259.902 263.528 264.328C263.426 264.521 262.503 263.943 261.478 263.077C260.35 262.115 258.914 261.634 258.196 262.115C257.376 262.5 257.171 262.404 257.684 261.73C258.094 261.056 257.991 260.575 257.479 260.575C256.863 260.575 256.556 259.228 256.658 257.592C256.966 254.032 259.529 252.108 260.555 254.706C260.862 255.668 261.99 256.726 262.913 257.111ZM394.163 277.222C396.214 280.782 398.06 284.439 398.265 285.401C398.47 286.363 401.341 294.927 404.725 304.454C408.211 313.884 411.287 323.602 411.595 326.008L412.21 330.338L408.621 325.046C397.137 308.014 384.524 277.03 386.062 269.332L386.78 266.06L388.626 268.37C389.651 269.62 392.215 273.566 394.163 277.222ZM327.718 386.148C326.795 387.88 326.487 387.591 325.154 383.839C323.924 380.375 323.924 379.509 325.052 378.835C327 377.777 329.051 383.454 327.718 386.148ZM311.004 382.01C312.439 388.554 312.439 390.286 311.312 390.767C309.056 391.537 307.723 390.382 308.338 388.361C308.646 387.014 308.235 385.859 307.005 385.09C305.159 383.839 305.159 383.743 307.005 381.818C309.363 379.316 310.491 379.412 311.004 382.01ZM117.718 399.235C115.257 403.95 113.719 405.201 113.719 402.506C113.719 400.87 116.282 395.674 118.128 393.461C120.384 390.863 120.076 394.52 117.718 399.235ZM104.593 401.544C104.593 404.623 104.08 407.606 103.465 408.183C102.542 408.953 102.337 407.606 102.747 402.506C103.465 394.327 103.362 394.808 104.08 395.482C104.388 395.867 104.593 398.561 104.593 401.544ZM326.897 463.512C328.846 464.956 329.563 466.592 330.076 470.729C330.589 475.059 330.384 476.118 329.153 476.118C328.333 476.118 328.025 475.829 328.333 475.444C328.743 475.156 328.436 474.193 327.615 473.327C326.59 472.076 322.898 463.416 322.898 461.973C322.898 461.203 324.642 461.877 326.897 463.512ZM304.441 474.193C305.569 476.31 307.107 478.042 307.825 478.042C308.646 478.042 308.646 478.331 307.62 478.908C305.877 479.967 307.312 484.393 310.594 488.338C313.157 491.418 312.747 491.899 308.133 491.129C305.057 490.552 304.339 489.974 303.519 486.895C302.083 482.18 299.725 475.059 298.802 473.039C298.392 471.98 298.699 471.307 300.032 471.018C301.058 470.729 301.98 470.537 302.083 470.441C302.288 470.441 303.313 472.076 304.441 474.193ZM272.654 480.159C272.654 480.737 273.577 482.372 274.808 483.912C276.858 486.606 276.551 487.472 273.987 485.933C272.859 485.259 269.578 479.005 269.578 477.465C269.578 477.08 270.296 477.369 271.116 478.042C271.937 478.716 272.654 479.678 272.654 480.159ZM330.384 481.122C332.742 485.933 334.485 492.668 333.46 493.534C333.05 493.919 331.409 494.016 329.871 493.727C327.41 493.246 327 492.668 326.385 488.05C325.667 482.661 326.385 478.042 327.923 478.042C328.436 478.042 329.563 479.486 330.384 481.122ZM335.203 484.008C335.203 485.259 335.716 485.74 336.639 485.452C337.767 485.067 337.972 485.548 337.664 487.28C337.459 488.531 337.562 489.589 338.074 489.589C338.484 489.589 338.997 490.744 339.1 492.091C339.202 493.919 338.895 494.497 337.562 494.208C336.331 494.016 335.408 492.187 334.485 488.146C332.947 480.929 332.947 480.64 334.178 481.41C334.793 481.699 335.203 482.854 335.203 484.008ZM347.918 494.016C348.328 495.074 348.021 495.363 346.79 495.17C345.867 494.978 344.944 494.304 344.637 493.631C344.021 491.899 347.2 492.187 347.918 494.016ZM329.666 769.121C339.202 780.283 349.046 793.177 353.147 799.72C359.095 809.439 363.606 808.765 394.163 793.37C402.674 789.136 412.62 783.747 416.517 781.438C420.311 779.128 423.899 777.3 424.412 777.3C426.36 777.3 465.018 795.775 474.656 801.452C480.091 804.532 486.448 808.765 488.909 810.882L493.318 814.731L492.703 823.199C491.575 836.671 489.319 848.506 483.885 869.675C477.22 895.752 474.656 910.378 473.938 927.987C473.221 945.019 474.554 955.026 478.86 966.189C480.501 970.326 481.834 974.464 481.731 975.33C481.629 976.388 481.321 976.003 480.809 974.56C480.398 973.213 479.988 972.636 479.886 973.309C479.783 974.368 475.682 973.598 471.375 971.577C470.35 971.096 467.479 970.711 464.915 970.711C461.634 970.711 460.096 970.23 459.686 969.268C459.173 968.017 458.763 968.017 457.43 968.979C456.199 969.941 455.789 969.941 455.481 968.979C454.764 967.247 451.072 967.536 451.072 969.364C451.072 970.422 450.457 970.711 448.816 970.134C447.483 969.749 446.048 968.979 445.638 968.402C445.022 967.632 444.612 967.632 444.202 968.498C443.587 969.941 435.691 970.23 435.691 968.787C435.691 968.209 432.513 967.824 428.104 967.824C423.694 967.824 420.105 967.343 419.695 966.766C419.285 965.996 418.772 965.996 417.952 966.766C417.234 967.439 412.107 967.824 404.725 967.824C394.163 967.824 392.625 968.017 392.625 969.364C392.625 970.807 390.882 970.904 374.988 970.519C365.247 970.326 359.095 970.422 361.351 970.807C365.247 971.385 365.35 971.385 362.068 971.577C360.223 971.577 357.864 971.096 356.736 970.422C355.198 969.556 354.378 969.556 353.865 970.326C353.353 971.192 348.021 971.577 348.021 970.807C348.021 970.711 342.176 970.519 334.896 970.326C327.103 970.23 321.36 969.653 320.745 969.075C319.822 968.209 319.002 968.305 317.464 969.075C315.926 969.941 315.311 969.941 315.003 968.979C314.388 967.343 297.674 967.343 296.956 968.979C296.546 969.941 296.136 969.845 295.315 968.787C294.393 967.536 293.88 967.921 293.982 969.749C293.982 970.037 288.035 970.037 280.652 969.749C273.167 969.46 267.117 969.653 266.707 970.134C266.399 970.615 266.81 970.711 267.527 970.23C268.45 969.653 268.655 969.845 268.04 970.711C267.425 971.673 267.015 971.673 266.092 970.519C264.759 968.883 259.324 967.343 259.324 968.69C259.324 969.171 259.939 969.749 260.657 970.037C261.272 970.23 260.965 970.23 259.837 970.037C249.993 968.017 248.558 967.824 248.25 968.69C248.045 969.268 247.122 969.268 245.892 968.498C244.354 967.632 243.328 967.632 240.662 968.787C236.663 970.422 227.537 970.422 208.772 968.787C199.544 967.921 194.417 967.921 191.443 968.594C187.752 969.46 187.239 969.364 186.829 967.728C186.214 965.611 184.471 965.226 184.471 967.247C184.471 968.209 183.445 968.498 180.882 968.305C178.113 968.017 177.293 968.305 177.293 969.556C177.293 970.711 177.088 970.904 176.473 969.941C175.857 969.075 171.038 968.787 157.708 968.883C147.864 968.883 139.456 968.883 138.841 968.787C136.482 968.305 133.099 968.883 133.611 969.653C133.919 970.134 132.483 969.653 130.433 968.69C128.279 967.632 124.793 966.862 122.435 966.766C120.179 966.67 117.205 966.381 115.77 965.996C114.334 965.611 112.386 965.707 111.36 966.285C110.027 967.055 109.31 967.055 108.694 965.996C107.977 964.938 107.156 964.938 104.388 965.804C101.824 966.67 100.901 966.573 100.184 965.707C99.5684 964.745 99.3633 964.841 99.3633 965.9C99.3633 967.055 98.2354 967.247 94.2363 967.055C90.9551 966.766 89.1094 967.055 89.1094 967.728C89.1094 968.498 88.4941 968.402 87.1611 967.632C85.5205 966.67 83.9824 966.766 79.8809 967.728C77.0098 968.402 74.3438 968.69 74.0361 968.402C73.7285 968.113 72.7031 968.402 71.8828 969.075C70.6523 969.941 70.2422 969.941 69.9346 969.075C69.4219 967.632 60.7061 968.498 58.4502 970.134C57.6299 970.711 57.2197 970.711 57.5273 970.23C58.3477 968.883 46.1455 968.594 42.9668 969.845C41.5312 970.422 39.6855 971.288 38.7627 971.673C37.8398 972.154 36.6094 972.058 36.0967 971.577C35.584 971.096 33.8408 971.096 31.79 971.673C28.2012 972.636 24.0996 971.673 23.0742 969.556C22.7666 968.883 22.6641 969.268 22.8691 970.422C23.2793 972.732 21.126 973.502 19.793 971.481C19.3828 970.807 19.4854 970.711 20.2031 971.096C20.9209 971.481 21.4336 971.288 21.4336 970.807C21.4336 970.23 24.2021 966.381 27.5859 962.243C31.0723 958.202 36.4043 951.659 39.583 947.81C48.9141 936.359 65.3203 924.62 85.0078 915.382C96.2871 910.09 110.848 901.622 112.181 899.505C112.591 898.928 116.18 896.426 120.281 893.828C131.15 886.9 137.098 879.779 143.455 865.827C146.121 859.861 148.069 857.359 154.734 851.393C161.81 844.946 163.348 842.925 168.372 833.11C171.448 827.048 174.832 820.024 175.755 817.426C176.78 814.924 178.011 812.903 178.523 812.903C178.934 812.903 184.368 814.154 190.418 815.694C209.798 820.697 223.23 822.91 234.92 822.91C243.431 823.007 246.199 822.718 247.327 821.563C248.147 820.794 249.583 817.041 250.506 813.384C254.607 797.315 275.525 754.687 289.881 733.133L291.419 730.728L306.39 745.161C314.593 753.052 325.052 763.829 329.666 769.121ZM88.084 826.375C87.4688 827.433 86.751 828.299 86.4434 828.299C86.2383 828.299 86.4434 827.433 87.0586 826.375C87.6738 825.316 88.3916 824.45 88.6992 824.45C88.9043 824.45 88.6992 825.316 88.084 826.375ZM420.311 969.364C420.311 970.134 419.9 970.711 419.388 970.711C418.772 970.711 418.465 969.845 418.567 968.883C418.67 966.766 420.311 967.151 420.311 969.364ZM473.938 975.234C473.221 975.426 471.99 975.426 471.375 975.234C470.657 974.945 471.17 974.752 472.605 974.752C474.041 974.752 474.554 974.945 473.938 975.234ZM16.8193 976.485C17.127 976.966 16.9219 977.447 16.4092 977.447C15.7939 977.447 15.2812 976.966 15.2812 976.485C15.2812 975.907 15.4863 975.522 15.6914 975.522C15.999 975.522 16.5117 975.907 16.8193 976.485Z" fill="#222222"/>
<path d="M257.273 257.111C257.273 257.881 257.684 258.747 258.094 259.036C258.504 259.228 258.914 258.651 258.914 257.592C258.914 256.63 258.504 255.764 258.094 255.764C257.684 255.764 257.273 256.341 257.273 257.111Z" fill="#222222"/>
<path d="M297.263 41.3763C296.033 43.4932 296.033 43.4932 297.879 41.9536C298.904 40.9914 299.417 40.0291 299.109 39.6442C298.699 39.3556 297.879 40.1254 297.263 41.3763Z" fill="#222222"/>
<path d="M459.583 65.9135C460.506 66.1059 462.147 66.1059 463.172 65.9135C464.095 65.6248 463.275 65.4323 461.326 65.4323C459.378 65.4323 458.558 65.6248 459.583 65.9135Z" fill="#222222"/>
<path d="M108.592 311.67C106.746 314.75 102.337 326.2 102.747 326.585C102.952 326.778 104.798 323.025 106.746 318.31C110.232 310.035 111.053 307.34 108.592 311.67Z" fill="#222222"/>
<path d="M100.389 331.781C99.7737 333.995 99.4661 336.015 99.6712 336.208C99.8763 336.496 100.594 334.861 101.209 332.551C101.825 330.338 102.132 328.317 101.927 328.125C101.722 327.932 101.004 329.568 100.389 331.781Z" fill="#222222"/>
<path d="M97.4151 341.981C97.4151 343.04 97.7228 343.329 98.0304 342.559C98.338 341.885 98.2354 341.019 97.9278 340.73C97.6202 340.346 97.3126 340.923 97.4151 341.981Z" fill="#222222"/>
<path d="M550.535 743.622C550.535 744.103 551.048 744.584 551.663 744.584C552.176 744.584 552.381 744.103 552.073 743.622C551.766 743.044 551.253 742.659 550.945 742.659C550.74 742.659 550.535 743.044 550.535 743.622Z" fill="#222222"/>
</svg>
