<svg width="534" height="789" viewBox="0 0 534 789" fill="none" xmlns="http://www.w3.org/2000/svg">
<path d="M241.73 6.34856C241.551 12.5255 240.835 17.673 238.508 30.8849C237.971 34.145 237.076 39.6357 236.718 42.8957C236.181 46.1558 235.107 53.1907 234.033 58.3382C233.138 63.4857 232.601 69.4911 233.138 71.5501C233.496 73.7807 232.959 75.4965 231.885 75.4965C230.811 75.4965 230.453 78.0702 230.811 81.3303C231.169 84.5904 230.99 86.9925 230.274 86.4778C229.558 86.1346 228.663 88.1936 228.305 90.9389C227.768 93.8558 228.305 96.0864 229.379 96.0864C230.632 96.0864 230.632 96.6011 229.2 97.4591C228.126 98.1454 226.694 102.95 225.978 108.097C225.441 113.245 224.188 120.28 223.293 123.54C222.398 126.8 220.787 137.095 219.713 146.189C217.207 166.779 216.67 170.039 214.522 172.098C213.627 172.956 206.108 171.068 195.905 167.465C186.418 164.033 176.215 161.288 172.993 161.288C169.95 161.288 160.284 160.43 151.871 159.229C136.118 157.342 120.187 158.543 124.841 161.288C126.631 162.317 126.094 162.832 122.872 163.518C120.545 163.862 122.335 164.376 126.989 164.548C131.464 164.548 141.667 165.921 149.365 167.293C163.864 169.867 211.3 183.765 209.867 184.966C209.509 185.31 204.497 184.28 198.769 182.736C185.344 178.789 176.931 176.73 171.382 175.872C143.457 171.411 124.841 170.382 124.841 173.127C124.841 173.813 131.464 175.186 139.698 175.872C162.432 177.76 210.762 187.883 210.762 190.8C210.762 191.487 209.151 192.859 207.361 193.889C204.497 195.261 203.423 194.918 201.991 192.688C200.38 189.942 200.022 190.114 199.843 193.889L199.664 198.178L198.232 193.889C197.516 191.487 196.8 190.629 196.621 191.83C196.442 193.031 195.547 193.546 194.652 193.031C193.578 192.344 193.041 192.859 193.22 193.889C193.578 195.09 192.325 196.291 190.535 196.462C188.566 196.806 186.597 197.663 186.06 198.35C185.344 199.036 186.239 199.036 187.85 198.521C189.64 198.007 191.43 198.178 191.967 199.208C192.683 200.066 192.504 200.58 191.609 200.409C190.893 200.237 188.387 200.924 186.239 202.125C183.375 203.669 182.301 203.669 181.764 202.125C181.227 200.924 180.511 201.267 179.795 203.154C179.079 204.698 179.258 205.728 180.153 205.042C181.048 204.527 182.301 204.87 182.838 205.728C183.554 206.586 181.943 207.101 179.258 206.757C176.752 206.586 173.53 207.444 172.098 208.816C170.666 210.189 169.592 210.532 169.592 209.503C169.592 208.645 170.487 207.272 171.382 206.757C172.456 206.243 173.172 204.698 173.172 203.669C173.172 202.296 172.635 202.296 171.561 203.84C170.845 205.042 169.055 206.243 167.623 206.586C166.191 206.757 163.148 207.958 160.642 209.331C158.136 210.704 155.451 211.562 154.735 211.39C154.019 211.219 152.945 212.076 152.408 213.278C151.871 214.65 149.544 215.508 146.679 215.165C144.173 214.993 140.951 215.508 139.877 216.366C138.445 217.567 137.371 217.396 136.476 216.194C135.76 214.993 133.433 216.023 129.853 218.768C126.989 221.17 123.946 223.058 123.23 223.058C122.514 223.058 119.829 224.774 117.502 226.661L113.206 230.436L129.316 229.235C148.112 227.691 186.06 227.862 190.177 229.235C193.936 230.607 193.578 234.554 189.282 238.843C187.313 240.902 185.702 243.648 185.702 244.849C185.702 246.221 184.986 246.736 183.912 246.221C183.017 245.707 182.122 246.393 182.122 247.766C182.122 249.31 180.869 250.511 179.437 250.511C178.005 250.511 176.752 249.653 176.752 248.795C176.752 247.594 175.678 247.594 173.709 248.624C171.919 249.482 166.728 251.197 162.074 252.227C157.42 253.428 153.84 254.972 154.377 255.659C154.914 256.345 152.05 257.374 147.932 258.061C143.994 258.575 141.309 259.948 141.846 260.806C142.383 261.836 141.667 262.007 140.235 261.492C138.624 260.978 137.908 259.605 138.624 258.404C139.519 257.031 139.161 257.031 137.192 258.404C135.76 259.433 131.464 260.978 127.705 261.492C122.693 262.35 121.44 263.208 123.051 264.238C124.483 265.096 126.094 265.439 126.81 264.924C127.526 264.581 128.958 265.439 130.211 266.811C132.001 268.87 131.643 269.214 128.958 268.527C126.989 268.184 124.304 268.699 122.872 269.385C121.261 270.415 119.292 269.9 117.323 268.184C114.638 265.954 114.101 265.954 113.922 267.841C113.743 269.214 113.027 268.356 112.311 265.954C110.879 261.664 110.879 261.664 110.7 265.61C110.521 267.841 109.805 269.042 108.731 268.527C107.836 268.012 106.941 268.356 106.941 269.385C106.941 270.415 106.225 270.758 105.151 270.243C104.077 269.557 103.361 271.101 103.361 273.675C103.361 276.248 102.645 277.793 101.571 277.106C99.2437 275.734 99.2437 276.763 101.75 282.082C103.182 284.828 104.793 285.857 106.583 285.342C108.731 284.484 109.089 285.171 108.194 288.774C107.299 291.519 107.836 293.407 109.268 293.922C110.342 294.436 109.268 294.951 106.762 294.951C104.077 295.123 101.392 296.324 100.855 297.868C99.9597 299.927 100.497 300.442 102.466 299.584C109.447 297.182 132.896 305.246 138.803 312.109C145.784 320.345 146.679 322.404 144.531 325.493C142.741 328.238 142.562 328.238 143.457 325.664C143.994 323.949 143.636 322.747 142.741 323.091C141.846 323.262 140.056 321.89 138.624 320.002C137.013 318.115 135.581 316.914 135.223 317.428C134.328 318.458 114.817 376.281 112.49 384.346C111.595 387.606 110.879 389.15 110.7 387.777C110.521 384.689 115.891 365.472 121.261 349.514C123.409 342.994 124.841 337.332 124.304 336.817C123.767 336.303 122.335 339.219 121.261 343.166L119.113 350.544L115.712 345.053C111.953 338.876 109.268 337.847 112.49 343.509C114.28 346.769 113.564 346.597 108.731 342.308L102.824 337.16L109.447 345.396C116.07 353.976 118.576 360.324 112.311 353.289C108.194 348.313 107.657 351.23 111.595 359.981L114.28 366.33L106.583 359.466C102.466 355.691 100.318 354.147 101.929 356.035C103.361 357.922 106.046 362.212 107.836 365.472C110.879 371.305 110.879 371.477 107.657 368.732C99.7807 362.212 73.1093 352.26 70.2452 354.833C69.7082 355.348 74.1833 357.579 80.0904 359.638C90.8306 363.413 106.046 373.021 107.836 377.311C108.731 379.37 108.373 379.37 105.867 377.311C104.077 375.938 100.676 374.909 98.1697 374.737C95.6637 374.737 91.9046 374.051 89.9356 373.364C87.9665 372.507 88.8615 373.536 91.9046 375.423C98.8857 379.713 106.046 389.15 106.046 394.126L106.225 398.072L101.571 393.954C99.0647 391.724 92.6206 387.777 87.2505 385.032C79.0164 381.086 74.8993 380.228 61.2951 379.885L45.1848 379.541L60.4001 380.742C74.8993 381.944 84.3865 385.204 93.1576 391.724C97.0957 394.812 97.0957 396.528 93.1576 395.155C91.0096 394.298 92.0836 396.357 95.8427 400.646C102.287 408.196 103.898 413.343 97.4537 406.48C92.0836 400.646 78.1214 396.357 62.7271 395.842C55.746 395.67 50.3759 394.984 50.7339 394.469C51.0919 393.954 49.3019 393.783 46.7959 394.298C40.1728 395.499 43.0368 396.871 53.777 397.558C58.7891 397.729 67.0232 398.759 71.8563 399.788C80.9854 401.676 97.9907 409.568 97.9907 411.971C97.9907 412.657 94.9476 413 91.3676 412.657C84.7445 411.799 84.7445 411.971 89.5776 413.858C92.2626 415.059 94.4106 416.775 94.4106 417.976C94.4106 419.005 96.2007 421.236 98.5277 422.609C100.676 424.153 96.3797 423.123 89.0405 420.55C67.9182 412.828 45.9009 407.853 43.3948 410.255C42.4998 411.113 40.3518 411.799 38.7407 411.799C35.6977 411.799 32.6546 416.603 34.4447 418.319C34.9817 418.834 35.3397 418.491 35.3397 417.633C35.3397 415.231 69.1712 417.804 77.7634 420.893C84.9235 423.467 101.571 432.046 101.571 433.247C101.571 433.418 96.9167 431.874 91.1886 429.644C76.8684 424.153 51.808 422.437 39.6358 426.384C26.7475 430.33 25.6735 431.188 27.2846 436.85C29.7906 445.601 29.7906 446.116 26.0315 446.116C23.1675 446.116 22.8095 446.63 24.4205 448.518C26.0315 450.234 25.8525 451.091 23.8835 451.778C21.9145 452.464 21.3775 454.352 22.0935 458.47C22.8095 461.558 23.1675 466.019 23.1675 468.421C23.1675 470.824 23.8835 473.912 24.7785 475.456C25.6735 477.001 25.6735 480.604 24.5995 483.692C23.7045 486.609 23.7045 489.354 24.5995 489.869C25.4945 490.384 25.8525 492.271 25.4945 494.159C25.1365 496.046 25.4945 497.934 26.3895 498.448C28.0006 499.306 29.2536 501.88 36.5927 518.18L39.2777 524.186L33.0126 518.524C25.3155 511.317 18.6924 499.821 14.7544 486.438C10.9953 473.912 10.8163 473.569 7.95224 474.598C4.37219 475.799 4.9092 484.207 8.84726 487.124C12.4273 489.869 12.4273 490.041 8.31025 490.212C1.32914 490.727 0.613126 493.644 6.52022 496.904C9.56327 498.62 12.0693 500.679 12.0693 501.537C12.0693 502.223 11.5323 502.566 10.8163 502.223C9.20526 501.365 5.98321 504.454 5.4462 507.028C4.55119 512.175 3.83518 514.062 2.22415 515.092C1.15013 515.95 1.32914 516.465 2.94016 516.465C4.9092 516.465 4.9092 516.979 3.11917 519.038C1.86615 520.411 1.50814 521.612 2.40315 521.612C3.29817 521.612 2.76116 522.47 1.32914 523.328C-0.818897 524.701 -0.460891 525.044 3.11917 525.044C7.05723 525.215 7.23623 525.387 4.37219 526.931C2.76116 527.789 1.32914 530.02 1.32914 531.735C1.32914 534.481 2.58216 534.824 10.8163 534.309C19.2294 533.794 19.4084 533.966 13.3223 535.167C5.0882 536.883 4.55119 537.398 3.65618 543.918C3.11917 548.894 3.29817 549.065 7.23623 547.178L11.1743 545.119L7.77324 548.894C3.47717 553.527 2.40316 558.331 5.98321 556.958C14.0383 553.698 14.5754 553.698 10.6373 556.958C7.77324 559.189 6.16222 562.792 5.4462 567.939L4.55119 575.661L9.20526 569.141C15.1124 561.248 16.9024 560.733 12.0693 568.454C6.52022 577.205 7.95224 578.749 14.9334 571.714C20.8405 565.88 21.0195 565.88 16.7234 571.028C14.2173 574.288 12.0693 577.891 12.0693 579.092C12.0693 580.293 11.5323 582.867 10.9953 584.583C10.2793 586.985 10.8163 586.814 13.6803 583.554C17.9764 579.092 18.6924 580.808 14.7544 585.784C13.3223 587.672 12.0693 590.417 12.0693 591.79C12.0693 594.192 12.2483 594.192 13.8593 591.961C14.7544 590.588 15.6494 590.074 15.6494 591.103C15.6494 591.961 17.6184 590.417 20.1244 587.672L24.7785 582.524L21.0195 589.387C15.8284 599.168 15.1124 605.688 18.1554 612.551L20.6614 618.556L21.9145 613.409C24.0625 603.972 26.5685 597.109 28.1796 596.251C29.0746 595.736 28.7166 597.966 27.2846 601.227C23.7045 609.291 23.8835 625.077 27.4636 631.768C29.6116 635.886 30.6856 636.573 31.9386 634.685C33.1917 632.798 33.5497 633.141 33.5497 635.886C33.5497 639.661 43.2158 652.53 45.1848 651.672C45.9009 651.329 47.5119 653.045 48.7649 655.447C50.0179 657.849 51.808 659.736 52.703 659.565C53.419 659.393 56.104 661.452 58.6101 664.026C62.7271 668.315 76.3313 677.238 87.2505 682.9C91.5466 685.131 91.5466 684.959 89.0405 681.871C86.5345 678.782 86.5345 678.782 89.9356 681.527C106.404 694.739 164.759 697.141 204.139 686.16C210.942 684.273 216.849 683.072 217.386 683.415C217.923 683.93 220.429 690.45 223.114 697.999C229.2 714.643 234.391 723.394 247.458 738.836C264.463 759.083 280.037 769.035 308.14 778.129C349.311 791.34 391.734 792.542 425.745 781.56C448.299 774.182 472.644 757.367 487.143 739.008C492.513 732.144 498.778 724.423 501.105 721.678C503.253 718.932 506.475 712.927 508.086 708.466C509.697 703.833 511.308 700.573 511.845 701.088C513.277 702.289 519.542 674.149 522.228 655.618C523.302 647.726 525.987 637.259 527.777 632.455C530.641 625.763 530.999 623.018 529.567 619.929C528.135 617.012 528.314 616.154 529.925 616.497C531.357 616.669 531.894 615.296 531.357 612.551C530.104 603.972 530.283 601.227 532.431 593.848C534.221 587.843 534.221 585.956 532.61 584.926C531.178 584.068 530.999 583.039 532.431 581.323C534.4 578.921 534.579 547.864 532.61 544.776C532.073 543.746 531.715 539.971 532.073 536.197C532.252 532.422 531.894 528.475 530.999 527.446C530.104 526.416 529.209 522.642 528.851 518.867C528.493 514.406 527.419 512.347 525.987 512.69C524.555 513.033 524.018 512.175 524.555 510.631C526.345 506.513 528.135 489.698 526.882 490.899C526.345 491.413 524.197 499.135 522.049 508.057C520.079 516.808 518.289 524.186 518.11 524.357C517.931 524.529 517.752 513.376 517.752 499.478C517.752 479.574 517.036 473.397 515.067 470.824C513.456 469.108 513.277 468.25 514.709 469.108C515.783 469.794 516.857 469.622 516.857 468.593C516.857 467.735 515.962 466.362 515.067 465.848C513.993 465.161 513.456 463.789 513.635 462.759C513.993 461.558 511.129 457.783 507.37 454.352C501.284 448.518 498.599 444.743 502.179 446.802C503.074 447.317 503.611 446.116 503.432 444.228C503.074 439.252 499.673 437.708 489.291 437.88C483.563 437.88 481.415 438.394 483.026 439.424C484.458 440.282 484.816 440.968 483.742 440.968C482.847 440.968 483.384 441.826 485.174 442.856C486.785 443.885 487.859 445.258 487.322 446.116C486.785 446.802 487.68 448.003 489.291 448.518C490.723 449.032 491.439 448.861 490.902 448.003C490.365 447.145 490.544 445.944 491.439 445.429C492.155 445.086 492.871 446.116 493.05 447.831C493.408 450.748 492.334 451.091 484.995 450.577C476.045 449.89 454.743 453.322 448.299 456.582C446.151 457.783 441.318 460.872 437.738 463.617L430.936 468.765V464.475C430.936 461.558 433.442 458.126 438.633 453.837C444.003 449.376 444.54 448.518 440.423 451.091C437.201 453.15 434.158 455.553 433.621 456.411C431.652 459.327 429.683 458.298 429.862 454.523C429.862 452.464 433.263 448.175 437.201 444.915C442.213 440.625 442.75 439.767 438.991 442.169C436.127 444.057 432.189 446.116 430.399 446.63C427.714 447.66 427.535 447.145 429.146 444.4C433.621 436.507 456.175 426.04 472.465 424.325C480.699 423.467 482.489 422.952 480.162 421.579C476.761 419.863 467.095 420.893 452.058 425.011C438.096 428.614 424.671 440.453 426.282 447.488C426.819 450.062 427.893 459.156 428.43 467.907C429.146 476.657 430.399 483.349 431.115 482.834C432.01 482.32 432.189 479.403 431.652 476.143C430.757 470.824 431.294 469.966 438.275 465.848C449.731 458.813 459.398 456.067 473.002 455.896C486.785 455.724 495.377 457.268 495.377 459.842C495.377 460.872 493.408 461.215 490.902 460.529C487.322 459.671 485.353 460.529 481.057 465.161C478.193 468.421 475.687 470.137 475.687 469.279C475.687 468.25 474.971 468.593 474.076 469.794C473.36 470.995 466.379 473.569 458.682 475.456C438.454 480.432 429.146 485.065 429.146 490.041C429.146 493.816 429.325 493.987 435.411 491.413C438.812 490.212 444.54 489.011 447.941 489.011C451.879 489.011 454.027 488.325 453.311 487.295C452.774 486.266 453.669 485.58 455.459 485.408C457.428 485.408 457.786 484.893 456.354 484.379C455.101 483.864 452.774 484.55 451.163 485.923C449.015 487.467 448.478 487.467 449.552 485.923C450.268 484.893 449.91 483.864 449.015 483.864C447.941 483.864 447.046 484.55 447.046 485.408C447.046 486.438 445.614 486.952 444.003 486.952C442.213 486.781 438.454 487.124 435.411 487.81C430.936 488.84 430.578 488.668 433.442 487.124C439.707 483.521 454.922 480.432 467.274 480.432C481.594 480.432 482.31 483.692 467.99 484.035C460.651 484.207 459.577 484.55 463.157 485.58C467.453 486.952 467.274 486.952 461.725 487.124C458.324 487.295 456.175 487.982 456.891 489.011C457.428 490.041 460.114 490.212 462.799 489.698C466.021 489.011 466.916 489.183 465.305 490.384C463.336 491.585 463.336 492.1 465.663 492.958C467.274 493.644 467.99 495.188 467.453 496.733C466.558 498.62 465.663 498.963 464.052 497.59C462.441 496.218 461.367 496.218 460.472 497.59C459.935 498.448 454.564 499.306 448.836 499.306C443.108 499.306 436.306 499.993 433.8 501.022C431.294 501.88 429.146 502.052 429.146 501.194C429.146 499.649 436.127 496.733 444.003 494.845C453.132 492.786 447.583 492.1 437.738 493.987L428.072 496.046L425.208 510.116C422.523 522.985 422.344 523.328 423.239 513.891C423.776 508.4 424.492 502.223 425.029 500.164C426.64 494.502 425.566 467.907 423.06 452.121C422.523 449.204 421.628 444.057 421.091 440.282C420.554 436.679 419.301 432.389 418.406 430.673C417.511 429.129 417.332 427.07 418.048 426.384C418.764 425.526 418.227 425.526 417.153 426.212C415.9 426.898 414.826 428.614 414.826 429.987C414.826 431.359 413.215 435.306 411.067 438.909C406.771 446.287 407.487 442.856 413.215 427.756C416.437 419.52 416.974 416.603 415.363 415.059C413.752 413.515 412.32 414.373 409.635 418.834C407.487 422.094 405.697 425.354 405.339 426.384C404.981 427.413 403.37 427.07 401.58 425.697C399.253 423.81 399.074 422.952 400.864 421.751C402.296 420.893 402.475 419.863 401.401 419.005C398.179 416.775 398.716 411.113 403.37 398.587C406.234 390.866 408.74 386.576 409.993 387.263C411.246 387.949 411.425 387.263 410.709 385.375C409.993 383.659 409.456 378.855 409.456 374.737V367.187L403.37 373.536C400.148 377.139 396.031 382.63 394.419 385.547C391.018 392.067 388.87 393.096 390.839 387.263C391.376 385.204 391.376 384.003 390.66 384.689C389.944 385.375 389.049 389.15 388.87 392.925C388.691 396.871 387.438 400.989 386.364 402.019C384.753 403.563 384.395 403.391 385.29 400.989C387.08 396.7 384.574 397.386 382.426 401.847C380.994 405.45 380.815 405.279 381.71 400.818C383.679 391.895 390.302 380.228 400.327 368.56C411.962 354.833 420.196 350.887 432.726 352.603L440.781 353.804L432.189 356.035C419.659 359.123 414.11 363.584 413.394 371.134C413.036 374.566 413.573 378.683 414.468 380.056C415.363 381.944 415.9 380.228 415.9 374.566C415.721 366.673 415.9 366.33 423.776 362.212C429.325 359.123 434.516 357.922 441.139 357.75C451.521 357.75 453.49 355.863 450.268 349.343C448.657 345.911 449.015 344.024 452.416 338.876C456.354 332.699 456.533 332.185 454.206 315.198C452.953 305.589 451.879 291.863 451.521 284.828C450.626 249.996 447.046 232.838 441.139 236.27C440.065 236.784 439.886 236.441 440.602 235.412C441.497 233.867 438.991 233.353 432.01 233.353C423.418 233.353 422.344 233.696 423.239 236.27C424.134 238.5 423.776 238.843 421.091 237.814C419.122 237.128 418.227 237.128 418.943 237.814C419.659 238.5 419.301 240.044 418.048 241.417C416.437 243.305 416.795 243.476 419.48 242.618C421.27 242.103 420.196 243.133 416.974 245.192C413.752 247.251 410.172 248.795 408.919 248.967C407.845 248.967 408.382 249.653 410.351 250.511C413.573 251.884 413.394 252.055 409.098 252.055C406.234 252.227 404.086 253.085 404.086 254.114C404.086 254.972 403.191 255.315 401.938 254.629C400.685 253.943 400.506 254.114 401.222 255.315C402.117 256.86 403.549 256.86 406.055 255.487C408.024 254.629 410.53 254.114 411.783 254.629C413.036 254.972 412.32 255.487 410.351 255.659L406.771 255.83L410.351 257.546C413.394 258.919 413.215 258.919 409.098 258.232C406.413 257.718 403.728 258.061 403.191 259.09C402.117 260.634 404.623 261.492 408.203 260.978C409.098 260.806 409.277 261.492 408.74 262.35C407.487 264.238 400.506 264.238 400.506 262.35C400.506 259.948 384.395 262.35 382.247 265.096C381.352 266.125 380.815 266.125 380.815 264.752C380.815 262.865 379.204 262.865 370.612 264.924C368.822 265.439 364.884 266.297 361.841 266.811L356.292 268.012L355.934 253.771C355.397 232.152 353.965 235.24 353.965 258.061C353.965 277.278 354.144 277.964 357.366 276.248C362.915 273.503 399.611 274.018 414.826 277.106C432.368 280.71 441.676 283.283 441.676 284.828C441.676 286.887 434.695 288.088 434.158 286.2C433.8 285.171 432.189 285.514 430.578 287.058C429.146 288.602 427.356 289.289 426.64 288.774C426.103 288.088 425.566 288.774 425.566 290.147C425.566 292.034 425.208 292.034 423.955 290.318C422.881 288.602 421.628 288.774 418.227 291.519C415.542 293.578 415.005 294.779 416.616 294.608C418.048 294.436 419.48 294.951 419.659 295.809C419.838 296.667 420.912 297.868 421.986 298.554C423.239 299.241 423.597 300.785 423.06 301.814C421.091 304.731 418.585 302.329 419.301 298.554C419.659 296.495 419.301 295.466 418.227 295.981C417.332 296.667 416.616 298.211 416.616 299.584C416.616 300.956 415.9 301.814 415.005 301.128C414.11 300.613 412.678 301.128 411.962 302.158C411.067 303.53 411.425 303.702 413.036 302.844C414.468 301.986 415.005 302.329 414.468 303.873C413.931 305.246 411.425 306.275 408.919 306.275C406.413 306.104 404.623 306.619 405.16 307.305C406.413 309.192 401.401 312.109 397.284 311.766C393.703 311.595 393.524 311.423 396.568 308.163C399.253 304.903 399.253 304.903 396.568 306.79C394.24 308.506 392.629 308.678 389.944 307.133C387.438 305.932 386.185 305.932 386.185 306.962C386.185 308.163 384.395 308.163 381.352 306.962C378.488 305.932 374.013 304.731 371.149 304.388C368.285 304.045 364.705 302.672 363.273 301.643C360.946 299.755 360.767 299.927 362.02 301.986C362.736 303.359 361.841 303.015 359.872 301.128C357.903 299.241 356.65 296.495 357.008 295.123C357.724 292.892 357.545 292.892 356.113 294.951C355.039 296.495 354.681 305.074 355.039 316.056C355.755 333.9 355.576 334.587 352.354 333.042C350.564 332.013 348.416 331.841 347.7 332.528C346.805 333.214 346.626 332.871 347.163 332.013C347.7 330.983 347.521 328.753 346.626 326.865C345.552 323.949 345.194 323.949 345.194 326.351C345.015 328.238 343.046 329.782 340.182 330.469C337.318 330.983 334.095 331.841 332.663 332.185C330.694 332.871 330.694 332.528 332.305 330.469C333.558 328.924 336.065 327.38 337.855 326.865C339.824 326.351 340.898 324.806 340.361 323.434C339.824 322.233 341.077 319.487 343.046 317.6C346.447 314.34 347.521 311.766 346.984 307.991C346.984 306.962 341.972 306.275 336.065 306.275C330.157 306.275 324.429 305.246 323.355 304.216C319.775 300.785 322.818 299.755 327.651 302.844C332.126 305.589 335.707 304.045 333.379 300.27C332.842 299.241 333.2 298.554 334.095 298.554C335.17 298.554 336.065 299.927 336.065 301.471C336.065 306.104 338.034 302.844 338.929 296.495C339.466 293.407 340.182 289.975 340.54 288.946C340.898 287.916 340.361 286.029 339.645 284.656C338.571 283.283 339.466 280.366 341.793 276.592C344.836 271.787 345.194 270.071 343.404 266.64C342.151 263.895 341.972 261.321 343.046 259.262C345.552 254.801 345.015 245.02 342.33 247.079C341.256 247.937 339.645 248.28 339.108 247.594C338.392 247.079 335.886 248.28 333.379 250.511C327.83 255.487 327.651 253.771 332.842 245.707L336.602 239.701L331.947 242.79C329.262 244.334 327.114 245.02 327.114 244.334C327.114 243.476 325.861 244.162 324.608 245.878C322.102 248.795 321.923 248.795 320.312 246.05C319.059 243.819 318.522 245.02 318.88 251.369C319.059 259.433 319.238 259.777 325.324 261.321C328.725 262.179 332.484 263.551 333.379 264.581C334.632 265.954 334.453 266.125 332.663 265.096C331.41 264.409 323.713 263.208 315.658 262.522C307.782 261.836 299.19 260.634 296.684 259.948C293.999 259.262 293.104 259.433 294.357 260.291C296.684 261.836 299.011 283.627 296.863 282.254C296.147 281.911 295.431 284.828 295.073 288.774C294.894 292.72 294.536 296.152 294.178 296.324C292.925 297.525 287.913 294.608 288.808 293.235C289.345 292.377 287.555 292.549 285.049 293.407C282.006 294.608 280.753 294.608 281.469 293.407C282.006 292.377 281.648 291.691 280.574 291.691C279.5 291.691 278.963 291.005 279.5 290.147C280.037 289.289 278.426 286.715 275.741 284.141C273.235 281.739 271.981 279.68 273.056 279.68C274.13 279.68 277.173 282.597 279.679 286.029C282.185 289.632 284.154 291.691 284.154 290.661C284.154 289.632 282.364 286.543 280.395 283.97C277.173 280.366 276.994 278.994 278.784 277.964C280.574 276.935 279.321 276.077 275.025 274.876C270.907 273.846 268.043 274.018 266.432 275.219C264.284 276.763 264.284 276.592 266.432 273.16C267.864 271.101 270.012 269.728 271.265 270.243C272.518 270.758 273.235 270.415 272.697 269.557C272.16 268.87 273.593 266.64 275.741 264.581C280.395 260.463 296.684 250.511 298.832 250.511C301.696 250.511 300.085 255.659 297.221 255.83C295.431 256.002 297.221 256.688 301.159 257.374C305.097 258.061 308.677 258.404 309.035 258.061C309.393 257.889 308.677 255.144 307.782 252.227C306.35 248.28 306.35 247.251 307.782 248.109C309.214 248.967 309.393 248.28 308.677 246.05C307.424 242.961 307.424 242.961 310.109 246.05C311.541 247.937 312.794 251.541 312.794 254.286C312.794 256.86 313.689 259.09 314.584 259.09C316.911 259.09 316.732 258.061 314.047 249.138C312.794 245.02 310.646 241.074 309.393 240.216C307.603 239.187 307.961 238.5 310.825 237.642C313.51 236.784 316.016 237.471 318.343 239.53C321.744 242.447 322.281 242.447 331.41 237.985C336.602 235.412 341.793 233.353 343.046 233.353C344.299 233.353 353.428 229.921 363.631 225.632C386.006 216.366 403.907 212.076 414.826 213.449C427.177 214.993 439.886 219.969 439.707 222.886C439.707 224.774 439.349 224.945 438.633 223.401C438.096 221.857 432.01 221.342 416.974 221.342C396.031 221.342 389.586 222.543 355.755 232.323C343.941 235.926 350.564 235.583 370.075 231.637C395.672 226.489 437.201 227.691 444.898 233.696C447.941 236.098 447.583 233.01 444.361 228.892C441.318 224.945 440.781 221.514 443.824 224.43C447.404 227.862 448.657 226.661 448.12 220.141C447.404 211.733 439.528 205.042 428.43 203.497C423.955 202.811 418.764 202.639 416.974 203.154C415.363 203.669 405.518 205.213 395.135 206.757C378.309 209.16 373.834 210.704 352.712 220.656C333.2 229.921 326.935 231.98 316.553 233.181C301.696 234.554 301.517 234.554 301.338 216.194C301.159 210.017 300.443 204.012 299.548 202.811C298.653 201.438 297.937 198.007 297.579 195.09C297.4 192.001 296.505 181.878 295.789 172.441C295.073 163.004 294.178 153.738 293.641 151.851C293.283 149.963 292.925 144.816 292.925 140.355C292.925 134.006 292.388 132.462 290.24 133.32C288.987 133.835 288.092 134.864 288.629 135.55C289.166 136.237 289.703 141.556 289.882 147.39C290.061 153.224 290.777 157.856 291.493 157.856C292.03 157.856 292.567 163.862 292.567 171.068C292.388 178.446 293.104 187.883 293.999 192.001C295.61 200.752 297.4 200.58 273.056 193.717C259.451 189.942 259.093 189.771 259.093 184.623C259.093 179.647 263.389 123.711 265.179 102.95C265.716 97.8022 266.611 87.3357 267.148 79.7861C267.685 72.2364 268.938 55.2497 269.833 42.0378C272.16 11.496 272.16 -8.05035e-06 269.833 -8.05035e-06C268.938 -8.05035e-06 268.222 0.514741 268.401 1.20107C268.58 2.05899 268.222 8.40756 267.506 15.4425C266.79 22.4774 265.895 35.1745 265.358 43.7536C264.105 63.8288 261.062 104.322 259.988 118.049C258.556 133.148 257.303 150.65 255.871 170.725L254.618 187.883L246.563 187.369C235.465 186.682 219.713 182.221 218.639 179.304C218.102 177.931 218.46 172.784 219.713 167.808C220.787 162.832 222.04 155.283 222.577 150.993C223.651 142.757 224.367 137.953 231.169 99.5181C235.465 75.3249 243.52 24.7079 245.847 8.06439C246.742 1.8874 246.384 -8.05035e-06 244.415 -8.05035e-06C242.804 -8.05035e-06 241.909 2.23057 241.73 6.34856ZM145.068 162.489C143.815 162.832 141.309 162.832 139.698 162.489C137.908 161.974 138.982 161.631 141.846 161.631C144.889 161.631 146.142 161.974 145.068 162.489ZM162.432 164.72C166.012 165.749 166.191 166.092 163.327 166.092C161.358 166.092 157.42 165.406 154.377 164.72C149.544 163.518 149.544 163.347 153.482 163.347C155.988 163.347 159.926 164.033 162.432 164.72ZM225.441 189.771C227.052 190.285 228.842 192.001 229.379 193.374C230.095 194.918 228.484 194.575 224.546 192.001C217.386 187.197 216.312 186.339 219.713 187.712C221.145 188.226 223.83 189.256 225.441 189.771ZM220.608 193.889C222.398 195.776 223.472 197.32 222.935 197.32C222.398 197.32 220.608 195.776 218.818 193.889C217.028 192.001 215.954 190.457 216.491 190.457C217.028 190.457 218.818 192.001 220.608 193.889ZM244.952 197.663C242.625 198.35 239.224 202.639 236.718 207.958L232.422 217.052L233.496 209.331C234.928 199.208 236.718 195.948 241.551 195.261C247.458 194.232 249.606 195.948 244.952 197.663ZM247.1 203.326C246.563 204.87 245.668 205.728 245.31 205.213C244.773 204.698 244.952 203.669 245.668 202.639C247.279 199.894 248.353 200.409 247.1 203.326ZM166.549 209.846C167.086 211.047 166.012 212.076 164.043 212.076C161.716 212.076 161.358 211.562 162.79 209.846C163.864 208.645 164.938 207.615 165.117 207.615C165.475 207.615 166.012 208.645 166.549 209.846ZM243.878 211.047C242.804 214.307 243.341 214.479 247.816 213.449C250.501 212.763 252.47 212.763 251.933 213.278C250.322 214.822 226.157 222.886 225.262 222.2C224.546 221.342 236.36 216.194 239.224 216.194C240.119 216.194 241.372 214.307 241.909 211.905C242.625 209.503 243.52 207.615 244.057 207.615C244.594 207.615 244.415 209.16 243.878 211.047ZM201.275 213.106C200.738 214.479 200.201 213.964 200.201 212.076C200.022 210.189 200.559 209.16 201.096 209.846C201.633 210.361 201.812 211.905 201.275 213.106ZM276.099 214.307C288.45 219.626 288.808 219.626 285.765 214.135C284.154 211.047 284.333 210.875 287.555 211.905C290.061 212.591 291.314 212.248 291.314 210.875C291.314 209.16 291.851 209.16 293.283 210.532C294.536 211.733 295.789 217.052 296.147 222.543L297.042 232.495L286.481 235.24C280.753 236.784 274.488 238.672 272.518 239.358C270.549 240.044 271.623 239.015 274.667 236.956C285.944 230.093 284.154 220.656 270.191 213.621C258.556 207.958 262.136 208.302 276.099 214.307ZM401.759 211.219C391.197 212.591 385.827 213.964 367.39 220.312C365.421 220.999 366.316 220.141 369.18 218.597C378.309 213.449 393.882 209.503 404.086 209.674L413.931 209.846L401.759 211.219ZM423.418 210.532C421.628 210.875 418.764 210.875 417.153 210.532C415.363 210.017 416.795 209.674 420.196 209.674C423.597 209.674 425.029 210.017 423.418 210.532ZM195.905 235.412C195.547 237.642 195.189 235.926 195.189 231.637C195.189 227.347 195.547 225.632 195.905 227.691C196.263 229.921 196.263 233.353 195.905 235.412ZM201.991 236.784C203.065 236.784 202.707 237.985 201.096 239.358C197.337 242.961 197.158 242.79 198.232 233.696C198.948 226.833 199.127 226.489 199.664 231.122C200.022 234.211 201.096 236.784 201.991 236.784ZM235.823 239.358C233.675 241.589 230.453 243.648 228.663 244.162C226.336 244.677 227.41 242.961 231.885 238.672C238.866 232.152 242.446 232.666 235.823 239.358ZM194.115 250.854C193.757 253.085 193.399 251.369 193.399 247.079C193.399 242.79 193.757 241.074 194.115 243.133C194.473 245.364 194.473 248.795 194.115 250.854ZM199.485 248.795C199.306 252.57 196.442 253.6 196.442 249.996C196.442 247.937 198.053 245.364 199.306 245.364C199.664 245.364 199.664 246.908 199.485 248.795ZM296.684 246.221C296.684 247.251 282.722 254.114 272.518 258.061L265.358 260.978L268.938 257.374C273.414 253.085 296.684 243.648 296.684 246.221ZM343.225 252.398C343.225 253.256 342.509 253.6 341.435 253.085C340.54 252.57 338.75 253.6 337.497 255.659C334.811 259.605 332.484 260.12 332.484 256.516C332.484 253.943 337.139 250.683 341.077 250.511C342.151 250.511 343.225 251.369 343.225 252.398ZM216.133 263.38C214.88 264.924 213.448 265.61 212.732 265.096C212.195 264.581 212.911 263.38 214.343 262.522C218.102 260.12 218.639 260.463 216.133 263.38ZM209.867 265.954C209.33 266.811 207.54 267.669 206.108 267.669C204.676 267.669 203.602 266.811 203.602 265.954C203.602 264.924 205.213 264.238 207.361 264.238C209.33 264.238 210.404 264.924 209.867 265.954ZM228.126 268.012C227.589 269.385 227.052 268.87 227.052 266.983C226.873 265.096 227.41 264.066 227.947 264.752C228.484 265.267 228.663 266.811 228.126 268.012ZM193.399 269.385C193.936 271.273 193.578 272.474 192.683 271.787C191.788 271.273 190.893 272.645 190.893 274.876C190.714 277.964 190.535 278.136 189.819 275.734C189.103 273.332 188.387 272.988 186.418 274.704C183.196 277.278 155.809 277.45 153.124 274.876C152.05 273.846 150.081 273.503 148.828 274.018C147.395 274.533 146.321 274.018 146.321 272.988C146.321 271.787 148.828 271.101 152.229 271.273C155.272 271.444 164.759 270.929 173.172 270.243C181.585 269.385 188.924 268.87 189.819 269.042C190.535 269.214 191.072 268.527 191.072 267.669C191.072 264.752 192.325 265.782 193.399 269.385ZM341.435 267.326C341.435 268.87 326.935 274.876 325.861 273.846C325.324 273.332 339.466 265.954 341.077 265.954C341.256 265.954 341.435 266.64 341.435 267.326ZM234.57 275.391C234.033 276.935 233.138 277.793 232.78 277.278C232.243 276.763 232.422 275.734 233.138 274.704C234.749 271.959 235.823 272.474 234.57 275.391ZM194.115 278.307C193.578 279.68 193.041 279.165 193.041 277.278C192.862 275.391 193.399 274.361 193.936 275.047C194.473 275.562 194.652 277.106 194.115 278.307ZM276.457 277.278C275.92 277.793 274.309 277.964 273.056 277.45C271.623 276.935 272.16 276.42 274.13 276.42C276.099 276.248 277.173 276.763 276.457 277.278ZM317.269 287.23C321.744 289.632 321.923 289.975 318.343 288.946C316.016 288.431 312.973 287.745 311.362 287.573C309.751 287.23 307.961 285.686 307.245 283.798C305.992 280.881 305.813 280.881 305.813 284.313C305.634 286.543 304.918 288.259 303.844 288.259C302.949 288.259 302.591 287.058 302.949 285.686C305.992 276.592 305.634 276.763 309.035 280.71C310.646 282.769 314.405 285.686 317.269 287.23ZM231.348 281.396C230.811 282.425 227.589 284.313 224.546 285.857L218.818 288.602L224.188 284.141C229.737 279.68 233.317 278.307 231.348 281.396ZM299.369 291.348C299.906 294.608 299.548 296.838 298.474 296.838C297.579 296.838 296.684 293.922 296.684 290.49C296.684 283.112 297.937 283.455 299.369 291.348ZM151.692 289.117L161.537 291.691L151.692 290.833C146.321 290.318 137.55 289.975 132.538 289.975C127.347 289.975 123.051 289.117 123.051 288.259C123.051 285.686 140.414 286.372 151.692 289.117ZM333.737 295.466C333.2 296.838 332.663 296.324 332.663 294.436C332.484 292.549 333.021 291.519 333.558 292.206C334.095 292.72 334.274 294.265 333.737 295.466ZM141.488 298.04C140.235 298.383 138.087 298.383 137.013 298.04C135.76 297.525 136.655 297.182 139.161 297.182C141.667 297.182 142.562 297.525 141.488 298.04ZM150.439 299.755C149.186 300.099 147.037 300.099 145.963 299.755C144.71 299.241 145.605 298.897 148.112 298.897C150.618 298.897 151.513 299.241 150.439 299.755ZM314.584 307.991C314.942 304.731 315.479 306.447 316.374 313.139C317.09 318.801 316.911 324.12 316.016 324.978C315.3 326.008 314.584 324.635 314.584 322.061C314.584 319.316 313.689 317.6 312.436 317.772C311.004 318.115 310.288 316.914 310.646 315.026C311.004 313.31 310.646 312.281 309.751 312.624C309.035 313.139 306.887 312.109 305.276 310.222C301.517 306.619 305.097 305.761 309.035 309.192C311.183 311.08 311.362 310.908 310.288 308.163C309.751 306.447 309.751 303.359 310.467 301.3C311.541 298.383 312.078 299.241 312.973 305.418C313.868 311.766 314.226 312.281 314.584 307.991ZM161.179 301.471C159.926 301.814 157.778 301.814 156.704 301.471C155.451 300.956 156.346 300.613 158.852 300.613C161.358 300.613 162.253 300.956 161.179 301.471ZM221.503 303.015C220.071 304.388 217.386 306.447 215.417 307.305C213.09 308.506 213.806 307.477 217.028 304.731C223.114 299.755 224.725 299.069 221.503 303.015ZM305.634 302.844C305.634 304.216 304.56 305.418 303.128 305.418C301.338 305.418 300.622 308.334 300.443 315.884C300.264 323.777 300.801 325.836 302.412 324.978C304.023 323.949 304.023 324.463 302.233 326.522C300.98 328.067 300.264 330.469 300.801 331.841C301.338 333.214 301.159 334.587 300.264 334.93C299.369 335.273 298.474 338.018 298.116 340.935C297.937 344.024 297.042 346.597 296.326 346.597C294.357 346.597 291.314 340.42 292.567 339.048C293.104 338.533 292.03 338.018 289.882 338.018C287.734 338.018 285.944 337.504 285.944 336.646C285.944 335.959 284.154 334.587 282.006 333.729C277.531 331.67 276.278 326.522 279.321 322.576C281.111 320.345 281.111 320.345 278.605 322.233C276.815 323.434 273.772 324.806 271.802 325.15C267.864 325.836 267.864 325.836 271.444 321.203C278.068 312.281 293.104 302.844 299.727 303.359C302.054 303.53 303.844 302.844 303.844 301.986C303.844 300.956 304.202 300.27 304.739 300.27C305.276 300.27 305.634 301.471 305.634 302.844ZM150.26 305.246C152.587 306.104 157.42 309.536 161.179 312.967C164.938 316.399 168.876 319.144 169.771 319.144C170.666 319.144 171.382 320.345 171.382 321.718C171.382 323.091 172.098 324.292 173.172 324.292C174.067 324.292 174.783 326.179 174.604 328.581C174.425 330.983 174.067 332.871 173.888 332.871C173.888 332.871 172.098 331.498 170.129 329.782C167.981 328.238 163.327 324.463 159.747 321.718C155.988 318.801 149.544 313.654 145.068 310.05C137.729 304.216 137.55 303.702 141.667 303.702C143.994 303.702 147.932 304.388 150.26 305.246ZM206.108 308.678C206.824 309.536 205.571 309.879 203.602 309.364C199.485 308.334 198.948 307.133 202.528 307.133C203.96 307.133 205.571 307.82 206.108 308.678ZM366.495 313.139C369.359 314.511 372.402 315.541 373.118 315.369C373.834 315.198 380.815 316.399 388.512 318.115C398.895 320.345 403.191 320.688 404.802 319.316C406.592 317.772 407.487 317.943 408.382 320.002C408.919 321.546 408.74 322.233 407.666 321.718C406.592 321.203 404.802 321.203 403.728 322.061C402.475 322.747 399.79 323.605 397.821 323.605C382.784 324.806 368.822 326.351 367.211 326.865C363.094 328.067 358.261 322.919 357.903 316.742C357.366 309.879 358.798 309.364 366.495 313.139ZM226.336 323.777C224.904 326.351 220.966 329.954 217.565 331.67L211.658 334.758L216.67 331.155C219.355 329.096 222.935 324.978 224.367 322.233C225.978 319.487 227.589 317.428 227.947 317.943C228.484 318.458 227.768 321.032 226.336 323.777ZM141.488 328.41C144.173 333.9 144.173 334.244 141.309 333.729C139.698 333.386 137.729 333.042 137.013 333.042C135.044 332.871 135.223 322.576 137.013 322.576C137.908 322.576 139.877 325.15 141.488 328.41ZM319.059 328.238C321.028 328.753 319.417 328.753 315.3 328.41C308.14 327.895 307.961 328.067 308.14 332.871C308.319 335.788 309.035 338.018 309.93 338.018C310.646 338.018 311.004 340.077 310.467 342.479C309.93 345.74 310.288 346.597 312.257 345.911C313.689 345.396 317.806 348.142 322.46 352.603C331.41 361.697 329.978 363.069 320.67 354.319C317.269 351.059 312.436 348.142 310.109 347.97C306.887 347.627 306.35 347.112 307.782 345.396C309.572 343.166 309.035 342.823 303.844 342.479C299.369 342.136 299.727 336.817 304.202 335.616C307.245 334.93 307.603 334.244 305.992 333.214C304.202 332.013 304.56 330.64 307.603 327.037C310.825 323.091 311.72 322.747 313.51 324.978C314.584 326.351 317.09 327.895 319.059 328.238ZM416.974 333.9C426.103 335.445 423.776 338.018 413.394 338.018C399.79 338.018 375.087 341.278 367.569 344.195C361.841 346.254 360.23 346.426 359.156 344.538C357.724 342.308 357.008 345.225 357.008 353.804C357.008 356.035 355.755 356.892 352.354 356.721H347.7L351.996 355.005C358.261 352.603 355.218 351.059 348.595 353.289C344.299 354.662 343.225 354.662 343.762 352.946C344.12 351.917 345.552 351.059 346.626 351.23C347.7 351.573 348.416 350.715 348.058 349.514C347.879 348.313 349.311 347.627 352.175 347.799C356.113 348.142 356.292 348.142 353.07 346.769C350.385 345.568 348.237 346.254 344.657 349.686C340.003 353.804 339.645 353.804 339.645 350.715C339.645 341.965 393.524 330.297 416.974 333.9ZM350.385 336.303C350.385 337.16 350.027 338.018 349.669 338.018C349.132 338.018 348.237 337.16 347.7 336.303C347.163 335.273 347.521 334.587 348.416 334.587C349.49 334.587 350.385 335.273 350.385 336.303ZM343.762 341.45C340.361 345.225 338.571 344.71 340.182 340.592C340.898 339.219 342.509 338.018 344.12 338.018C346.447 338.018 346.268 338.533 343.762 341.45ZM263.926 343.509C263.389 344.882 262.852 344.367 262.852 342.479C262.673 340.592 263.21 339.563 263.747 340.249C264.284 340.764 264.463 342.308 263.926 343.509ZM393.345 348.313C382.963 350.029 371.328 352.088 367.569 353.118C363.631 354.319 360.051 354.833 359.693 354.49C357.545 352.431 393.524 345.225 405.876 345.225C409.277 345.225 403.728 346.597 393.345 348.313ZM267.864 366.33C269.117 373.879 271.265 382.287 272.697 385.032C274.13 387.777 275.204 391.381 275.204 393.096C275.204 396.013 275.741 396.013 283.796 392.582C288.45 390.694 293.641 387.949 295.431 386.405C299.369 383.145 299.727 383.488 300.622 392.925L301.517 400.646L291.851 400.131C273.593 398.93 270.191 401.847 276.278 413.343C278.426 417.461 279.858 418.491 282.185 417.461C283.796 416.775 288.45 416.26 292.746 416.26C300.085 416.26 302.591 414.716 298.116 413C296.684 412.485 297.042 411.971 299.011 411.971C301.517 411.799 302.054 413.343 302.054 421.236C302.054 427.585 301.338 430.673 299.906 430.673C298.295 430.673 298.474 431.188 300.264 432.389C301.696 433.247 302.412 434.448 301.875 434.963C300.264 436.507 294.715 433.933 295.968 432.217C296.505 431.359 295.61 431.188 294.178 431.703C292.567 432.217 291.314 433.247 291.314 433.933C291.314 434.62 288.271 434.963 284.691 434.963C273.951 434.963 271.623 436.679 271.623 444.915C271.623 448.861 271.802 464.132 271.802 478.716C271.802 507.199 274.13 531.907 277.352 537.741C278.426 539.628 279.5 545.119 279.5 549.923L279.679 558.502L288.45 557.988C295.073 557.473 296.863 557.816 296.326 559.703C295.789 561.076 292.746 561.934 287.913 561.934C281.111 561.934 280.395 562.449 278.963 567.082C276.994 574.116 278.426 576.862 283.08 575.489C288.629 573.773 323.534 573.43 323.534 575.146C323.534 575.832 324.966 576.519 326.756 576.519C328.367 576.519 332.126 577.72 334.99 579.092C339.108 581.151 344.478 581.495 361.841 580.637C381.71 579.779 388.512 580.293 413.036 584.755C423.955 586.642 437.559 593.162 437.559 596.251C437.559 599.168 434.516 599.339 425.566 597.109C396.747 590.074 391.734 589.216 367.39 587.843C357.724 587.328 354.323 587.5 357.187 588.529C359.335 589.387 361.125 590.588 361.125 591.103C361.125 591.79 360.409 591.79 359.514 591.275C357.008 589.731 341.972 600.197 340.898 604.315C340.003 607.575 340.182 607.575 344.657 603.629C353.965 595.221 363.81 592.819 368.285 597.966C370.075 600.025 370.075 600.54 367.748 600.54C366.137 600.54 358.082 606.202 349.669 612.894C333.558 626.278 319.954 635.028 317.806 633.827C317.09 633.313 318.164 631.425 320.133 629.538C324.071 625.763 323.355 622.846 319.417 626.106C317.448 627.65 316.374 627.479 314.763 625.763C313.689 624.39 313.51 622.674 314.226 621.988C314.942 621.13 314.405 621.13 313.152 621.817C311.899 622.503 311.362 623.876 311.899 624.733C312.436 625.591 311.72 625.763 310.288 625.248C308.677 624.733 307.424 623.532 307.424 622.674C307.424 621.817 305.813 621.13 303.844 621.13C301.875 621.13 298.653 619.586 296.684 617.699C294.715 615.811 291.672 614.267 290.061 614.267C287.913 614.438 288.629 615.125 291.851 616.497L296.863 618.556L292.925 620.787C289.345 623.018 289.166 622.846 290.24 620.101C291.314 617.184 291.314 617.184 288.092 619.929C284.333 623.189 279.679 623.876 281.648 620.787C282.364 619.758 282.185 619.414 280.932 620.101C279.858 620.615 278.605 620.444 278.068 619.586C276.457 617.012 261.778 618.728 261.778 621.302C261.778 622.674 261.062 623.704 259.988 623.704C259.093 623.704 256.945 624.39 255.513 625.42C253.186 626.621 253.186 626.449 255.155 624.219C256.766 622.331 256.945 621.13 255.513 620.272C254.618 619.758 253.723 620.101 253.723 621.13C253.723 622.16 253.007 622.674 252.112 621.988C251.217 621.473 249.964 621.817 249.427 622.674C248.711 623.532 249.069 624.733 250.143 625.42C251.038 625.935 251.933 627.307 251.933 628.165C251.933 629.195 250.68 628.68 249.069 627.307C246.026 624.39 244.057 623.704 245.489 626.106C246.921 628.165 241.909 629.881 238.15 628.508C236.002 627.65 235.644 627.994 236.718 629.709C237.613 631.254 237.434 631.597 236.181 630.739C234.928 630.052 233.138 630.052 232.064 630.739C230.632 631.597 230.632 632.283 232.243 633.141C233.675 633.999 233.496 634.685 231.348 635.372C229.737 636.058 229.021 635.886 229.558 634.857C230.095 633.827 229.379 633.141 227.947 633.141C226.336 633.141 225.083 631.768 225.083 630.052C225.083 627.65 224.725 627.479 223.293 629.709C219.713 635.028 221.682 629.195 227.231 618.556C230.274 612.379 235.465 604.315 238.687 600.712C244.415 594.363 265.537 579.95 269.296 579.95C270.37 579.95 272.16 578.921 273.235 577.548C275.741 574.631 273.772 564.508 270.549 564.508C269.117 564.508 268.043 562.964 268.043 561.076C268.043 559.36 266.969 557.13 265.716 556.443C264.284 555.757 262.673 553.698 262.136 551.982C261.42 550.266 260.167 549.409 259.093 549.923C258.198 550.438 257.303 550.095 257.303 548.894C257.303 547.521 256.587 547.521 254.618 549.065C252.291 550.953 251.933 550.438 251.754 546.32C251.575 541.344 251.575 541.516 249.606 547.35L247.637 553.355L246.921 548.551C246.563 545.805 245.131 543.232 243.699 542.717C242.446 542.202 241.73 541.173 242.267 540.143C242.804 539.285 241.73 539.457 239.761 540.658C237.613 541.859 236.36 543.403 236.718 543.918C237.076 544.433 236.718 545.977 235.823 547.178C234.749 548.894 234.212 548.551 233.138 545.805C231.885 542.03 228.305 540.658 229.2 544.261C229.379 545.462 228.126 546.32 226.515 546.32C224.725 546.148 223.293 547.006 223.293 548.379C223.293 550.095 222.219 550.266 218.639 549.065C213.09 547.006 212.016 547.006 213.269 548.894C213.985 549.752 212.911 550.266 211.3 549.923C209.509 549.752 208.256 548.379 208.614 547.178C208.793 545.805 207.54 546.663 205.571 549.065C202.707 552.497 200.738 553.183 194.473 552.669C187.313 552.154 186.955 552.325 189.461 555.242C191.788 557.988 191.609 558.159 187.134 557.301C184.449 556.787 182.659 556.958 183.017 557.644C183.554 558.502 182.659 559.532 181.048 560.047C179.616 560.561 178.721 561.762 179.258 562.62C179.974 563.478 178.005 563.307 175.141 562.277C172.098 561.248 170.308 559.532 170.845 558.674C171.561 557.644 171.382 557.301 170.666 557.988C169.234 559.017 161.179 550.781 154.019 541.001C149.007 534.309 149.007 534.138 153.303 531.907C158.494 529.333 165.833 532.422 173.888 541.001C179.258 546.492 179.974 547.006 176.931 542.717C173.172 537.398 168.339 533.108 161.358 529.162C158.315 527.446 158.673 526.931 165.475 523.499C169.592 521.612 174.604 519.896 176.752 519.896C178.721 519.896 180.332 519.21 180.332 518.18C180.332 515.264 193.399 513.205 208.972 513.719C222.935 514.234 227.768 515.435 245.131 522.298C247.458 523.328 248.174 522.127 249.248 516.293C250.322 510.459 249.964 508.743 247.279 507.371C244.236 505.826 244.236 505.655 247.458 503.424C249.785 501.708 250.322 499.821 249.427 495.703C248.89 492.615 249.248 489.183 250.322 487.982C251.396 486.609 251.754 485.58 251.217 485.58C250.501 485.58 250.859 483.864 252.112 481.976C253.186 479.917 254.797 471.51 255.692 463.445C256.408 455.381 258.198 439.767 259.451 428.957C261.241 412.314 261.957 396.185 261.062 387.263C260.883 386.233 261.241 381.086 261.957 376.11C263.031 368.56 262.673 366.673 259.988 364.785C256.945 362.726 256.945 362.383 260.346 360.153C262.673 358.608 263.568 356.035 263.21 352.603C262.494 342.994 265.537 352.26 267.864 366.33ZM397.284 364.099C389.765 370.962 381.531 378.683 378.846 381.257C376.34 384.003 372.939 386.062 371.507 386.062C370.075 386.062 368.285 386.748 367.211 387.777C366.316 388.635 364.526 388.807 363.094 387.777C359.335 385.718 364.168 379.541 376.698 370.104C405.339 349 418.227 345.396 397.284 364.099ZM312.794 356.035C312.794 357.407 312.078 358.608 311.004 358.608C310.109 358.608 309.751 357.407 310.288 356.035C311.004 354.662 311.72 353.461 312.078 353.461C312.436 353.461 312.794 354.662 312.794 356.035ZM376.34 356.035C373.476 357.407 369.538 358.437 367.927 358.608C366.316 358.608 364.347 359.295 363.81 360.324C362.199 362.726 358.977 362.383 359.693 359.809C360.23 358.78 364.526 356.892 369.359 355.691C380.994 353.118 382.784 353.289 376.34 356.035ZM390.66 354.833C389.586 355.52 384.037 359.638 378.13 363.756C364.705 373.193 360.946 376.796 362.557 378.512C363.273 379.198 362.736 379.198 361.662 378.512C357.903 376.453 358.977 373.021 363.989 370.448L368.643 368.045L364.526 367.016C361.483 366.158 361.125 365.815 363.452 365.643C365.242 365.472 366.316 364.785 365.6 363.927C365.063 363.069 365.6 361.697 366.674 361.01C368.106 360.324 368.285 360.496 367.569 361.697C365.779 364.614 366.674 364.271 377.414 358.608C386.364 353.976 394.598 351.573 390.66 354.833ZM303.665 357.922C302.591 359.123 302.233 361.01 302.77 361.868C303.486 362.726 303.128 363.927 302.054 364.614C300.98 365.128 300.264 363.927 300.264 361.697C300.085 358.265 299.906 358.094 298.295 360.667C297.4 362.383 294.894 363.756 292.925 363.756C290.956 363.756 287.734 364.614 285.765 365.472C283.975 366.501 282.364 366.673 282.364 365.815C282.364 364.271 299.906 355.691 303.307 355.691C304.918 355.691 305.097 356.378 303.665 357.922ZM338.929 360.153C340.54 358.951 342.151 358.78 343.046 359.638C343.941 360.496 341.972 362.726 338.392 364.957C334.99 367.187 332.842 367.874 333.558 366.844C334.453 365.643 334.99 362.383 334.811 359.466C334.811 355.691 334.99 355.348 335.528 358.265C336.244 361.525 336.781 361.868 338.929 360.153ZM355.039 363.413C351.996 366.158 351.817 366.158 354.144 362.555C355.397 360.496 356.829 359.123 357.366 359.638C357.903 359.981 356.829 361.697 355.039 363.413ZM328.546 376.796C338.034 383.831 337.497 384.174 326.04 378.34C314.942 372.678 311.004 368.732 313.51 365.986C315.121 364.442 316.016 364.785 317.985 367.359C319.417 369.418 324.25 373.536 328.546 376.796ZM357.187 375.252C357.008 381.257 356.65 382.973 356.292 379.713C355.755 375.595 354.86 374.394 352.533 375.08C349.848 375.938 349.848 375.767 352.712 374.051C354.323 373.021 355.755 370.619 355.755 368.903C355.755 367.016 356.113 365.472 356.65 365.472C357.187 365.472 357.366 369.933 357.187 375.252ZM304.381 385.204C305.097 393.611 304.918 398.759 304.023 396.357C303.307 393.954 302.412 387.091 302.233 381.086C302.054 374.909 301.338 369.075 300.801 368.217C300.085 366.844 300.264 366.844 301.517 368.045C302.591 368.903 303.844 376.624 304.381 385.204ZM352.891 370.791C352.354 371.649 351.101 371.992 350.206 371.305C349.311 370.791 348.953 369.59 349.669 368.732C350.206 367.874 351.459 367.531 352.354 368.217C353.249 368.732 353.607 369.933 352.891 370.791ZM295.789 372.335C290.956 374.394 288.092 374.394 291.314 372.335C292.746 371.477 295.252 370.791 296.684 370.791C298.474 370.791 298.116 371.305 295.789 372.335ZM346.447 372.85C346.268 373.193 347.163 374.909 348.595 376.796C350.564 379.37 350.564 379.541 348.595 377.826C344.836 374.737 342.33 375.252 345.194 378.683C347.342 381.086 347.342 381.429 345.194 380.056C343.225 379.027 342.867 379.37 343.762 381.429C344.299 382.973 344.12 384.689 343.225 385.204C342.33 385.718 341.972 387.434 342.509 389.15C343.225 391.209 343.046 391.381 341.972 390.008C339.466 386.748 340.719 376.968 343.941 374.909C345.552 373.708 346.447 372.335 345.91 371.82C345.373 371.134 345.552 370.962 346.089 371.305C346.626 371.649 346.805 372.335 346.447 372.85ZM404.265 384.517C402.117 387.091 400.506 390.008 400.506 390.694C400.506 391.381 398 394.812 395.135 398.072C391.197 402.534 389.765 403.22 389.765 400.989C389.765 399.445 390.481 398.072 391.555 398.072C392.45 398.072 392.629 396.871 392.092 395.155C391.197 393.096 391.555 392.753 393.345 393.783C394.956 394.641 395.314 394.469 394.419 393.268C392.987 391.037 395.314 386.062 402.117 377.482C406.592 371.649 406.771 371.649 407.308 375.595C407.666 377.826 406.234 381.772 404.265 384.517ZM299.369 375.767C299.906 376.624 300.264 377.482 299.906 377.482C299.548 377.482 295.61 378.683 290.956 380.056C280.932 382.973 280.216 382.115 288.271 377.482C294.715 373.708 297.758 373.193 299.369 375.767ZM104.256 379.198C106.046 381.086 107.12 382.63 106.583 382.63C106.046 382.63 104.256 381.086 102.466 379.198C100.676 377.311 99.6017 375.767 100.139 375.767C100.676 375.767 102.466 377.311 104.256 379.198ZM317.09 391.724C317.448 394.126 317.269 396.7 316.553 397.043C315.837 397.558 315.121 394.984 314.942 391.552C314.405 384.517 315.658 384.517 317.09 391.724ZM358.798 393.268C358.261 394.641 357.724 394.126 357.724 392.239C357.545 390.351 358.082 389.322 358.619 390.008C359.156 390.523 359.335 392.067 358.798 393.268ZM376.34 392.925C374.55 394.812 372.223 396.357 371.149 396.357C370.075 396.357 371.149 394.812 373.655 392.925C379.383 388.635 380.457 388.635 376.34 392.925ZM109.984 396.7C109.447 397.901 109.089 397.043 109.089 394.641C109.089 392.239 109.447 391.381 109.984 392.41C110.342 393.611 110.342 395.67 109.984 396.7ZM345.552 396.185C348.416 398.93 335.886 398.587 331.768 395.842C328.904 393.783 329.441 393.611 336.065 393.954C340.182 394.126 344.478 395.155 345.552 396.185ZM319.417 409.225C318.88 414.373 319.238 418.662 320.133 418.662C321.028 418.662 321.923 414.201 321.923 408.711L322.281 398.93L323.355 408.367C324.071 415.059 326.04 419.863 329.62 424.668L334.99 431.531L328.725 425.869C325.324 422.952 321.923 420.378 321.207 420.378C320.491 420.378 319.954 422.78 319.954 425.697C319.954 428.443 319.238 430.502 318.343 429.815C316.016 428.614 316.374 399.788 318.701 399.788C319.596 399.788 319.954 403.735 319.417 409.225ZM359.335 406.652C355.934 408.711 353.965 408.711 353.965 406.823C353.965 405.107 359.514 403.391 361.125 404.421C361.483 404.764 360.767 405.794 359.335 406.652ZM307.424 413.686C307.424 414.544 306.708 415.231 305.634 415.231C304.739 415.231 303.844 414.03 303.844 412.485C303.844 411.113 304.739 410.426 305.634 410.941C306.708 411.456 307.424 412.657 307.424 413.686ZM362.02 415.231C362.557 416.26 361.841 416.432 360.409 415.917C357.187 414.716 356.65 413.515 359.156 413.515C360.23 413.515 361.483 414.201 362.02 415.231ZM106.404 419.005C105.867 420.378 105.33 419.863 105.33 417.976C105.151 416.089 105.688 415.059 106.225 415.745C106.762 416.26 106.941 417.804 106.404 419.005ZM361.125 419.52C364.526 423.295 362.557 423.81 358.977 420.035C357.187 418.319 356.471 416.946 357.366 416.946C358.261 416.946 359.872 418.148 361.125 419.52ZM307.961 423.638C308.498 425.526 307.782 427.413 306.529 427.756C305.097 428.443 304.739 427.241 305.276 424.496C306.171 419.52 306.708 419.349 307.961 423.638ZM83.6705 432.389C89.0405 434.448 94.0526 436.679 94.7686 437.193C95.8427 438.223 84.9235 438.394 81.8804 437.536C81.3434 437.365 75.0783 437.193 68.0972 437.193C60.2211 437.365 55.03 436.679 55.03 435.477C55.03 434.448 52.166 434.105 47.8699 434.62C43.9318 434.963 40.1728 434.791 39.8148 433.933C39.2777 433.247 37.1297 432.904 34.9817 433.247C27.2846 434.791 34.2657 431.359 43.0368 429.472C55.388 426.898 71.4983 428.099 83.6705 432.389ZM399.969 431.016C399.432 432.389 398.895 431.874 398.895 429.987C398.716 428.099 399.253 427.07 399.79 427.756C400.327 428.271 400.506 429.815 399.969 431.016ZM305.097 437.88C304.56 439.252 304.023 438.738 304.023 436.85C303.844 434.963 304.381 433.933 304.918 434.62C305.455 435.134 305.634 436.679 305.097 437.88ZM349.49 437.536C348.953 438.394 346.984 439.252 345.373 439.252C342.688 439.252 342.688 438.909 345.015 437.536C348.595 435.306 350.922 435.306 349.49 437.536ZM68.9922 441.311C88.1455 443.199 97.8117 445.772 87.2505 446.116C80.4484 446.459 80.8064 446.802 92.4416 449.547C96.5587 450.577 99.7807 451.949 99.2437 452.464C97.6327 453.837 54.493 445.944 50.1969 443.37C47.6909 441.826 45.9009 441.654 45.1848 442.684C44.6478 443.713 43.0368 444.4 41.9628 444.4C38.7407 444.228 45.5428 439.767 49.1229 439.767C50.9129 439.595 59.8631 440.282 68.9922 441.311ZM502.179 441.826C502.716 442.341 502.179 442.684 500.926 442.684C499.673 442.684 499.315 443.37 499.852 444.4C501.463 446.974 499.136 446.459 495.914 443.542C494.482 442.169 492.513 441.483 491.439 441.998C490.186 442.684 490.007 442.341 490.723 441.14C491.976 439.424 500.031 439.767 502.179 441.826ZM188.387 444.228C187.85 445.258 184.628 445.944 181.585 445.944C176.752 445.601 176.573 445.601 180.332 444.915C182.838 444.4 185.523 443.37 186.418 442.512C188.566 440.625 189.998 441.826 188.387 444.228ZM303.844 452.464C303.844 456.754 303.665 456.754 300.622 454.18C298.832 452.464 296.326 451.263 295.073 451.263C293.82 451.263 293.462 450.405 293.999 449.547C294.536 448.518 297.042 447.831 299.548 447.831C302.949 447.831 303.844 448.689 303.844 452.464ZM306.887 453.322C306.35 454.523 305.992 453.665 305.992 451.263C305.992 448.861 306.35 448.003 306.887 449.032C307.245 450.234 307.245 452.293 306.887 453.322ZM298.295 455.381C300.085 457.44 299.727 457.783 296.326 456.925C292.925 456.239 292.746 456.411 294.894 458.126C297.042 459.671 296.684 460.014 292.746 459.156C289.166 458.298 287.734 458.813 287.018 461.215C286.302 462.931 284.691 464.475 283.259 464.475C281.469 464.475 281.827 463.274 284.691 460.7C287.734 457.783 294.178 453.494 295.968 452.979C296.147 452.979 297.221 454.008 298.295 455.381ZM79.1954 456.411C83.1335 457.44 83.6705 457.783 80.9854 458.126C79.0164 458.298 77.0474 458.47 76.5103 458.47C75.9733 458.47 70.6033 458.984 64.3382 459.671C58.0731 460.357 52.703 460.357 52.166 459.499C51.6289 458.641 50.3759 458.47 49.4809 458.984C48.5859 459.671 46.7959 459.499 45.7219 458.813C40.1728 455.553 67.7392 453.665 79.1954 456.411ZM88.1455 464.303C81.3434 465.676 73.2883 466.534 70.2452 466.191L64.8752 465.676L71.1403 463.789C74.5413 462.759 82.5964 461.901 89.0405 461.901H100.676L88.1455 464.303ZM509.876 464.475C512.203 467.22 512.024 467.392 509.339 465.161C506.296 462.931 505.401 461.558 506.833 461.558C507.191 461.558 508.623 462.931 509.876 464.475ZM99.7807 469.279C99.7807 470.309 75.9733 477.001 75.0783 476.143C74.0043 475.113 77.4054 473.912 88.5035 470.995C98.5277 468.421 99.7807 468.078 99.7807 469.279ZM335.886 473.912L338.034 479.574L334.095 475.971C331.947 473.912 330.873 471.338 331.41 470.309C333.2 467.563 333.737 467.907 335.886 473.912ZM179.795 478.716C184.27 479.917 184.449 480.261 181.406 481.29C179.616 481.976 177.647 481.976 176.931 481.119C176.394 480.261 173.888 479.574 171.382 479.574C168.876 479.746 164.938 479.231 162.432 478.545C159.21 477.858 160.284 477.515 166.37 477.344C171.024 477.344 177.11 477.858 179.795 478.716ZM206.824 482.834C213.985 484.035 220.25 485.58 220.787 486.094C222.398 487.639 201.991 485.236 192.862 482.834C181.943 479.917 189.998 479.917 206.824 482.834ZM82.4174 488.497C79.1954 488.84 73.8253 488.84 70.7823 488.497C67.5602 488.153 70.0662 487.81 76.5103 487.81C82.9545 487.81 85.4605 488.153 82.4174 488.497ZM352.354 497.934C354.502 496.561 355.755 496.561 355.755 497.59C355.755 498.62 353.607 500.336 351.101 501.365C346.268 503.424 341.435 501.88 340.003 497.934C339.466 496.218 340.361 496.218 344.12 497.934C347.879 499.478 349.669 499.478 352.354 497.934ZM360.767 502.566C359.514 504.454 357.366 506.513 356.113 507.028C354.86 507.542 355.576 505.655 357.903 502.91C362.557 497.419 364.347 497.076 360.767 502.566ZM455.101 507.028L462.262 511.489L455.101 510.631C451.163 510.288 443.466 508.915 438.096 507.714C428.788 505.655 428.609 505.483 433.621 504.282C443.466 502.223 447.941 502.738 455.101 507.028ZM352.891 509.43C353.428 510.116 351.817 510.459 349.49 509.944C346.984 509.601 345.015 508.915 345.015 508.572C345.015 507.199 351.996 507.885 352.891 509.43ZM379.025 508.572C379.025 508.915 377.593 510.288 375.982 511.489C373.118 513.719 372.939 513.548 375.266 510.802C377.593 508.057 379.025 507.199 379.025 508.572ZM441.139 512.175C444.719 513.548 447.046 515.264 446.509 515.778C444.898 517.323 427.356 513.033 427.356 511.146C427.356 508.743 433.8 509.258 441.139 512.175ZM365.242 515.95C363.989 516.293 361.841 516.293 360.767 515.95C359.514 515.435 360.409 515.092 362.915 515.092C365.421 515.092 366.316 515.435 365.242 515.95ZM354.502 517.666C353.249 518.009 351.101 518.009 350.027 517.666C348.774 517.151 349.669 516.808 352.175 516.808C354.681 516.808 355.576 517.151 354.502 517.666ZM445.256 520.239C447.046 521.269 445.614 521.612 440.781 520.926C436.843 520.411 431.831 519.896 429.683 519.896C427.356 519.896 425.566 519.21 425.566 518.352C425.566 516.465 441.497 518.009 445.256 520.239ZM449.552 526.76C453.132 527.961 453.132 527.961 449.194 529.162C445.256 530.363 425.566 526.073 425.566 524.014C425.566 522.642 444.361 524.872 449.552 526.76ZM380.457 529.676C398 534.824 404.265 537.741 408.561 542.202C411.783 545.462 411.783 545.634 408.382 545.805C406.592 545.977 403.37 545.805 401.401 545.634C399.432 545.291 396.031 545.119 393.882 544.947C391.555 544.947 389.765 544.604 389.765 543.918C389.765 543.403 386.722 542.888 382.963 542.545C379.383 542.374 373.297 540.658 369.717 538.942C365.958 537.226 363.452 536.54 363.989 537.398C365.063 539.114 357.366 535.339 355.755 533.451C355.218 532.937 350.922 531.907 346.089 531.221C335.17 529.505 332.305 528.475 333.558 526.416C335.707 523.328 366.137 525.215 380.457 529.676ZM429.862 529.333C436.843 532.765 437.738 533.623 434.337 533.623C431.831 533.623 428.072 532.422 425.924 530.878C422.344 528.475 421.986 528.475 421.807 531.392C421.628 533.108 421.628 535.682 421.807 537.055C421.986 538.942 421.807 539.114 420.554 537.398C419.48 535.853 419.659 525.044 420.912 525.044C420.912 525.044 425.029 526.931 429.862 529.333ZM514.172 540.658C510.413 551.468 508.981 550.953 512.382 539.8C513.814 535.339 514.888 531.049 514.888 530.534C514.351 527.446 515.604 526.245 516.32 528.99C516.678 530.534 515.783 535.853 514.172 540.658ZM148.112 539.971C148.112 540.829 152.945 546.32 158.673 552.325C164.401 558.502 168.876 564.508 168.339 565.709C167.802 566.91 168.697 567.939 170.129 567.939C171.561 567.939 173.351 569.141 173.888 570.685C174.604 572.401 174.246 573.087 172.814 572.401C171.561 571.886 169.055 570.856 167.444 570.342C165.654 569.655 164.222 568.454 164.222 567.596C164.222 566.567 163.327 566.567 161.716 567.768C159.926 569.312 159.031 569.141 158.136 567.082C157.062 564.165 153.482 563.478 153.482 566.395C153.482 567.253 154.377 567.596 155.272 567.082C156.346 566.567 157.062 566.738 157.062 567.768C157.062 568.626 156.167 569.998 155.272 570.513C154.198 571.2 153.84 572.229 154.377 573.087C154.914 573.773 153.303 574.288 150.797 574.116C147.932 573.773 146.858 574.288 147.574 575.489C148.291 576.519 147.395 576.347 145.784 574.974C144.173 573.773 142.741 573.259 142.741 573.945C142.741 574.631 141.488 574.288 140.056 573.087C138.624 571.886 137.908 570.342 138.445 569.484C138.982 568.626 138.803 567.939 137.908 568.111C134.507 568.626 133.075 567.768 135.223 566.567C136.834 565.366 136.655 564.165 133.791 561.076C129.674 556.615 129.853 557.13 131.285 553.527C132.18 551.124 132.896 551.124 137.729 553.527L143.099 556.272L140.235 552.325C137.371 548.379 136.297 540.486 138.445 540.486C139.161 540.486 140.772 541.859 142.025 543.403C144.173 546.32 144.352 546.148 144.531 542.545C144.531 539.285 148.112 536.711 148.112 539.971ZM344.12 542.717C346.805 544.089 348.416 545.634 347.342 546.148C345.552 547.178 336.423 549.237 333.379 549.409C324.071 549.409 310.825 548.379 310.288 547.521C309.93 547.006 305.455 546.492 300.443 546.663C290.598 546.835 288.271 544.261 295.431 540.658C300.98 537.912 337.676 539.457 344.12 542.717ZM447.046 540.486C450.089 541.344 446.867 541.859 437.201 541.859C426.998 541.859 424.492 541.344 428.251 540.486C435.232 538.77 441.497 538.77 447.046 540.486ZM134.328 541.687C133.075 542.03 130.569 542.03 128.958 541.687C127.168 541.173 128.242 540.829 131.106 540.829C134.149 540.829 135.402 541.173 134.328 541.687ZM108.731 546.32C108.731 546.835 108.015 547.693 106.941 548.207C106.046 548.722 105.151 548.379 105.151 547.521C105.151 546.492 106.046 545.634 106.941 545.634C108.015 545.634 108.731 545.977 108.731 546.32ZM435.411 549.409C436.664 550.61 435.769 550.781 432.726 549.923C430.22 549.237 427.535 547.864 426.461 547.006C425.208 545.805 426.103 545.634 429.146 546.492C431.652 547.178 434.516 548.551 435.411 549.409ZM128.421 564.508C128.421 566.567 130.032 571.2 132.18 574.974C134.149 578.921 135.044 581.495 133.97 580.808C132.001 579.779 123.051 563.993 123.051 561.934C123.051 561.419 124.304 561.076 125.736 561.076C127.168 561.076 128.421 562.62 128.421 564.508ZM408.561 568.626C433.621 574.288 431.473 578.234 405.518 574.116C377.593 569.827 363.273 569.141 348.774 571.028C341.077 572.057 334.274 572.229 332.663 571.371C330.336 570.17 330.694 569.655 334.274 568.969C336.781 568.454 341.972 567.253 345.91 566.224C356.471 563.821 394.061 565.366 408.561 568.626ZM130.211 578.749C132.359 581.323 134.686 583.039 135.581 582.524C136.476 582.009 139.34 584.583 142.204 588.015C149.723 597.28 151.155 600.369 146.142 595.907C143.815 594.02 138.982 591.103 135.581 589.731C127.705 586.642 121.619 580.465 119.65 573.43C117.502 566.738 119.471 564.851 123.409 569.998C125.02 572.229 128.242 576.004 130.211 578.749ZM328.904 573.087C328.904 573.945 328.188 574.803 327.114 574.803C326.219 574.803 325.324 573.945 325.324 573.087C325.324 572.057 326.219 571.371 327.114 571.371C328.188 571.371 328.904 572.057 328.904 573.087ZM115.891 582.181C115.891 586.299 120.545 594.706 127.347 603.114L132.896 609.977L126.094 605.001C117.86 598.996 112.132 591.618 110.521 584.411C109.268 579.779 109.089 580.465 108.731 588.529C108.552 595.736 108.015 597.109 106.941 594.535C104.614 589.559 106.762 603.114 109.626 611.178C110.879 614.782 111.595 617.699 111.237 617.699C111.058 617.699 107.836 612.894 104.256 606.889L97.6327 596.251L98.7067 605.688L99.7807 615.125L96.2007 610.835L92.6206 606.546L92.4416 612.551C92.2626 618.556 92.2626 618.556 90.8306 613.752C89.9356 611.007 89.5776 607.404 89.9356 605.516C90.2936 603.8 89.9356 602.256 88.8615 602.256C87.9665 602.256 87.2505 607.404 87.0715 613.752V625.42L84.2075 618.556C82.7754 614.782 81.5224 609.806 81.7014 607.575C82.0594 601.57 80.0904 604.143 77.4054 613.752C76.1523 618.213 74.8993 620.615 74.8993 619.071C74.7203 617.527 73.8253 615.983 72.7513 615.64C71.3193 615.125 71.6773 612.894 73.6463 608.433C77.2264 600.025 77.2264 597.795 73.4673 600.712C70.7823 602.942 70.7823 602.771 73.1093 599.168C74.5413 597.109 75.7943 596.079 76.1523 597.109C76.5103 597.966 80.6274 595.736 85.1025 592.133C96.9167 582.696 107.12 576.347 108.731 577.377C109.626 577.891 110.879 577.377 111.595 576.347C113.027 573.945 115.891 577.72 115.891 582.181ZM35.8767 605.688C35.3397 607.747 34.4447 608.948 33.9077 608.433C33.0126 607.404 34.8027 602.256 36.0557 602.256C36.4137 602.256 36.4137 603.8 35.8767 605.688ZM375.803 608.605C372.76 612.723 361.304 623.189 354.86 627.65C336.602 640.347 328.904 646.353 328.904 647.897C328.904 649.098 327.651 650.471 326.04 650.986C323.534 651.844 323.355 651.672 325.324 649.441C326.577 648.069 327.114 646.868 326.398 646.868C325.861 646.868 329.083 643.608 333.379 639.833C337.855 635.886 341.077 632.111 340.54 631.425C340.182 630.739 341.435 628.68 343.762 626.964C347.7 623.704 347.7 623.704 345.015 627.307C343.583 629.195 345.015 627.994 348.416 624.733C351.817 621.302 353.428 620.101 351.996 621.988C349.669 625.077 349.669 625.248 352.533 623.018C354.323 621.817 355.397 620.272 355.039 619.586C353.07 616.497 369.359 603.972 375.087 603.972H379.204L375.803 608.605ZM69.5292 610.32C67.3812 613.752 67.0232 612.723 68.6342 608.261C69.3502 606.717 70.2452 605.859 70.6033 606.374C71.1403 606.717 70.6033 608.605 69.5292 610.32ZM392.45 608.948C387.975 609.806 387.617 610.32 390.302 611.35C392.092 612.036 395.135 611.693 396.926 610.835C401.58 608.433 405.876 608.605 402.296 611.007C400.327 612.379 400.864 612.551 404.623 611.693C407.666 611.178 409.277 611.35 408.74 612.379C408.203 613.237 409.098 613.581 410.888 613.066C414.647 612.208 436.306 621.473 432.905 622.503C431.831 622.846 429.504 622.16 427.714 620.787C425.029 618.728 424.85 618.9 427.177 621.473C428.43 623.189 430.578 624.562 431.831 624.562C433.084 624.562 434.516 626.106 435.053 627.994C435.59 629.881 435.053 631.425 433.979 631.425C432.547 631.425 432.547 631.94 434.158 632.798C436.127 633.999 435.59 640.004 433.442 640.004C433.084 640.004 427.356 637.602 420.733 634.514C413.931 631.425 407.845 629.023 406.771 628.851C405.876 628.851 404.265 627.822 403.549 626.621C402.833 625.591 401.222 624.562 400.148 624.562C399.074 624.562 390.123 632.111 379.92 641.205C369.896 650.471 358.977 659.393 355.576 661.281C351.638 663.34 355.576 659.05 366.853 648.755C385.29 632.111 392.271 623.189 390.481 618.9C389.586 616.497 389.049 616.497 385.648 619.414C382.963 621.988 381.352 622.331 379.562 620.959C377.772 619.414 377.235 619.758 377.235 621.988C377.235 623.704 376.698 624.733 376.161 624.047C375.445 623.532 372.581 625.248 369.717 627.994C366.853 630.91 363.631 633.141 362.736 633.141C361.662 633.141 361.304 633.827 361.841 634.685C363.273 636.744 358.082 640.519 355.755 639.146C354.86 638.632 353.965 638.803 353.965 639.661C353.965 640.519 352.712 641.205 351.101 641.205C348.416 641.205 348.416 641.034 351.101 639.146C352.712 637.945 353.965 636.401 353.965 635.372C353.965 634.514 357.366 631.082 361.662 627.479C365.779 624.047 372.76 618.213 377.235 614.438C383.5 608.776 386.364 607.404 391.555 607.575L397.821 607.747L392.45 608.948ZM418.406 610.835C421.628 612.894 418.764 612.894 413.931 610.835C411.604 609.806 411.246 609.291 413.036 609.291C414.468 609.291 416.974 609.977 418.406 610.835ZM33.0126 614.61C32.4756 615.983 31.9386 615.468 31.9386 613.581C31.7596 611.693 32.2966 610.664 32.8336 611.35C33.3707 611.865 33.5497 613.409 33.0126 614.61ZM31.2226 628.337C30.8646 630.567 30.5066 629.195 30.5066 625.42C30.3276 621.645 30.6856 619.929 31.2226 621.473C31.5806 623.189 31.5806 626.278 31.2226 628.337ZM276.457 620.444C275.92 620.959 274.309 621.13 273.056 620.615C271.623 620.101 272.16 619.586 274.13 619.586C276.099 619.414 277.173 619.929 276.457 620.444ZM413.931 636.744C419.301 638.632 423.776 640.862 423.776 641.549C423.776 642.235 425.924 643.951 428.43 645.152C430.936 646.524 433.8 649.098 434.874 650.814C436.485 653.903 436.127 654.074 430.041 653.045C424.85 652.015 423.776 652.358 424.85 654.074C425.566 655.275 424.492 654.932 422.344 653.216C420.196 651.329 417.69 650.471 416.437 651.329C415.005 652.015 414.647 651.844 415.542 650.642C416.795 648.583 416.258 648.412 410.351 647.897C408.919 647.897 406.234 650.128 404.623 653.216C401.222 658.878 377.235 679.983 375.624 678.439C375.087 678.096 381.71 670.889 390.302 662.653C402.296 651.157 405.876 646.524 405.876 642.921C405.876 640.347 405.16 638.288 404.086 638.288C403.191 638.288 402.296 637.087 402.296 635.715C402.296 632.455 402.117 632.455 413.931 636.744ZM43.7528 640.347C43.2158 641.549 42.8578 640.691 42.8578 638.288C42.8578 635.886 43.2158 635.028 43.7528 636.058C44.1108 637.259 44.1108 639.318 43.7528 640.347ZM45.5428 648.927C45.0058 650.299 44.4688 649.785 44.4688 647.897C44.2898 646.01 44.8268 644.98 45.3638 645.667C45.9009 646.181 46.0799 647.726 45.5428 648.927ZM421.807 656.648C424.671 659.393 425.029 661.109 423.597 670.546C422.344 679.468 416.258 694.911 414.11 694.911C413.752 694.911 415.363 689.935 417.69 683.758C422.344 671.404 423.597 657.849 419.838 659.908C418.585 660.594 418.048 660.594 418.764 659.736C419.48 659.05 419.301 657.334 418.227 655.962C415.363 652.701 418.048 653.216 421.807 656.648ZM438.812 670.374C442.392 675.865 445.256 681.013 445.256 682.042C445.077 682.9 443.645 681.013 441.676 677.753C439.886 674.492 436.306 669.345 433.8 666.6L429.146 661.452L430.936 666.256C431.831 669.002 432.547 673.978 432.547 677.409L432.368 683.758L430.936 677.753C430.22 674.492 428.967 669.173 428.251 666.085C426.103 656.991 431.473 659.222 438.812 670.374ZM414.826 676.895C413.752 679.468 412.499 681.184 411.962 680.841C411.604 680.326 412.141 677.924 413.215 675.35C416.079 669.517 417.332 670.718 414.826 676.895ZM441.497 691.479C441.497 695.769 440.96 700.402 439.886 701.774C438.812 703.318 438.454 699.544 438.633 690.793C438.812 677.066 441.318 677.581 441.497 691.479ZM410.351 686.16C409.814 687.19 408.382 688.048 407.308 688.048C406.234 688.048 406.234 687.018 407.666 685.474C410.172 682.557 412.32 683.243 410.351 686.16ZM430.936 698.343L428.967 702.632L430.041 698.343C430.399 695.94 430.936 692.166 431.115 689.763L431.473 685.474L432.189 689.763C432.547 692.166 432.01 696.112 430.936 698.343Z" fill="#222222"/>
</svg>
