<svg width="2608" height="3392" viewBox="0 0 2608 3392" fill="none" xmlns="http://www.w3.org/2000/svg">
<path d="M1321.25 299.806C1321.25 518.704 1323.44 617.538 1329.27 621.198C1333.65 623.395 1343.13 640.233 1351.16 658.536C1362.1 684.159 1362.83 694.409 1356.99 706.122C1350.43 718.568 1351.88 723.693 1363.55 736.138C1383.25 755.905 1394.92 749.316 1414.61 709.051C1434.3 670.249 1446.7 549.452 1431.39 540.667C1427.01 537.739 1423.36 526.025 1423.36 514.312C1423.36 502.598 1419.72 490.884 1415.34 488.688C1411.69 485.76 1405.13 475.51 1400.75 465.261C1392.73 444.03 1401.48 424.263 1427.01 407.425C1442.33 397.175 1445.97 397.175 1466.4 407.425C1491.92 421.335 1499.22 439.637 1491.92 472.582C1484.63 506.258 1482.44 537.007 1479.52 624.127C1478.07 666.589 1471.5 727.353 1464.94 759.566C1457.64 791.778 1445.97 859.131 1437.95 909.646C1429.93 960.161 1421.9 1007.75 1420.45 1015.8C1418.26 1023.85 1424.82 1053.14 1434.3 1081.69C1444.51 1109.51 1452.54 1141.72 1452.54 1152.7C1452.54 1164.42 1455.45 1173.2 1459.1 1173.2C1462.02 1173.2 1486.82 1162.95 1513.8 1151.24C1549.54 1134.4 1578.72 1127.81 1622.48 1124.15C1680.83 1119.76 1683.02 1118.3 1726.05 1083.15C1750.12 1063.39 1790.96 1036.3 1817.22 1023.85C1859.52 1004.09 1871.92 1001.89 1933.92 1001.16C1996.65 1001.16 2007.59 1003.36 2050.62 1023.85C2076.88 1036.3 2115.53 1062.66 2136.68 1081.69L2176.07 1116.83L2230.77 1061.92L2285.47 1007.02L2222.75 971.143C2188.47 951.376 2160.02 933.806 2160.02 931.61C2160.02 929.413 2174.61 857.667 2192.12 772.011L2223.48 615.342L2178.99 620.466C2154.19 623.395 2090 633.644 2036.03 643.161C1982.06 652.679 1936.11 657.804 1933.92 654.875C1931 651.947 1918.6 624.127 1904.74 592.646C1891.62 561.898 1878.49 536.275 1874.84 536.275C1871.92 536.275 1828.89 581.665 1779.29 636.573C1664.05 764.69 1634.88 795.439 1634.88 788.118C1635.61 768.351 1658.95 512.115 1672.08 390.586C1680.1 312.984 1685.93 247.827 1684.48 247.094C1683.02 245.63 1645.09 262.469 1599.14 284.432C1553.92 307.127 1515.99 323.965 1514.53 322.501C1512.35 320.305 1457.64 225.863 1419.72 159.242C1410.96 143.136 1390.54 108.727 1375.95 82.3716C1360.64 56.0159 1341.67 23.0713 1334.38 9.16138C1321.25 -15.7301 1321.25 -10.6055 1321.25 299.806Z" fill="black"/>
<path d="M1285.81 63.6928C1203.4 215.97 1136.29 325.053 1126.81 322.857C1120.98 321.393 1084.51 305.286 1045.12 286.984C1005.74 268.681 971.457 256.236 969.269 258.432C964.893 262.092 975.104 380.693 1010.11 740.887C1013.03 771.635 1013.03 796.527 1010.84 795.795C1005.74 792.866 931.342 712.335 843.089 612.769C798.597 562.254 772.34 538.095 768.693 543.219C765.776 548.344 752.647 576.896 740.248 606.912C727.849 636.928 716.179 662.552 715.449 664.016C713.991 665.48 665.852 658.159 608.962 647.91C476.946 625.215 427.349 618.626 427.349 625.215C427.349 627.411 440.478 696.229 457.253 777.492C473.299 858.755 487.157 928.305 487.887 931.965C489.346 938.554 481.323 943.679 409.845 986.141C387.234 1000.05 369 1012.5 369 1015.43C369 1017.62 392.34 1041.78 421.514 1068.14L474.029 1117.19L517.791 1079.85C585.622 1022.01 627.925 1005.91 711.802 1005.91C773.799 1005.91 786.198 1008.1 828.501 1027.87C854.758 1039.58 895.603 1066.67 920.401 1087.17C963.434 1124.51 964.893 1124.51 1022.51 1128.17C1090.34 1132.56 1157.45 1157.45 1204.85 1196.25L1236.22 1222.61L1240.59 1194.79C1242.78 1179.42 1251.53 1145.74 1258.83 1119.38C1281.44 1041.05 1289.46 981.016 1284.36 934.894C1281.44 911.467 1277.06 892.432 1274.87 892.432C1271.96 893.164 1258.1 911.467 1244.24 934.162C1214.34 981.748 1182.97 1005.18 1162.55 994.194C1155.26 990.534 1137.75 963.446 1123.17 934.894C1108.58 906.342 1092.53 877.79 1086.7 872.665C1080.86 866.808 1076.49 858.755 1076.49 854.363C1076.49 850.702 1068.46 837.524 1058.25 825.079C1034.18 796.527 1034.18 765.778 1058.98 746.744C1082.32 728.441 1107.85 726.977 1123.89 743.815C1133.38 753.333 1135.56 764.314 1132.65 789.206C1127.54 835.328 1137.02 883.647 1155.99 901.949L1171.3 917.323L1195.37 888.771C1207.77 872.665 1224.55 847.042 1231.84 830.935C1249.35 791.402 1263.2 776.76 1289.46 771.635C1305.51 767.975 1309.88 763.582 1305.51 754.797C1274.87 681.587 1274.14 663.284 1302.59 634.732L1324.47 612.769L1323.01 306.751L1320.82 -3.99351e-05L1285.81 63.6928Z" fill="#E90506"/>
<path d="M1860.98 1036.3C1767.62 1069.24 1706.36 1119.03 1672.08 1190.04C1631.23 1274.23 1687.39 1378.19 1772.73 1378.19C1831.08 1378.19 1978.41 1304.98 2009.04 1261.05C2019.26 1246.41 2019.99 1246.41 2022.9 1258.86C2025.09 1270.57 2027.28 1270.57 2044.05 1253C2054.27 1242.75 2064.48 1229.57 2066.66 1223.72C2068.85 1217.86 2072.5 1214.93 2074.69 1217.86C2077.61 1220.06 2073.96 1233.23 2066.66 1246.41C2057.91 1264.71 2039.68 1280.09 2001.02 1301.32C1911.31 1351.1 1858.8 1400.15 1895.26 1400.15C1916.42 1400.15 2024.36 1456.53 2045.51 1478.49C2114.07 1551.7 2110.43 1728.14 2036.03 1881.14C2019.99 1914.09 2006.86 1942.64 2006.86 1945.57C2006.86 1947.77 2015.61 1943.37 2026.55 1936.78C2042.6 1925.8 2065.94 1922.87 2146.9 1921.41C2227.13 1919.21 2247.55 1916.29 2247.55 1908.23C2247.55 1893.59 2260.68 1895.79 2268.7 1911.89C2281.1 1933.86 2316.84 1941.91 2405.82 1941.91C2545.13 1941.91 2581.6 1923.61 2596.91 1845.27C2600.56 1824.04 2604.94 1710.56 2606.4 1592.7C2608.58 1386.98 2607.86 1378.92 2593.27 1359.16C2563.36 1318.16 2545.13 1310.1 2468.55 1305.71C2365.71 1299.12 2318.3 1305.71 2281.83 1332.07C2254.11 1351.1 2250.47 1358.42 2238.07 1407.47C2222.75 1468.97 2217.64 1649.07 2227.86 1744.24C2236.61 1818.92 2227.86 1805.74 2211.81 1717.89C2182.63 1564.88 2186.28 1429.44 2220.56 1343.78L2238.07 1300.59L2221.29 1288.14C2211.81 1281.55 2190.66 1247.14 2173.15 1212.74C2149.08 1164.42 2130.85 1139.53 2095.11 1106.58C2009.77 1027.51 1943.4 1007.75 1860.98 1036.3Z" fill="black"/>
<path d="M625.436 1037.76C590.426 1050.21 529.889 1091.21 499.255 1123.42C486.856 1136.6 462.787 1174.67 446.012 1207.61C429.236 1239.82 405.896 1275.7 394.956 1286.68L374.534 1305.71L387.662 1332.8C413.92 1386.98 419.754 1424.31 419.754 1531.93C419.754 1602.21 415.378 1660.78 406.626 1705.44C392.768 1777.92 375.992 1801.35 385.474 1734.73C395.685 1662.25 391.309 1488.74 377.451 1425.78C354.111 1322.55 316.914 1300.59 170.311 1306.45C76.952 1310.11 49.2361 1319.62 24.4376 1354.03C2.55658 1384.78 1.09785 1415.53 6.93278 1641.75C12.7677 1835.76 14.2265 1853.33 28.8138 1884.07C38.2956 1903.11 52.8829 1921.41 63.8234 1926.54C96.6449 1941.18 191.463 1950.7 255.647 1945.57C310.349 1941.18 319.831 1938.25 338.065 1919.95C353.382 1904.57 359.946 1901.64 363.593 1908.97C367.969 1915.55 396.415 1919.21 464.246 1921.41C534.994 1923.61 564.898 1927.27 583.133 1936.79C595.532 1944.11 606.472 1947.77 606.472 1944.84C606.472 1942.64 595.532 1919.95 581.674 1895.79C537.182 1813.06 522.595 1752.3 522.595 1649.07C522.595 1567.07 524.054 1553.9 540.1 1524.61C549.582 1506.31 565.628 1484.35 576.568 1474.83C597.72 1455.79 706.396 1400.15 720.983 1400.15C726.089 1400.15 730.465 1397.23 730.465 1392.83C730.465 1381.12 649.505 1319.62 608.66 1301.32C561.252 1280.09 540.829 1258.86 540.829 1233.24L541.559 1213.47L552.499 1233.24C564.898 1256.66 591.885 1274.23 591.885 1259.59C591.885 1255.2 602.826 1261.06 615.954 1272.77C628.353 1285.21 656.799 1305.71 677.95 1319.62C828.929 1414.06 936.146 1392.83 952.922 1264.72C957.298 1232.5 955.11 1222.99 934.688 1184.18C905.513 1127.81 882.902 1104.39 828.2 1073.64C747.24 1028.25 683.056 1016.53 625.436 1037.76Z" fill="#E90506"/>
<path d="M1576.53 1169.54C1507.97 1178.33 1476.61 1192.97 1436.49 1237.63C1397.84 1280.82 1382.52 1311.57 1366.47 1378.19C1304.48 1633.69 1340.95 1799.88 1488.28 1936.05C1607.89 2045.87 1774.92 2069.29 1906.93 1994.62C1955.8 1967.53 1993.73 1917.75 2022.17 1843.81C2065.21 1731.8 2065.21 1646.87 2021.44 1556.09C1979.87 1468.97 1911.31 1427.24 1744.29 1389.17C1685.94 1375.99 1612.27 1357.69 1580.18 1348.91C1543.71 1338.66 1510.16 1334.26 1490.47 1336.46C1467.13 1338.66 1460.56 1337.93 1466.4 1332.07C1470.77 1327.68 1495.57 1322.55 1521.83 1321.09C1548.09 1319.62 1569.24 1315.23 1569.24 1312.3C1569.24 1304.98 1545.9 1285.95 1529.85 1280.09C1522.56 1277.89 1518.18 1273.5 1520.37 1271.3C1529.85 1261.79 1564.13 1277.16 1593.31 1304.25C1631.96 1338.66 1657.49 1356.23 1669.89 1356.23C1675.72 1356.23 1674.27 1350.37 1664.05 1340.12C1648.01 1322.55 1627.59 1262.52 1627.59 1232.5C1627.59 1221.52 1630.5 1201.75 1634.88 1188.58C1638.53 1174.67 1641.44 1162.95 1639.99 1162.22C1639.26 1161.49 1610.81 1165.15 1576.53 1169.54Z" fill="black"/>
<path d="M979.908 1193.7C990.119 1231.04 982.096 1285.94 960.944 1324.01C951.463 1341.58 944.898 1356.23 946.357 1356.23C956.568 1356.23 985.743 1336.46 1016.38 1308.64C1049.93 1277.89 1084.21 1263.98 1092.23 1276.43C1094.42 1280.09 1091.5 1283.02 1085.67 1283.02C1080.56 1283.02 1068.16 1291.07 1058.68 1301.32L1041.9 1319.62H1077.64C1160.06 1319.62 1169.54 1337.92 1090.04 1343.78C1058.68 1345.98 1014.92 1354.03 993.037 1362.08C971.156 1370.14 910.618 1385.51 858.104 1396.49C698.372 1430.17 634.917 1469.7 591.155 1562.68C548.123 1656.39 552.499 1764.74 604.284 1875.29C656.069 1985.1 724.63 2029.76 846.434 2035.62C980.637 2042.21 1072.54 2002.67 1161.52 1901.64C1204.55 1853.32 1230.08 1809.4 1252.69 1747.9C1272.38 1693.73 1273.84 1682.01 1273.84 1586.84C1273.11 1500.45 1270.2 1471.9 1253.42 1405.28C1229.35 1308.64 1213.31 1275.7 1167.36 1231.04C1126.51 1191.5 1089.31 1176.13 1020.75 1170.27L972.614 1166.61L979.908 1193.7Z" fill="#E90506"/>
<path d="M151.333 2130.05C68.5333 2138.45 22.2666 2172.32 7.86662 2235.12C4.39995 2250.05 2.93328 2287.65 5.33328 2303.39C11.1999 2343.79 32.2666 2373.39 68.1333 2391.79C82.2666 2398.99 113.867 2409.39 141.6 2416.05C201.333 2430.19 218.133 2437.92 225.6 2454.99C228.933 2462.45 230.267 2479.65 228 2486.45C224.267 2497.92 215.867 2503.65 202.667 2503.52C179.6 2503.39 172.4 2493.12 170.8 2457.92L170 2439.92H88.6666H7.33328V2501.92V2563.92L24.6666 2572.85C83.0666 2602.85 137.6 2614.19 214 2612.19C307.067 2609.65 361.867 2583.92 385.6 2531.52C401.733 2496.05 403.733 2434.32 390.133 2394.99C380.4 2367.12 357.467 2343.79 324.667 2328.45C308.267 2320.72 292.667 2316.05 252 2306.32C208.267 2296.05 196.933 2292.45 186.667 2285.79C176.267 2279.12 172.8 2272.19 173.6 2259.25C173.867 2252.72 174.933 2248.99 176.8 2246.32C186.933 2232.45 215.6 2233.39 223.6 2247.92C227.067 2254.05 228.8 2262.05 230 2276.99L230.933 2287.25L308.4 2286.99L386 2286.59V2232.05V2177.39L367.333 2167.92C329.6 2148.72 294.4 2137.65 253.333 2131.79C236.533 2129.39 169.067 2128.19 151.333 2130.05Z" fill="black"/>
<path d="M2344.67 2130.05C2261.87 2138.45 2215.6 2172.32 2201.2 2235.12C2197.73 2250.05 2196.27 2287.65 2198.67 2303.39C2204.53 2343.79 2225.6 2373.39 2261.47 2391.79C2275.6 2398.99 2307.2 2409.39 2334.93 2416.05C2394.67 2430.19 2411.47 2437.92 2418.93 2454.99C2422.27 2462.45 2423.6 2479.65 2421.33 2486.45C2417.6 2497.92 2409.2 2503.65 2396 2503.52C2372.93 2503.39 2365.73 2493.12 2364.13 2457.92L2363.33 2439.92H2282H2200.67V2501.92V2563.92L2218 2572.85C2276.4 2602.85 2330.93 2614.19 2407.33 2612.19C2500.4 2609.65 2555.2 2583.92 2578.93 2531.52C2595.07 2496.05 2597.07 2434.32 2583.47 2394.99C2573.73 2367.12 2550.8 2343.79 2518 2328.45C2501.6 2320.72 2486 2316.05 2445.33 2306.32C2401.6 2296.05 2390.27 2292.45 2380 2285.79C2369.6 2279.12 2366.13 2272.19 2366.93 2259.25C2367.2 2252.72 2368.27 2248.99 2370.13 2246.32C2380.27 2232.45 2408.93 2233.39 2416.93 2247.92C2420.4 2254.05 2422.13 2262.05 2423.33 2276.99L2424.27 2287.25L2501.73 2286.99L2579.33 2286.59V2232.05V2177.39L2560.67 2167.92C2522.93 2148.72 2487.73 2137.65 2446.67 2131.79C2429.87 2129.39 2362.4 2128.19 2344.67 2130.05Z" fill="black"/>
<path d="M597.467 2131.39C521.867 2138.19 472.667 2168.59 457.467 2218.32C450 2242.99 450 2241.79 450 2373.25C450 2506.19 450 2505.52 458.133 2530.19C471.733 2571.52 516.533 2599.65 582.667 2608.59C613.467 2612.72 672.4 2612.45 705.333 2607.92C735.2 2603.79 764.133 2595.52 788.8 2583.92C801.867 2577.92 824.4 2565.12 831.733 2559.65L836 2556.45V2479.12V2401.92H753.333H670.667V2436.85C670.667 2476.32 669.467 2484.85 663.2 2491.39C654.4 2500.59 634.933 2499.79 625.733 2489.79C618.533 2481.92 618.667 2483.39 618.667 2368.72V2262.45L621.733 2256.59C626.4 2247.39 630.267 2245.39 643.733 2244.85C658.133 2244.32 663.067 2246.45 668 2255.25C671.2 2260.99 671.333 2262.32 671.733 2288.99L672.267 2316.59L753.733 2316.32L835.333 2315.92L835.733 2251.12L836 2186.19L821.6 2176.85C781.6 2150.72 736.4 2135.65 684.933 2131.39C665.467 2129.79 616.133 2129.79 597.467 2131.39Z" fill="black"/>
<path d="M1038.67 2131.25C975.2 2137.25 929.333 2158.18 907.333 2191.25C900.133 2202.05 895.866 2213.12 891.733 2230.85C888.8 2243.78 888.8 2245.65 888.266 2361.92C887.866 2485.38 888.133 2495.52 893.6 2517.92C898.533 2538.45 906.666 2552.45 921.466 2566.72C939.066 2583.25 961.2 2594.72 991.6 2602.58C1036.8 2614.45 1124.8 2614.72 1172.53 2603.38C1228.4 2590.05 1262 2562.05 1272.67 2520.18C1278.53 2496.85 1278.93 2486.32 1278.27 2361.25C1277.87 2248.58 1277.73 2243.38 1275.07 2231.25C1269.47 2205.92 1263.73 2194.05 1248.8 2178.32C1226.4 2154.58 1193.07 2140.18 1144 2133.12C1127.33 2130.72 1057.87 2129.52 1038.67 2131.25ZM1099.6 2247.25C1102 2248.58 1104.93 2251.78 1106.27 2254.18C1108.53 2258.32 1108.67 2265.25 1108.67 2370.58V2482.58L1105.73 2487.25C1100.93 2494.98 1095.73 2497.25 1082.67 2497.25C1069.87 2497.25 1064.8 2495.12 1060.53 2488.05C1058.13 2484.05 1058 2479.25 1058 2371.92C1058 2261.38 1058 2259.92 1060.8 2255.25C1065.6 2246.98 1070.8 2244.58 1083.87 2244.58C1092.93 2244.58 1096.27 2245.12 1099.6 2247.25Z" fill="black"/>
<path d="M1324.93 2138.72C1324.4 2139.25 1324 2160.05 1324 2184.99V2230.19L1329.87 2235.92C1341.6 2247.25 1340.67 2235.25 1340.67 2369.92C1340.67 2505.52 1341.33 2497.39 1329.87 2506.72L1324 2511.52V2557.39V2603.25H1428H1532V2557.39V2511.52L1524.8 2507.39C1514.93 2501.92 1509.33 2493.12 1509.33 2483.25V2479.52L1554.4 2478.85C1609.87 2477.92 1627.33 2475.92 1650.8 2467.25C1694 2451.52 1719.2 2413.65 1727.33 2351.92C1730.67 2327.65 1730.67 2271.12 1727.47 2250.85C1721.73 2214.45 1710 2190.19 1688.8 2170.32C1671.73 2154.32 1650.27 2145.25 1618 2140.45C1606.13 2138.59 1326.67 2136.99 1324.93 2138.72ZM1538 2252.72C1549.87 2254.72 1556 2258.59 1560 2266.59C1563.07 2272.85 1563.33 2274.72 1563.73 2299.92C1564.67 2342.99 1561.6 2354.32 1547.33 2361.39C1540.93 2364.45 1537.73 2364.99 1524.67 2365.65L1509.33 2366.32V2308.72V2251.25H1519.6C1525.2 2251.25 1533.47 2251.92 1538 2252.72Z" fill="black"/>
<path d="M1758.27 2138.85C1757.73 2139.25 1757.33 2159.92 1757.33 2184.72V2229.92L1764.53 2236.85C1769.6 2241.79 1772.27 2245.65 1773.2 2249.52C1775.47 2258.05 1774.53 2487.39 1772.27 2494.32C1771.2 2497.25 1767.6 2502.19 1763.87 2505.79L1757.33 2512.05V2557.65V2603.25H1950.67H2144V2520.59V2437.92H2066.8H1989.73L1988.93 2449.52C1986.8 2478.85 1979.2 2486.85 1951.73 2489.12L1942.67 2489.79V2451.92V2413.92H1995.33H2048V2363.92V2313.92H1995.33H1942.67V2283.12V2252.19L1953.73 2252.85C1969.73 2253.79 1981.2 2259.39 1986.27 2268.99C1987.33 2271.12 1988.53 2276.99 1988.93 2282.05L1989.73 2291.25H2066.8H2144V2214.59V2137.92H1951.6C1845.73 2137.92 1758.67 2138.32 1758.27 2138.85Z" fill="black"/>
<path d="M380 2677.92C355.467 2679.52 339.333 2683.52 321.467 2692.32C309.6 2698.05 297.867 2708.98 292.8 2718.98C284.8 2734.72 284.667 2736.45 284.667 2821.92C284.667 2891.65 284.933 2900.85 286.933 2908.98C293.333 2933.65 308.933 2948.85 337.733 2958.72C366.533 2968.58 423.467 2969.78 457.067 2961.25C484 2954.32 502.667 2941.38 510.933 2923.78C518.4 2907.92 518.8 2900.72 518.4 2816.32C517.867 2744.05 517.733 2739.38 515.2 2731.12C511.467 2719.25 507.067 2711.92 498.4 2703.65C477.2 2683.78 434.267 2674.32 380 2677.92ZM412.933 2749.12L416.667 2752.32V2821.78C416.667 2890.45 416.667 2891.25 413.867 2893.92C408.133 2899.78 394.533 2899.78 388.8 2893.92C386 2891.25 386 2890.18 385.6 2826.18C385.333 2782.32 385.6 2759.65 386.667 2756.32C388.667 2749.12 393.467 2745.92 402.133 2745.92C407.6 2745.92 410 2746.58 412.933 2749.12Z" fill="#E90506"/>
<path d="M1296 2677.92C1253.47 2681.25 1222.93 2696.85 1211.33 2721.25C1204.4 2735.92 1203.73 2745.65 1204.27 2827.65C1204.8 2893.92 1205.07 2903.52 1207.07 2910.59C1210.67 2922.85 1214.27 2929.39 1222.4 2938.05C1228.27 2944.45 1232.4 2947.39 1243.2 2952.59C1250.67 2956.19 1261.73 2960.32 1268 2961.92C1292.4 2967.65 1333.73 2968.59 1364.13 2963.92C1389.07 2960.19 1413.87 2950.85 1428.67 2939.52L1435.33 2934.45L1435.73 2868.85L1436 2803.25H1380H1324V2833.92V2864.59H1332.13H1340.4L1339.73 2874.99C1338.8 2886.85 1336.13 2894.32 1331.87 2896.59C1328.13 2898.72 1317.33 2898.72 1313.6 2896.72C1312 2895.92 1309.6 2893.25 1308.4 2890.85C1306.13 2886.99 1306 2881.12 1306 2822.59C1306 2764.19 1306.27 2758.19 1308.27 2754.32C1311.6 2748.45 1315.6 2745.92 1322.13 2745.92C1333.2 2745.92 1338.67 2754.05 1338.67 2770.59V2780.59H1387.33H1436V2747.39V2714.32L1428.4 2708.99C1393.47 2684.99 1346.67 2674.05 1296 2677.92Z" fill="#E90506"/>
<path d="M1676.67 2677.92C1624.93 2681.65 1596.13 2699.79 1586.4 2734.72C1583.47 2744.99 1583.47 2746.85 1583.33 2821.92C1583.33 2902.72 1583.47 2905.25 1589.6 2921.65C1593.07 2930.99 1605.73 2944.59 1616.53 2950.45C1638 2962.32 1658.67 2966.32 1698 2966.32C1746 2966.45 1772.8 2959.79 1806.4 2939.79L1814.67 2934.72V2887.65V2840.59H1765.33H1716V2862.19C1716 2874.19 1715.33 2886.19 1714.53 2888.99C1712.8 2895.25 1708.53 2898.19 1700.8 2898.19C1693.73 2898.19 1690.53 2896.59 1687.2 2891.65C1684.8 2888.05 1684.67 2884.45 1684.67 2820.85V2753.65L1689.07 2749.79C1692.67 2746.59 1694.53 2745.92 1700.67 2745.92C1713.87 2745.92 1717.2 2751.79 1717.33 2776.19V2788.59H1766H1814.67V2749.52V2710.59L1803.47 2703.52C1770.67 2682.85 1728 2674.18 1676.67 2677.92Z" fill="#E90506"/>
<path d="M2.66675 2709.78V2737.65L6.66675 2741.92C8.80008 2744.18 11.0667 2748.32 11.6001 2750.98C12.1334 2753.65 12.6667 2786.18 12.6667 2823.25C12.6667 2895.25 12.5334 2897.12 6.00008 2903.25L2.66675 2906.32V2934.18V2961.92H85.7334C131.333 2961.92 174.4 2961.25 181.333 2960.58C207.067 2957.92 222.4 2951.65 233.867 2939.12C246.8 2925.12 252 2908.72 252 2882.18C251.867 2845.65 240.8 2828.05 212.267 2818.58L205.2 2816.32L213.6 2812.32C239.467 2800.18 248.533 2784.72 248.533 2753.25C248.533 2729.25 243.333 2714.58 230.8 2702.85C219.2 2692.05 202.4 2686.05 175.333 2683.38C166.667 2682.45 129.333 2681.92 81.7334 2681.92H2.66675V2709.78ZM137.2 2751.78C143.733 2754.05 147.067 2759.12 147.6 2767.52C148.667 2781.25 139.733 2788.45 121.733 2788.58H112V2769.25V2749.92L122.4 2750.05C128 2750.05 134.8 2750.85 137.2 2751.78ZM138.8 2850.72C145.067 2854.32 148 2860.72 148 2870.58C147.867 2887.25 140.667 2894.32 121.6 2896.05L112 2896.98V2871.92V2846.85L123.067 2847.52C130.933 2847.92 135.6 2848.85 138.8 2850.72Z" fill="#E90506"/>
<path d="M532 2709.78V2737.78L536 2742.18C540 2746.45 585.333 2818.45 585.333 2820.45C585.333 2821.52 536 2897.78 531.867 2903.12C529.6 2905.92 529.333 2908.98 529.333 2934.05V2961.92H578.533H627.733L628.267 2938.18L628.667 2914.58L635.734 2899.92L642.934 2885.25L645.334 2890.05C646.8 2892.72 649.867 2899.65 652.267 2905.38C656.4 2915.52 656.534 2916.72 657.067 2938.85L657.6 2961.92H715.467H773.334V2934.72V2907.38L765.6 2894.98C743.734 2860.05 718.4 2816.45 719.067 2814.72C720.133 2812.18 762 2749.25 766.8 2743.12L770.667 2738.18V2710.05V2681.92H722H673.333V2698.32C673.333 2708.85 672.667 2717.12 671.467 2721.25C669.067 2729.12 659.734 2749.92 658.667 2749.92C658.133 2749.92 655.334 2744.72 652.267 2738.18C645.867 2724.85 644 2714.98 644 2695.52V2681.92H588H532V2709.78Z" fill="#E90506"/>
<path d="M790.667 2710.32C790.667 2736.98 790.8 2738.72 793.333 2740.18C794.8 2741.12 796.933 2743.78 798.267 2746.18C800.533 2750.32 800.667 2756.05 800.667 2821.92C800.667 2899.12 800.8 2897.12 793.467 2903.78C790.8 2906.18 790.667 2907.52 790.667 2934.18V2961.92H850.667H910.667V2934.05V2906.18L906.8 2902.05C904.8 2899.92 902.667 2896.05 902.133 2893.78C900.8 2886.58 901.2 2754.98 902.667 2749.65C903.467 2746.98 905.6 2743.38 907.333 2741.65L910.667 2738.58V2710.18V2681.92H850.667H790.667V2710.32Z" fill="#E90506"/>
<path d="M934.667 2710.32C934.667 2736.98 934.8 2738.72 937.333 2740.18C938.8 2741.12 940.933 2743.78 942.267 2746.18C944.533 2750.32 944.667 2756.05 944.667 2821.92C944.667 2899.12 944.8 2897.12 937.467 2903.78C934.8 2906.18 934.667 2907.52 934.667 2934.18V2961.92H984H1033.33V2934.18V2906.32L1030.13 2904.72C1024.4 2901.52 1023.6 2897.52 1022.93 2869.92C1022.67 2855.65 1022.67 2844.18 1023.07 2844.58C1023.47 2844.98 1026.8 2852.72 1030.4 2861.92C1034.13 2871.12 1045.47 2897.12 1055.87 2919.92L1074.53 2961.25L1122.67 2961.65L1170.67 2961.92V2858.32C1170.67 2794.05 1171.2 2752.72 1172 2749.78C1172.67 2747.25 1175.07 2743.38 1177.33 2741.25L1181.33 2737.38V2709.65V2681.92H1130.67H1080V2709.65V2737.38L1083.33 2740.32C1085.2 2742.05 1087.47 2744.98 1088.27 2746.98C1090.27 2751.65 1091.33 2806.18 1089.47 2803.25C1088.67 2802.18 1077.07 2774.45 1063.73 2741.65L1039.33 2681.92H987.067H934.667V2710.32Z" fill="#E90506"/>
<path d="M1841.33 2710.32C1841.33 2736.98 1841.47 2738.72 1844 2740.18C1845.47 2741.12 1847.6 2743.78 1848.93 2746.18C1851.2 2750.32 1851.33 2756.05 1851.33 2821.92C1851.33 2899.12 1851.47 2897.12 1844.13 2903.78C1841.47 2906.18 1841.33 2907.52 1841.33 2934.18V2961.92H1954.67H2068V2889.25V2816.58H2024.13H1980.13L1979.73 2848.18C1979.33 2875.52 1979.07 2880.58 1976.93 2884.18C1973.6 2890.32 1969.73 2892.45 1960.13 2893.38L1951.87 2894.32L1952.27 2822.45C1952.67 2754.72 1952.8 2750.32 1955.2 2746.45C1956.53 2744.18 1959.47 2741.25 1961.47 2740.05L1965.33 2737.78V2709.78V2681.92H1903.33H1841.33V2710.32Z" fill="#E90506"/>
<path d="M2080 2710.05V2738.19L2083.33 2740.85C2090.13 2746.19 2090 2744.72 2090.8 2821.25C2091.33 2883.25 2091.87 2894.72 2093.87 2903.92C2099.2 2928.05 2110.8 2942.59 2133.73 2953.92C2151.47 2962.72 2165.73 2965.79 2194 2966.85C2254.4 2969.12 2292.4 2954.32 2307.33 2922.99C2315.87 2905.12 2316.27 2901.12 2317.2 2821.92C2317.87 2757.25 2318.27 2750.19 2320.4 2746.32C2321.6 2743.92 2323.87 2741.39 2325.33 2740.59C2327.87 2739.25 2328 2737.79 2328 2710.59V2681.92H2272H2216V2709.52C2216 2732.85 2216.27 2737.39 2218.13 2739.39C2223.6 2745.52 2223.87 2749.12 2224 2819.52C2224 2859.39 2223.47 2888.45 2222.67 2890.45C2222 2892.32 2220 2894.72 2218.13 2895.92C2214.13 2898.59 2201.47 2898.85 2197.47 2896.32C2191.47 2892.59 2191.33 2890.45 2191.33 2817.79V2749.12L2195.07 2743.52L2198.67 2737.92V2709.92V2681.92H2139.33H2080V2710.05Z" fill="#E90506"/>
<path d="M2350.67 2709.78V2737.65L2354.67 2741.92C2356.8 2744.18 2359.07 2748.32 2359.6 2750.98C2360.13 2753.65 2360.67 2786.18 2360.67 2823.25C2360.67 2895.25 2360.53 2897.12 2354 2903.25L2350.67 2906.32V2934.18V2961.92H2433.73C2479.33 2961.92 2522.4 2961.25 2529.33 2960.58C2555.07 2957.92 2570.4 2951.65 2581.87 2939.12C2594.8 2925.12 2600 2908.72 2600 2882.18C2599.87 2845.65 2588.8 2828.05 2560.27 2818.58L2553.2 2816.32L2561.6 2812.32C2587.47 2800.18 2596.53 2784.72 2596.53 2753.25C2596.53 2729.25 2591.33 2714.58 2578.8 2702.85C2567.2 2692.05 2550.4 2686.05 2523.33 2683.38C2514.67 2682.45 2477.33 2681.92 2429.73 2681.92H2350.67V2709.78ZM2485.2 2751.78C2491.73 2754.05 2495.07 2759.12 2495.6 2767.52C2496.67 2781.25 2487.73 2788.45 2469.73 2788.58H2460V2769.25V2749.92L2470.4 2750.05C2476 2750.05 2482.8 2750.85 2485.2 2751.78ZM2486.8 2850.72C2493.07 2854.32 2496 2860.72 2496 2870.58C2495.87 2887.25 2488.67 2894.32 2469.6 2896.05L2460 2896.98V2871.92V2846.85L2471.07 2847.52C2478.93 2847.92 2483.6 2848.85 2486.8 2850.72Z" fill="#E90506"/>
<path d="M0 3107.92V3191.25H1295.33H2590.67V3107.92V3024.59H1295.33H0V3107.92ZM1020 3065.92V3075.25H1006.67H993.333V3065.92V3056.59H1006.67H1020V3065.92ZM1462.67 3065.92V3075.25H1449.33H1436V3065.92V3056.59H1449.33H1462.67V3065.92ZM185.333 3073.92V3088.59H197.333H209.333V3073.92V3059.25H224H238.667V3102.59V3145.92H224H209.333V3129.25V3112.59H197.333H185.333V3129.25V3145.92H170.667H156V3102.59V3059.25H170.667H185.333V3073.92ZM442.667 3102.59V3145.92H429.333H416V3102.59V3059.25H429.333H442.667V3102.59ZM536 3073.25V3087.39L539.733 3084.59C550.667 3076.45 566.933 3079.12 575.2 3090.32C577.733 3093.79 578 3096.19 578.4 3120.05L578.8 3145.92H566.133H553.6L553.067 3125.52C552.667 3102.85 551.867 3100.59 544.933 3100.59C536.8 3100.59 536 3102.72 536 3125.52V3145.92H522.667H509.333V3102.59V3059.25H522.667H536V3073.25ZM864 3102.59V3145.92H852.667H841.333V3142.32V3138.85L838.267 3141.65C831.333 3148.19 818.933 3150.45 810.267 3146.72C804.133 3144.19 796.667 3135.12 794.533 3127.52C786.267 3098.85 806.4 3071.79 828.933 3081.25C831.733 3082.45 834.933 3084.32 836.267 3085.52C838.533 3087.52 838.667 3086.99 838.667 3073.52V3059.25H851.333H864V3102.59ZM985.333 3070.59V3081.92H966.667H948V3087.92V3093.92H962.667H977.467L977.067 3104.85L976.667 3115.92L962.4 3116.32L948 3116.72V3131.25V3145.92H933.333H918.667V3102.59V3059.25H952H985.333V3070.59ZM1670.4 3069.52L1670 3079.92L1649.73 3080.32L1629.33 3080.72V3085.92V3091.25H1646.67H1664.13L1663.73 3101.52L1663.33 3111.92L1646.4 3112.32L1629.33 3112.72V3118.59V3124.59H1650.67H1672V3135.25V3145.92H1636H1600V3102.59V3059.25H1635.33H1670.8L1670.4 3069.52ZM2058.53 3061.39C2084.4 3068.99 2085.87 3106.85 2060.67 3117.39C2057.6 3118.59 2049.87 3119.79 2042.4 3120.32L2029.33 3120.99V3133.39V3145.92H2014.67H2000V3102.59V3059.25H2025.73C2045.2 3059.25 2053.2 3059.79 2058.53 3061.39ZM2358.67 3073.25V3087.39L2362.4 3084.59C2373.33 3076.45 2389.6 3079.12 2397.87 3090.32C2400.4 3093.79 2400.67 3096.19 2401.07 3120.05L2401.47 3145.92H2388.8H2376.27L2375.73 3125.52C2375.33 3102.85 2374.53 3100.59 2367.6 3100.59C2359.47 3100.59 2358.67 3102.72 2358.67 3125.52V3145.92H2345.33H2332V3102.59V3059.25H2345.33H2358.67V3073.25ZM487.733 3072.19L488.133 3081.92H494H500V3089.25V3096.59H494H487.867L488.267 3111.52L488.667 3126.59L494.4 3126.99L500.133 3127.39L499.733 3136.99L499.333 3146.59H485.333C463.067 3146.59 461.333 3144.32 461.333 3115.12V3096.59H456.667H452V3089.25V3081.92H456.667H461.333V3071.92V3061.79L474.4 3062.19L487.333 3062.59L487.733 3072.19ZM1065.07 3072.19L1065.47 3081.92H1071.33H1077.33V3089.25V3096.59H1071.33H1065.2L1065.6 3111.52L1066 3126.59L1071.73 3126.99L1077.47 3127.39L1077.07 3136.99L1076.67 3146.59H1062.67C1040.4 3146.59 1038.67 3144.32 1038.67 3115.12V3096.59H1034H1029.33V3089.25V3081.92H1034H1038.67V3071.92V3061.79L1051.73 3062.19L1064.67 3062.59L1065.07 3072.19ZM301.733 3081.92C314.133 3086.59 322.4 3098.59 323.067 3112.85L323.333 3119.92L299.733 3120.32C274 3120.72 273.333 3120.85 278.8 3127.79C282.267 3132.32 291.6 3132.72 295.333 3128.59C297.467 3126.32 299.467 3125.92 309.6 3125.92C317.6 3125.92 321.333 3126.45 321.333 3127.52C321.333 3128.32 319.867 3131.52 318 3134.72C311.333 3146.19 290.267 3151.79 272.8 3146.72C252.267 3140.72 243.333 3116.32 254.4 3096.19C262.4 3081.39 283.467 3075.12 301.733 3081.92ZM390 3083.25C401.333 3088.99 402 3090.45 402.4 3117.65C402.667 3130.59 403.333 3141.79 404.133 3142.45C406.8 3145.39 404.8 3145.92 392.133 3145.92C380 3145.92 378.8 3145.65 378 3143.25C377.2 3140.59 377.067 3140.59 373.6 3142.99C364.667 3149.39 347.467 3150.32 340.4 3145.12C333.733 3140.19 331.6 3135.92 331.6 3128.05C331.6 3114.72 337.467 3110.32 360.4 3106.72C367.467 3105.65 374 3104.32 374.667 3103.92C376.8 3102.59 376.267 3096.99 373.867 3096.05C368.133 3093.92 360 3096.59 360 3100.72C360 3101.39 354.267 3101.92 347.2 3101.92H334.267L335.067 3096.99C336.933 3085.52 350.267 3078.99 370.667 3079.65C380.933 3079.92 384.533 3080.59 390 3083.25ZM687.333 3083.25C698.667 3088.99 699.333 3090.45 699.733 3117.65C700 3130.59 700.667 3141.79 701.467 3142.45C704.133 3145.39 702.133 3145.92 689.467 3145.92C677.333 3145.92 676.133 3145.65 675.333 3143.25C674.533 3140.59 674.4 3140.59 670.933 3142.99C662 3149.39 644.8 3150.32 637.733 3145.12C631.067 3140.19 628.933 3135.92 628.933 3128.05C628.933 3114.72 634.8 3110.32 657.733 3106.72C664.8 3105.65 671.333 3104.32 672 3103.92C674.133 3102.59 673.6 3096.99 671.2 3096.05C665.467 3093.92 657.333 3096.59 657.333 3100.72C657.333 3101.39 651.6 3101.92 644.533 3101.92H631.6L632.4 3096.99C634.267 3085.52 647.6 3078.99 668 3079.65C678.267 3079.92 681.867 3080.59 687.333 3083.25ZM770.667 3082.59C775.2 3084.99 779.467 3089.79 781.2 3094.32C782 3096.45 782.667 3108.32 782.667 3122.05V3145.92H770.133H757.6L757.067 3125.52C756.667 3102.85 755.867 3100.59 748.933 3100.59C740.8 3100.59 740 3102.72 740 3125.52V3145.92H726.667H713.333V3113.92V3081.92H725.333H737.333V3086.19V3090.45L741.2 3086.72C748.4 3079.79 761.6 3077.92 770.667 3082.59ZM1144 3082.59C1148.53 3084.99 1152.8 3089.79 1154.53 3094.32C1155.33 3096.45 1156 3108.32 1156 3122.05V3145.92H1143.47H1130.93L1130.4 3125.52C1130 3102.85 1129.2 3100.59 1122.27 3100.59C1114.13 3100.59 1113.33 3102.72 1113.33 3125.52V3145.92H1100H1086.67V3113.92V3081.92H1098.67H1110.67V3086.19V3090.45L1114.53 3086.72C1121.73 3079.79 1134.93 3077.92 1144 3082.59ZM1217.73 3081.92C1230.13 3086.59 1238.4 3098.59 1239.07 3112.85L1239.33 3119.92L1215.73 3120.32C1190 3120.72 1189.33 3120.85 1194.8 3127.79C1198.27 3132.32 1207.6 3132.72 1211.33 3128.59C1213.47 3126.32 1215.47 3125.92 1225.6 3125.92C1233.6 3125.92 1237.33 3126.45 1237.33 3127.52C1237.33 3128.32 1235.87 3131.52 1234 3134.72C1227.33 3146.19 1206.27 3151.79 1188.8 3146.72C1168.27 3140.72 1159.33 3116.32 1170.4 3096.19C1178.4 3081.39 1199.47 3075.12 1217.73 3081.92ZM1294.13 3081.25C1301.87 3083.52 1308.93 3090.05 1310.13 3096.32L1311.07 3100.59H1300C1289.87 3100.59 1288.8 3100.32 1286.4 3097.25C1282.67 3092.45 1273.33 3092.99 1273.33 3097.92C1273.33 3100.59 1276.4 3102.05 1291.87 3106.05C1307.07 3110.05 1312.13 3114.45 1312.93 3124.72C1313.47 3130.72 1313.07 3132.72 1310.4 3136.59C1305.87 3143.52 1296.53 3147.52 1283.73 3148.32C1262.13 3149.52 1250.67 3143.79 1246.67 3129.79L1245.47 3125.92H1258.8C1271.2 3125.92 1272 3126.05 1272 3128.59C1272 3134.59 1285.33 3135.39 1286.4 3129.39C1287.2 3125.79 1285.6 3124.85 1272 3121.12C1252.53 3115.92 1248 3112.05 1248 3100.19C1248 3093.79 1251.6 3086.99 1256.27 3084.45C1266 3079.12 1282.53 3077.79 1294.13 3081.25ZM1367.47 3081.25C1375.2 3083.52 1382.27 3090.05 1383.47 3096.32L1384.4 3100.59H1373.33C1363.2 3100.59 1362.13 3100.32 1359.73 3097.25C1356 3092.45 1346.67 3092.99 1346.67 3097.92C1346.67 3100.59 1349.73 3102.05 1365.2 3106.05C1380.4 3110.05 1385.47 3114.45 1386.27 3124.72C1386.8 3130.72 1386.4 3132.72 1383.73 3136.59C1379.2 3143.52 1369.87 3147.52 1357.07 3148.32C1335.47 3149.52 1324 3143.79 1320 3129.79L1318.8 3125.92H1332.13C1344.53 3125.92 1345.33 3126.05 1345.33 3128.59C1345.33 3134.59 1358.67 3135.39 1359.73 3129.39C1360.53 3125.79 1358.93 3124.85 1345.33 3121.12C1325.87 3115.92 1321.33 3112.05 1321.33 3100.19C1321.33 3093.79 1324.93 3086.99 1329.6 3084.45C1339.33 3079.12 1355.87 3077.79 1367.47 3081.25ZM1534.67 3082.59C1539.2 3084.99 1543.47 3089.79 1545.2 3094.32C1546 3096.45 1546.67 3108.32 1546.67 3122.05V3145.92H1534.13H1521.6L1521.07 3125.52C1520.67 3102.85 1519.87 3100.59 1512.93 3100.59C1504.8 3100.59 1504 3102.72 1504 3125.52V3145.92H1490.67H1477.33V3113.92V3081.92H1489.33H1501.33V3086.19V3090.45L1505.2 3086.72C1512.4 3079.79 1525.6 3077.92 1534.67 3082.59ZM1801.73 3081.92C1814.13 3086.59 1822.4 3098.59 1823.07 3112.85L1823.33 3119.92L1799.73 3120.32C1774 3120.72 1773.33 3120.85 1778.8 3127.79C1782.27 3132.32 1791.6 3132.72 1795.33 3128.59C1797.47 3126.32 1799.47 3125.92 1809.6 3125.92C1817.6 3125.92 1821.33 3126.45 1821.33 3127.52C1821.33 3128.32 1819.87 3131.52 1818 3134.72C1811.33 3146.19 1790.27 3151.79 1772.8 3146.72C1752.27 3140.72 1743.33 3116.32 1754.4 3096.19C1762.4 3081.39 1783.47 3075.12 1801.73 3081.92ZM1879.73 3092.99L1880.13 3105.92H1873.33C1867.87 3105.92 1865.87 3106.59 1863.33 3109.25C1860.13 3112.32 1860 3113.25 1860 3129.25V3145.92H1846.67H1833.33V3113.92V3081.92H1845.33H1857.33V3086.85L1857.47 3091.92L1859.6 3088.45C1862.13 3084.32 1865.87 3081.79 1871.33 3080.45C1879.07 3078.59 1879.33 3078.85 1879.73 3092.99ZM2229.33 3082.59C2233.87 3084.99 2238.13 3089.79 2239.87 3094.32C2240.67 3096.45 2241.33 3108.32 2241.33 3122.05V3145.92H2228.8H2216.27L2215.73 3125.52C2215.33 3102.85 2214.53 3100.59 2207.6 3100.59C2199.47 3100.59 2198.67 3102.72 2198.67 3125.52V3145.92H2185.33H2172V3113.92V3081.92H2184H2196V3086.19V3090.45L2199.87 3086.72C2207.07 3079.79 2220.27 3077.92 2229.33 3082.59ZM2301.87 3081.12C2313.33 3084.59 2322.67 3094.85 2322.67 3103.92C2322.67 3107.25 2322.67 3107.25 2310.27 3107.25H2297.87L2295.87 3102.85C2294.27 3099.25 2293.2 3098.59 2288.53 3098.19C2280.27 3097.52 2278 3100.85 2278 3113.92C2278 3126.19 2280.27 3129.92 2287.6 3129.92C2292.27 3129.92 2297.33 3126.05 2297.33 3122.59C2297.33 3120.99 2299.6 3120.59 2310 3120.59H2322.67V3123.92C2322.67 3129.39 2317.73 3137.65 2312 3141.79C2296.53 3152.99 2268.67 3149.79 2257.87 3135.52C2243.87 3117.25 2252 3087.79 2272.93 3081.39C2281.2 3078.85 2293.87 3078.72 2301.87 3081.12ZM1020 3113.92V3145.92H1006.67H993.333V3113.92V3081.92H1006.67H1020V3113.92ZM1462.67 3113.92V3145.92H1449.33H1436V3113.92V3081.92H1449.33H1462.67V3113.92ZM1706.13 3099.79C1708.93 3109.65 1711.73 3117.12 1712.13 3116.32C1712.67 3115.52 1715.07 3107.52 1717.47 3098.45L1722 3081.92H1734.4C1741.07 3081.92 1746.67 3082.32 1746.67 3082.72C1746.67 3083.12 1742.13 3097.52 1736.53 3114.72L1726.4 3146.05L1711.6 3145.65L1696.93 3145.25L1692.53 3132.59C1690.27 3125.65 1685.33 3111.39 1681.6 3100.85L1675.07 3081.92H1688H1700.93L1706.13 3099.79ZM1913.87 3100.99L1919.07 3119.52L1924.4 3100.72L1929.6 3081.92H1942H1954.4L1942.13 3119.52C1935.33 3140.32 1928.8 3159.25 1927.47 3161.65C1926.27 3164.05 1923.33 3167.12 1921.2 3168.45C1916.13 3171.52 1904.8 3173.12 1896.67 3171.92L1890.67 3170.99V3161.12V3151.39L1897.07 3150.99C1902.93 3150.59 1903.33 3150.32 1903.73 3146.59C1903.87 3144.19 1899.6 3130.72 1892.8 3112.19L1881.6 3081.79L1895.07 3082.19L1908.53 3082.59L1913.87 3100.99ZM2114.67 3101.65C2114.67 3124.32 2115.6 3127.25 2123.33 3127.25C2131.07 3127.25 2132 3124.32 2132 3101.65V3081.92H2145.33H2158.67V3113.92V3145.92H2146.67H2134.67V3141.92V3137.79L2129.73 3141.79C2116.93 3152.05 2097.6 3148.85 2091.33 3135.65C2089.33 3131.52 2088.8 3126.05 2088.27 3106.19L2087.6 3081.92H2101.2H2114.67V3101.65ZM2441.33 3132.59V3145.92H2428H2414.67V3132.59V3119.25H2428H2441.33V3132.59Z" fill="#E90506"/>
<path d="M449.6 3318.99C432.533 3325.12 423.733 3343.39 428 3363.65C430.267 3374.72 436.4 3382.99 445.733 3387.79C452.4 3391.12 454.933 3391.79 463.733 3391.65C487.067 3391.65 501.333 3377.52 501.333 3354.59C501.333 3339.39 494 3326.45 482.133 3320.32C474.267 3316.32 458.933 3315.65 449.6 3318.99ZM473.333 3337.92C476.933 3341.52 477.733 3345.52 477.067 3357.39C476.667 3366.59 476.267 3367.92 472.933 3370.72C466.267 3376.45 455.867 3374.32 452.667 3366.59C450.267 3361.12 450 3346.99 452.133 3342.85C455.333 3336.59 457.6 3335.25 464.267 3335.25C468.8 3335.25 471.467 3336.05 473.333 3337.92Z" fill="black"/>
<path d="M1101.33 3318.58C1082.67 3324.45 1073.07 3347.65 1080.53 3369.52C1083.47 3378.18 1093.2 3387.65 1101.47 3390.05C1121.07 3395.38 1140.53 3388.58 1148.27 3373.38C1152.27 3365.65 1153.2 3348.72 1150 3339.12C1144 3321.25 1122.4 3312.05 1101.33 3318.58ZM1123.6 3337.25C1127.33 3339.92 1129.87 3351.65 1128.53 3360.18C1126.93 3371.38 1118.27 3376.72 1108.8 3372.45C1100 3368.45 1098.67 3343.12 1107.07 3337.25C1110.8 3334.72 1119.87 3334.72 1123.6 3337.25Z" fill="black"/>
<path d="M1516 3317.79C1500.4 3322.59 1490.67 3336.72 1490.67 3354.59C1490.67 3377.52 1504.93 3391.65 1528.27 3391.65C1537.07 3391.79 1539.6 3391.12 1546.27 3387.79C1555.6 3382.99 1561.73 3374.72 1564 3363.65C1568.27 3343.65 1559.6 3325.52 1543.2 3319.25C1535.73 3316.59 1522.67 3315.79 1516 3317.79ZM1537.47 3338.72C1540.13 3341.65 1540.67 3343.65 1541.07 3352.32C1541.6 3365.52 1538.93 3371.39 1531.87 3373.12C1520.27 3375.92 1514.67 3369.79 1514.67 3354.19C1514.67 3339.65 1517.73 3335.39 1528.13 3335.25C1532.93 3335.25 1534.8 3335.92 1537.47 3338.72Z" fill="black"/>
<path d="M1758.13 3319.25C1744.53 3324.72 1736.93 3336.72 1736.93 3353.25C1736.8 3370.58 1743.87 3382.98 1757.2 3388.98C1769.33 3394.45 1790.13 3391.65 1799.07 3383.52C1802.53 3380.45 1806.27 3372.85 1807.33 3366.85L1808.27 3361.92H1797.47C1787.07 3361.92 1786.67 3362.05 1785.87 3365.25C1784 3372.72 1773.47 3376.32 1766.8 3371.78C1760.67 3367.38 1758.27 3355.52 1761.33 3344.32C1763.07 3338.05 1767.07 3335.25 1774 3335.25C1779.87 3335.25 1785.33 3339.25 1785.33 3343.65C1785.33 3345.65 1786.93 3345.92 1796.8 3345.92H1808.27L1807.33 3341.52C1805.07 3331.38 1800.13 3324.72 1791.47 3320.32C1783.47 3316.18 1766.93 3315.65 1758.13 3319.25Z" fill="black"/>
<path d="M506.667 3327.92V3337.92H516.667H526.667V3363.92V3389.92H538.667H550.667V3363.92V3337.92H560.667H570.667V3327.92V3317.92H538.667H506.667V3327.92Z" fill="black"/>
<path d="M574.933 3327.52L575.333 3337.25L585.733 3337.65L596 3338.05V3363.92V3389.92H607.333H618.667V3363.92V3338.05L629.067 3337.65L639.333 3337.25V3327.92V3318.58L606.933 3318.18L574.533 3317.92L574.933 3327.52Z" fill="black"/>
<path d="M660.667 3319.52C660.267 3320.45 658.533 3325.38 656.8 3330.58C655.067 3335.65 649.733 3351.12 644.8 3364.85L636.133 3389.92H647.333H658.4L660 3385.25L661.6 3380.45L673.067 3380.85L684.533 3381.25L685.6 3385.52L686.8 3389.92H698C704.267 3389.92 709.333 3389.52 709.2 3388.85C709.2 3388.32 703.6 3372.32 696.933 3353.25L684.667 3318.58L672.933 3318.18C664.4 3317.92 661.067 3318.32 660.667 3319.52ZM676.667 3354.05C678.4 3360.18 679.6 3365.38 679.467 3365.65C679.2 3365.92 676 3365.92 672.4 3365.65L665.733 3365.25L669.067 3353.52C670.933 3347.12 672.667 3342.05 672.933 3342.32C673.2 3342.58 674.8 3347.92 676.667 3354.05Z" fill="black"/>
<path d="M709.333 3319.52C709.333 3320.45 713.067 3336.72 717.6 3355.52L725.867 3389.92H737.467H749.067L750.4 3383.52C751.2 3380.05 752.8 3371.12 754.133 3363.52C755.467 3355.92 756.933 3350.58 757.467 3351.52C757.867 3352.45 759.6 3360.45 761.2 3369.25C765.333 3392.05 763.733 3389.92 776.667 3389.92C786.133 3389.92 787.867 3389.52 788.534 3387.52C789.067 3385.65 796.667 3353.65 803.334 3325.52L805.067 3317.92H794H782.934L780 3337.52C778.267 3348.45 776.534 3358.32 776.133 3359.65C775.6 3361.12 773.6 3353.25 771.2 3340.32L767.2 3318.58L757.733 3318.18L748.267 3317.78L746.933 3324.18C746.133 3327.65 744.133 3337.65 742.533 3346.18C740.8 3354.85 739.2 3361.65 738.933 3361.25C738.667 3360.98 736.8 3351.25 734.8 3339.65L731.2 3318.58L720.267 3318.18C712 3317.92 709.333 3318.18 709.333 3319.52Z" fill="black"/>
<path d="M827.867 3321.52C825.6 3327.39 804 3388.85 804 3389.39C804 3389.65 809.067 3389.92 815.2 3389.92H826.267L827.467 3385.52L828.8 3381.25L840.267 3380.85L851.867 3380.45L853.067 3384.85L854.133 3389.25L865.733 3389.65L877.333 3390.05L868.533 3364.99C863.733 3351.25 858.133 3335.12 856.133 3329.25L852.4 3318.59L840.933 3318.19C829.333 3317.79 829.333 3317.79 827.867 3321.52ZM846.667 3363.52C846.667 3365.52 845.467 3365.92 839.867 3365.92C834.133 3365.92 833.2 3365.65 833.867 3363.52C834.267 3362.32 835.867 3356.72 837.467 3351.25L840.533 3341.25L843.6 3351.25C845.333 3356.72 846.667 3362.32 846.667 3363.52Z" fill="black"/>
<path d="M973.467 3323.78C971.867 3330.32 968.933 3333.65 966.4 3331.65C965.467 3330.85 963.6 3329.92 962.267 3329.52C960 3328.72 959.867 3329.12 960.667 3334.18C961.2 3337.38 962.267 3340.72 962.933 3341.52C963.733 3342.45 964 3344.45 963.6 3345.92C963.2 3347.38 963.467 3348.58 964.133 3348.58C964.8 3348.58 965.333 3349.52 965.333 3350.58C965.333 3353.92 963.067 3352.85 958.267 3347.25L953.6 3341.78L952.8 3345.25C951.867 3349.12 950.933 3349.25 942.4 3346.72C936.667 3344.85 936.267 3344.98 936.933 3346.98C937.333 3348.18 938.267 3349.92 938.933 3350.85C939.6 3351.65 940.667 3354.05 941.2 3356.18C942 3359.25 941.733 3360.32 939.2 3362.05L936 3364.05L946 3373.78C953.067 3380.58 956 3384.45 956 3386.72V3389.92H978H1000L998.667 3386.72C997.6 3383.92 998.533 3382.58 1007.07 3374.32C1016.4 3365.25 1016.53 3364.98 1014 3362.85C1012.27 3361.38 1011.87 3360.32 1012.8 3359.65C1014 3358.72 1017.6 3347.12 1016.93 3346.32C1016.67 3346.18 1014 3346.72 1010.8 3347.38C1005.87 3348.45 1004.8 3348.32 1003.33 3346.32C1001.6 3344.05 1001.2 3344.18 996.667 3348.58L991.733 3353.25L992.667 3340.85C993.6 3329.12 993.6 3328.58 991.2 3329.38C989.733 3329.92 988 3330.85 987.067 3331.52C985.6 3332.72 983.467 3330.05 979.733 3321.52C977.333 3316.32 975.2 3317.12 973.467 3323.78Z" fill="#E90506"/>
<path d="M1162.67 3353.92V3389.92H1174H1185.33V3370.99V3352.19L1196.4 3370.72L1207.47 3389.25L1219.07 3389.65L1230.67 3390.05L1230.4 3354.32L1230 3318.59L1219.07 3318.19L1208 3317.79V3338.05V3358.32L1204.4 3351.65C1202.27 3347.92 1197.07 3338.85 1192.67 3331.39L1184.67 3317.92H1173.73H1162.67V3353.92Z" fill="black"/>
<path d="M1238.67 3327.92V3337.92H1248.67H1258.67V3363.92V3389.92H1270.67H1282.67V3363.92V3337.92H1292.67H1302.67V3327.92V3317.92H1270.67H1238.67V3327.92Z" fill="black"/>
<path d="M1323.87 3321.52C1321.6 3327.39 1300 3388.85 1300 3389.39C1300 3389.65 1305.07 3389.92 1311.2 3389.92H1322.27L1323.47 3385.52L1324.8 3381.25L1336.27 3380.85L1347.87 3380.45L1349.07 3384.85L1350.13 3389.25L1361.73 3389.65L1373.33 3390.05L1364.53 3364.99C1359.73 3351.25 1354.13 3335.12 1352.13 3329.25L1348.4 3318.59L1336.93 3318.19C1325.33 3317.79 1325.33 3317.79 1323.87 3321.52ZM1342.67 3363.52C1342.67 3365.52 1341.47 3365.92 1335.87 3365.92C1330.13 3365.92 1329.2 3365.65 1329.87 3363.52C1330.27 3362.32 1331.87 3356.72 1333.47 3351.25L1336.53 3341.25L1339.6 3351.25C1341.33 3356.72 1342.67 3362.32 1342.67 3363.52Z" fill="black"/>
<path d="M1380 3353.78V3389.92H1391.33H1402.67V3377.92V3365.92H1410.4C1414.67 3365.92 1418.8 3366.58 1419.73 3367.52C1420.67 3368.45 1421.33 3371.52 1421.33 3374.45C1421.33 3377.52 1421.73 3382.18 1422.13 3384.85L1423.07 3389.92H1434.93C1445.87 3389.92 1446.8 3389.65 1445.87 3387.52C1445.33 3386.32 1444.53 3380.72 1444 3375.25C1443.07 3364.18 1441.33 3359.92 1437.33 3358.58C1433.87 3357.52 1434 3355.78 1437.47 3353.92C1443.47 3350.72 1445.73 3338.05 1442 3329.12C1440.53 3325.65 1438.53 3323.78 1433.73 3321.52C1428.13 3318.98 1424.53 3318.58 1403.73 3318.18L1380 3317.65V3353.78ZM1421.47 3338.05C1423.07 3340.72 1422.93 3345.12 1421.07 3346.98C1420.13 3347.92 1415.87 3348.58 1411.07 3348.58H1402.67V3341.78V3334.85L1411.47 3335.65C1416.8 3336.05 1420.8 3336.98 1421.47 3338.05Z" fill="black"/>
<path d="M1456 3353.92V3389.92H1468H1480L1479.73 3354.18L1479.33 3318.58L1467.73 3318.18L1456 3317.78V3353.92Z" fill="black"/>
<path d="M1647.33 3321.52C1646.93 3323.65 1645.47 3326.72 1644.13 3328.45C1641.87 3331.38 1641.33 3331.52 1637.33 3330.18L1633.07 3328.58L1633.87 3332.98C1634.4 3335.25 1635.07 3339.65 1635.6 3342.58C1636 3345.52 1636.93 3348.58 1637.6 3349.52C1638.27 3350.45 1638.27 3351.38 1637.47 3351.78C1636.8 3352.18 1634.13 3350.18 1631.6 3347.25C1626.93 3341.65 1625.33 3340.85 1625.33 3343.52C1625.2 3347.92 1623.33 3348.58 1616.4 3346.72L1609.6 3344.85L1612.13 3352.18C1614.67 3359.78 1614.53 3361.92 1611.2 3361.92C1607.87 3361.92 1609.07 3363.78 1619.33 3373.92C1626 3380.45 1629.33 3384.85 1629.33 3386.85C1629.33 3389.92 1629.33 3389.92 1651.33 3389.92C1663.47 3389.92 1673.33 3389.52 1673.33 3389.12C1673.33 3388.72 1672.8 3387.38 1672 3386.05C1670.93 3384.05 1672.53 3381.92 1680.8 3373.92C1689.07 3365.78 1690.4 3364.05 1688.67 3362.72C1686.93 3361.38 1686.93 3360.45 1688.67 3353.92C1689.73 3349.92 1690.4 3346.45 1690.13 3346.18C1689.87 3345.92 1687.07 3346.45 1684 3347.25C1678.27 3348.85 1677.6 3348.58 1675.47 3343.92C1675.07 3343.12 1672.67 3344.98 1670 3347.92L1665.07 3353.25L1666 3340.85L1667.07 3328.45L1663.33 3329.92C1660 3331.25 1659.2 3330.98 1656.4 3327.65C1654.8 3325.65 1652.93 3322.58 1652.53 3320.85C1651.33 3316.72 1648.4 3317.12 1647.33 3321.52Z" fill="#E90506"/>
<path d="M1835.33 3319.52C1834.93 3320.45 1833.2 3325.38 1831.47 3330.58C1829.73 3335.65 1824.4 3351.12 1819.47 3364.85L1810.8 3389.92H1822H1833.07L1834.67 3385.25L1836.27 3380.45L1847.73 3380.85L1859.2 3381.25L1860.27 3385.52L1861.47 3389.92H1872.67C1878.93 3389.92 1884 3389.52 1883.87 3388.85C1883.87 3388.32 1878.27 3372.32 1871.6 3353.25L1859.33 3318.58L1847.6 3318.18C1839.07 3317.92 1835.73 3318.32 1835.33 3319.52ZM1851.33 3354.05C1853.07 3360.18 1854.27 3365.38 1854.13 3365.65C1853.87 3365.92 1850.67 3365.92 1847.07 3365.65L1840.4 3365.25L1843.73 3353.52C1845.6 3347.12 1847.33 3342.05 1847.6 3342.32C1847.87 3342.58 1849.47 3347.92 1851.33 3354.05Z" fill="black"/>
<path d="M1890.67 3353.92V3389.92H1902H1913.33V3370.99V3352.19L1924.4 3370.72L1935.47 3389.25L1947.07 3389.65L1958.67 3390.05L1958.4 3354.32L1958 3318.59L1947.07 3318.19L1936 3317.79V3338.05V3358.32L1932.4 3351.65C1930.27 3347.92 1925.07 3338.85 1920.67 3331.39L1912.67 3317.92H1901.73H1890.67V3353.92Z" fill="black"/>
<path d="M1989.2 3321.52C1986.93 3327.39 1965.33 3388.85 1965.33 3389.39C1965.33 3389.65 1970.4 3389.92 1976.53 3389.92H1987.6L1988.8 3385.52L1990.13 3381.25L2001.6 3380.85L2013.2 3380.45L2014.4 3384.85L2015.47 3389.25L2027.07 3389.65L2038.67 3390.05L2029.87 3364.99C2025.07 3351.25 2019.47 3335.12 2017.47 3329.25L2013.73 3318.59L2002.27 3318.19C1990.67 3317.79 1990.67 3317.79 1989.2 3321.52ZM2008 3363.52C2008 3365.52 2006.8 3365.92 2001.2 3365.92C1995.47 3365.92 1994.53 3365.65 1995.2 3363.52C1995.6 3362.32 1997.2 3356.72 1998.8 3351.25L2001.87 3341.25L2004.93 3351.25C2006.67 3356.72 2008 3362.32 2008 3363.52Z" fill="black"/>
<path d="M2045.33 3354.05V3390.19L2067.73 3389.65C2087.6 3389.25 2090.53 3388.85 2095.6 3386.32C2106.8 3380.32 2112.67 3368.85 2112.53 3353.25C2112.27 3340.72 2109.87 3334.05 2102.8 3327.12C2095.07 3319.25 2089.2 3317.92 2064 3317.92H2045.33V3354.05ZM2084.8 3339.65C2087.87 3342.32 2088.53 3344.19 2089.07 3350.99C2090.13 3366.45 2086.93 3371.25 2075.33 3371.25H2068V3353.92V3336.59H2074.53C2079.6 3336.59 2082 3337.39 2084.8 3339.65Z" fill="black"/>
<path d="M2139.87 3321.52C2137.6 3327.39 2116 3388.85 2116 3389.39C2116 3389.65 2121.07 3389.92 2127.2 3389.92H2138.27L2139.47 3385.52L2140.8 3381.25L2152.27 3380.85L2163.87 3380.45L2165.07 3384.85L2166.13 3389.25L2177.73 3389.65L2189.33 3390.05L2180.53 3364.99C2175.73 3351.25 2170.13 3335.12 2168.13 3329.25L2164.4 3318.59L2152.93 3318.19C2141.33 3317.79 2141.33 3317.79 2139.87 3321.52ZM2158.67 3363.52C2158.67 3365.52 2157.47 3365.92 2151.87 3365.92C2146.13 3365.92 2145.2 3365.65 2145.87 3363.52C2146.27 3362.32 2147.87 3356.72 2149.47 3351.25L2152.53 3341.25L2155.6 3351.25C2157.33 3356.72 2158.67 3362.32 2158.67 3363.52Z" fill="black"/>
<path d="M822.267 3102.85C817.467 3108.32 818.534 3124.32 824 3127.25C828.534 3129.65 832.934 3128.72 836 3124.85C838.4 3121.78 838.8 3119.92 838.4 3113.12C838.134 3108.58 837.067 3103.92 836.134 3102.72C833.734 3099.78 825.067 3099.92 822.267 3102.85Z" fill="#E90506"/>
<path d="M2029.33 3089.12V3097.92H2036.53C2047.87 3097.92 2050.67 3096.32 2050.67 3090.05C2050.67 3083.25 2048.53 3081.78 2038 3080.85L2029.33 3080.18V3089.12Z" fill="#E90506"/>
<path d="M280.267 3097.52C278.8 3098.85 277.2 3101.25 276.667 3102.85C275.867 3105.92 276 3105.92 286.533 3105.92C296.267 3105.92 297.333 3105.65 297.333 3103.38C297.333 3099.92 291.2 3095.25 286.667 3095.25C284.667 3095.25 281.733 3096.32 280.267 3097.52Z" fill="#E90506"/>
<path d="M368.667 3120.18C360.533 3122.58 358.667 3124.05 358.667 3128.05C358.667 3131.78 362.4 3133.25 368.8 3132.05C373.867 3130.98 376.4 3127.52 375.733 3122.05L375.333 3118.32L368.667 3120.18Z" fill="#E90506"/>
<path d="M666 3120.18C657.867 3122.58 656 3124.05 656 3128.05C656 3131.78 659.733 3133.25 666.133 3132.05C671.2 3130.98 673.733 3127.52 673.067 3122.05L672.667 3118.32L666 3120.18Z" fill="#E90506"/>
<path d="M1196.27 3097.52C1194.8 3098.85 1193.2 3101.25 1192.67 3102.85C1191.87 3105.92 1192 3105.92 1202.53 3105.92C1212.27 3105.92 1213.33 3105.65 1213.33 3103.38C1213.33 3099.92 1207.2 3095.25 1202.67 3095.25C1200.67 3095.25 1197.73 3096.32 1196.27 3097.52Z" fill="#E90506"/>
<path d="M1780.27 3097.52C1778.8 3098.85 1777.2 3101.25 1776.67 3102.85C1775.87 3105.92 1776 3105.92 1786.53 3105.92C1796.27 3105.92 1797.33 3105.65 1797.33 3103.38C1797.33 3099.92 1791.2 3095.25 1786.67 3095.25C1784.67 3095.25 1781.73 3096.32 1780.27 3097.52Z" fill="#E90506"/>
</svg>
