<svg width="100" height="70" viewBox="0 0 100 70" fill="none" xmlns="http://www.w3.org/2000/svg">
<path d="M50.5991 10.4368C50.5991 17.9382 50.6832 21.3252 50.9073 21.4506C51.0754 21.5259 51.4396 22.1029 51.7478 22.7301C52.1681 23.6082 52.1961 23.9594 51.9719 24.3609C51.7198 24.7874 51.7758 24.963 52.2241 25.3895C52.9805 26.0669 53.4288 25.8411 54.1853 24.4612C54.9417 23.1315 55.418 18.992 54.8297 18.6909C54.6616 18.5905 54.5215 18.1891 54.5215 17.7877C54.5215 17.3863 54.3814 16.9849 54.2133 16.9096C54.0732 16.8093 53.8211 16.458 53.653 16.1068C53.3448 15.3792 53.681 14.7019 54.6616 14.1248C55.2499 13.7736 55.39 13.7736 56.1745 14.1248C57.1551 14.6015 57.4352 15.2287 57.1551 16.3577C56.8749 17.5117 56.7908 18.5655 56.6788 21.551C56.6227 23.0061 56.3706 25.0884 56.1184 26.1923C55.8383 27.2962 55.39 29.6043 55.0818 31.3354C54.7736 33.0665 54.4654 34.6972 54.4094 34.9732C54.3254 35.2492 54.5775 36.2527 54.9417 37.2311C55.334 38.1845 55.6421 39.2884 55.6421 39.6647C55.6421 40.0661 55.7542 40.3672 55.8943 40.3672C56.0064 40.3672 56.9589 40.016 57.9956 39.6145C59.3684 39.0375 60.4891 38.8117 62.1701 38.6863C64.4114 38.5357 64.4955 38.4856 66.1484 37.2813C67.073 36.6039 68.6419 35.6757 69.6505 35.2492C71.2755 34.5718 71.7518 34.4965 74.1332 34.4714C76.5427 34.4714 76.9629 34.5467 78.6159 35.2492C79.6245 35.6757 81.1094 36.5789 81.9219 37.2311L83.4348 38.4354L85.5361 36.5538L87.6373 34.6721L85.2279 33.4428C83.9111 32.7654 82.8184 32.1633 82.8184 32.088C82.8184 32.0128 83.3788 29.5541 84.0512 26.6188L85.2559 21.2499L83.5469 21.4255C82.5943 21.5259 80.1288 21.8771 78.0556 22.2033C75.9823 22.5294 74.2173 22.705 74.1332 22.6047C74.0212 22.5043 73.5449 21.551 73.0126 20.4722C72.5083 19.4185 72.004 18.5404 71.8639 18.5404C71.7518 18.5404 70.0988 20.0958 68.1937 21.9775C63.767 26.3679 62.6463 27.4216 62.6463 27.1707C62.6744 26.4934 63.5709 17.7125 64.0752 13.5478C64.3834 10.8884 64.6075 8.65558 64.5515 8.63049C64.4955 8.58031 63.0386 9.15734 61.2735 9.90999C59.5365 10.6877 58.0796 11.2648 58.0236 11.2146C57.9395 11.1393 55.8383 7.90293 54.3814 5.61989C54.0452 5.06795 53.2607 3.8888 52.7004 2.98562C52.112 2.08244 51.3836 0.953467 51.1034 0.476789C50.5991 -0.376213 50.5991 -0.200595 50.5991 10.4368Z" fill="#222222"/>
<path d="M47.9935 2.18268C44.8276 7.40104 42.25 11.1392 41.8858 11.0639C41.6617 11.0138 40.2608 10.4618 38.7479 9.83461C37.235 9.2074 35.9182 8.7809 35.8342 8.85617C35.6661 8.98161 36.0583 13.0459 37.4031 25.3894C37.5152 26.4431 37.5152 27.2961 37.4312 27.271C37.235 27.1706 34.3773 24.4109 30.9873 20.9989C29.2783 19.2678 28.2697 18.4399 28.1296 18.6155C28.0175 18.7911 27.5132 19.7696 27.0369 20.7982C26.5606 21.8268 26.1124 22.7049 26.0843 22.7551C26.0283 22.8053 24.1792 22.5544 21.9939 22.2031C16.9229 21.4254 15.0177 21.1996 15.0177 21.4254C15.0177 21.5007 15.522 23.859 16.1664 26.6438C16.7828 29.4286 17.3151 31.812 17.3431 31.9374C17.3991 32.1632 17.091 32.3388 14.3453 33.7939C13.4768 34.2706 12.7764 34.6971 12.7764 34.7975C12.7764 34.8727 13.6729 35.7007 14.7936 36.6038L16.8108 38.2847L18.4918 37.0052C21.0974 35.0233 22.7223 34.4713 25.9443 34.4713C28.3257 34.4713 28.802 34.5466 30.427 35.224C31.4356 35.6254 33.0045 36.5537 33.9571 37.2561C35.6101 38.5356 35.6661 38.5356 37.8794 38.6611C40.485 38.8116 43.0625 39.6646 44.8836 40.9943L46.0883 41.8975L46.2564 40.9441C46.3405 40.4173 46.6767 39.2632 46.9569 38.36C47.8254 35.6756 48.1336 33.6183 47.9375 32.0378C47.8254 31.2349 47.6573 30.5826 47.5732 30.5826C47.4612 30.6077 46.9288 31.2349 46.3965 32.0127C45.2478 33.6434 44.0431 34.4462 43.2586 34.0699C42.9785 33.9445 42.3061 33.0162 41.7457 32.0378C41.1854 31.0593 40.569 30.0809 40.3449 29.9053C40.1208 29.7045 39.9527 29.4286 39.9527 29.278C39.9527 29.1526 39.6445 28.701 39.2522 28.2745C38.3277 27.2961 38.3277 26.2424 39.2803 25.5901C40.1768 24.9629 41.1574 24.9127 41.7738 25.4897C42.138 25.8159 42.222 26.1922 42.11 27.0452C41.9138 28.6257 42.2781 30.2816 43.0065 30.9088L43.5948 31.4356L44.5194 30.4572C44.9957 29.9053 45.6401 29.0272 45.9202 28.4752C46.5926 27.1205 47.125 26.6187 48.1336 26.4431C48.7499 26.3176 48.918 26.1671 48.7499 25.866C47.5732 23.3572 47.5452 22.73 48.6379 21.7516L49.4784 20.9989L49.4223 10.512L49.3383 -4.72367e-06L47.9935 2.18268Z" fill="url(#paint0_linear_14_288)"/>
<path d="M71.3315 35.6755C67.7454 36.8045 65.392 38.5105 64.0752 40.944C62.5062 43.8292 64.6635 47.3917 67.9415 47.3917C70.1828 47.3917 75.8422 44.8829 77.0189 43.3776C77.4112 42.8758 77.4392 42.8758 77.5513 43.3023C77.6353 43.7037 77.7194 43.7037 78.3637 43.1016C78.756 42.7504 79.1482 42.2988 79.2323 42.0981C79.3163 41.8974 79.4564 41.797 79.5404 41.8974C79.6525 41.9726 79.5124 42.4242 79.2323 42.8758C78.8961 43.503 78.1956 44.0299 76.7108 44.7575C73.2647 46.4635 71.2475 48.1444 72.6483 48.1444C73.4608 48.1444 77.6073 50.0762 78.4198 50.8288C81.0534 53.3377 80.9133 59.3839 78.0556 64.6274C77.4392 65.7564 76.9349 66.7348 76.9349 66.8352C76.9349 66.9104 77.2711 66.7599 77.6913 66.5341C78.3077 66.1578 79.2042 66.0574 82.3141 66.0072C85.396 65.932 86.1804 65.8316 86.1804 65.5557C86.1804 65.0539 86.6847 65.1292 86.9929 65.6811C87.4692 66.4337 88.842 66.7097 92.2601 66.7097C97.6113 66.7097 99.0121 66.0825 99.6005 63.3981C99.7406 62.6705 99.9087 58.7818 99.9647 54.7426C100.049 47.6928 100.021 47.4168 99.4604 46.7394C98.3117 45.3345 97.6113 45.0585 94.6695 44.908C90.7192 44.6822 88.8981 44.908 87.4972 45.8112C86.4326 46.4635 86.2925 46.7143 85.8162 48.3953C85.2279 50.5027 85.0317 56.6744 85.424 59.9359C85.7602 62.4949 85.424 62.0433 84.8076 59.0327C83.6869 53.7892 83.827 49.1479 85.1438 46.2126L85.8162 44.7324L85.1718 44.3059C84.8076 44.0801 83.9951 42.9009 83.3227 41.7218C82.3982 40.0659 81.6977 39.2129 80.3249 38.084C77.047 35.3744 74.4974 34.697 71.3315 35.6755Z" fill="#222222"/>
<path d="M23.8709 35.7258C22.5261 36.1523 20.2007 37.5572 19.024 38.6611C18.5477 39.1127 17.6232 40.4173 16.9788 41.5463C16.3344 42.6502 15.4378 43.8795 15.0176 44.2558L14.2331 44.9081L14.7374 45.8364C15.746 47.6929 15.9702 48.9724 15.9702 52.6604C15.9702 55.0689 15.8021 57.0759 15.4659 58.6063C14.9335 61.0901 14.2892 61.8929 14.6534 59.6099C15.0456 57.1261 14.8775 51.1802 14.3452 49.0226C13.4487 45.4851 12.0198 44.7325 6.38842 44.9332C2.80227 45.0586 1.73763 45.3848 0.785059 46.5639C-0.0554452 47.6176 -0.111479 48.6714 0.112656 56.4236C0.33679 63.072 0.392824 63.6742 0.953159 64.7279C1.31738 65.3802 1.87771 66.0074 2.29797 66.183C3.55872 66.6848 7.20091 67.0109 9.66638 66.8353C11.7676 66.6848 12.1319 66.5844 12.8323 65.9572C13.4206 65.4303 13.6728 65.33 13.8129 65.5809C13.981 65.8067 15.0736 65.9321 17.6792 66.0074C20.3968 66.0826 21.5455 66.2081 22.2459 66.5342C22.7222 66.7851 23.1425 66.9105 23.1425 66.8102C23.1425 66.7349 22.7222 65.9572 22.1899 65.1293C20.4809 62.2943 19.9205 60.212 19.9205 56.6745C19.9205 53.8646 19.9766 53.413 20.5929 52.4095C20.9572 51.7823 21.5735 51.0297 21.9938 50.7035C22.8063 50.0512 26.9808 48.1445 27.5411 48.1445C27.7372 48.1445 27.9053 48.0441 27.9053 47.8936C27.9053 47.4922 24.7955 45.3848 23.2265 44.7576C21.4054 44.03 20.621 43.3025 20.621 42.4244L20.649 41.747L21.0692 42.4244C21.5455 43.2272 22.5821 43.8293 22.5821 43.3275C22.5821 43.177 23.0024 43.3777 23.5067 43.7791C23.983 44.2056 25.0756 44.9081 25.8881 45.3848C31.6876 48.6212 35.8061 47.8936 36.4504 43.5032C36.6185 42.3993 36.5345 42.0731 35.75 40.7435C34.6294 38.8117 33.7608 38.0088 31.6596 36.9551C28.5497 35.3996 26.0842 34.9982 23.8709 35.7258Z" fill="url(#paint1_linear_14_288)"/>
<path d="M60.4046 40.2416C57.771 40.5427 56.5663 41.0445 55.0253 42.5748C53.5404 44.0551 52.9521 45.1088 52.3357 47.3918C49.9543 56.1476 51.3551 61.8427 57.0145 66.5091C61.6093 70.2723 68.0251 71.0752 73.0962 68.5162C74.9733 67.5879 76.4302 65.8819 77.5228 63.348C79.1758 59.5095 79.1758 56.5992 77.4948 53.4883C75.8978 50.5028 73.2643 49.0727 66.8484 47.7681C64.6071 47.3165 61.7774 46.6893 60.5446 46.3883C59.1438 46.037 57.855 45.8865 57.0986 45.9618C56.202 46.037 55.9499 46.0119 56.174 45.8112C56.3421 45.6607 57.2947 45.4851 58.3033 45.4349C59.3119 45.3847 60.1244 45.2342 60.1244 45.1339C60.1244 44.883 59.2278 44.2307 58.6115 44.03C58.3313 43.9547 58.1632 43.8042 58.2473 43.7289C58.6115 43.4028 59.9283 43.9296 61.0489 44.8579C62.5338 46.037 63.5144 46.6392 63.9907 46.6392C64.2148 46.6392 64.1588 46.4384 63.7666 46.0872C63.1502 45.4851 62.3657 43.4279 62.3657 42.3992C62.3657 42.0229 62.4778 41.3455 62.6459 40.8939C62.786 40.4173 62.898 40.0158 62.842 39.9908C62.814 39.9657 61.7213 40.0911 60.4046 40.2416Z" fill="#222222"/>
<path d="M37.487 41.0695C37.8792 42.349 37.571 44.2306 36.7585 45.5352C36.3943 46.1374 36.1422 46.6391 36.1982 46.6391C36.5904 46.6391 37.7111 45.9617 38.8878 45.0084C40.1766 43.9547 41.4934 43.478 41.8016 43.9045C41.8856 44.0299 41.7735 44.1303 41.5494 44.1303C41.3533 44.1303 40.877 44.4063 40.5128 44.7575L39.8684 45.3847H41.2412C44.4071 45.3847 44.7713 46.0119 41.7175 46.2126C40.5128 46.2879 38.8318 46.5639 37.9913 46.8398C37.1508 47.1158 34.8254 47.6427 32.8082 48.019C26.6725 49.173 24.235 50.5278 22.554 53.714C20.901 56.9253 21.0691 60.6384 23.0583 64.4267C25.0475 68.19 27.6811 69.7204 32.3599 69.9211C37.515 70.1469 41.0451 68.7921 44.4632 65.3299C46.1161 63.6741 47.0967 62.1688 47.9653 60.0614C48.7217 58.2048 48.7777 57.8034 48.7777 54.5419C48.7497 51.5815 48.6377 50.6031 47.9933 48.32C47.0687 45.0084 46.4523 43.8794 44.6873 42.349C43.1183 40.9943 41.6895 40.4674 39.0559 40.2667L37.2068 40.1413L37.487 41.0695Z" fill="url(#paint2_linear_14_288)"/>
<defs>
<linearGradient id="paint0_linear_14_288" x1="12.7764" y1="20.9487" x2="49.4784" y2="20.9487" gradientUnits="userSpaceOnUse">
<stop stop-color="#E90506"/>
<stop offset="1" stop-color="#F22952"/>
</linearGradient>
<linearGradient id="paint1_linear_14_288" x1="0" y1="51.1291" x2="36.5226" y2="51.1291" gradientUnits="userSpaceOnUse">
<stop stop-color="#E90506"/>
<stop offset="1" stop-color="#F22952"/>
</linearGradient>
<linearGradient id="paint2_linear_14_288" x1="21.4287" y1="55.0432" x2="48.7777" y2="55.0432" gradientUnits="userSpaceOnUse">
<stop stop-color="#E90506"/>
<stop offset="1" stop-color="#F22952"/>
</linearGradient>
</defs>
</svg>
