<svg width="2608" height="3397" viewBox="0 0 2608 3397" fill="none" xmlns="http://www.w3.org/2000/svg">
<path d="M1321.25 304.554C1321.25 523.453 1323.44 622.286 1329.27 625.947C1333.65 628.143 1343.13 644.982 1351.16 663.284C1362.1 688.908 1362.83 699.157 1356.99 710.871C1350.43 723.316 1351.88 728.441 1363.55 740.887C1383.25 760.654 1394.92 754.065 1414.61 713.799C1434.3 674.998 1446.7 554.201 1431.39 545.416C1427.01 542.487 1423.36 530.774 1423.36 519.06C1423.36 507.346 1419.72 495.633 1415.34 493.437C1411.69 490.508 1405.13 480.259 1400.75 470.009C1392.73 448.778 1401.48 429.012 1427.01 412.173C1442.33 401.924 1445.97 401.924 1466.4 412.173C1491.92 426.083 1499.22 444.386 1491.92 477.33C1484.63 511.007 1482.44 541.755 1479.52 628.875C1478.07 671.337 1471.5 732.102 1464.94 764.314C1457.64 796.527 1445.97 863.88 1437.95 914.395C1429.93 964.91 1421.9 1012.5 1420.45 1020.55C1418.26 1028.6 1424.82 1057.89 1434.3 1086.44C1444.51 1114.26 1452.54 1146.47 1452.54 1157.45C1452.54 1169.17 1455.45 1177.95 1459.1 1177.95C1462.02 1177.95 1486.82 1167.7 1513.8 1155.99C1549.54 1139.15 1578.72 1132.56 1622.48 1128.9C1680.83 1124.51 1683.02 1123.04 1726.05 1087.9C1750.12 1068.14 1790.96 1041.05 1817.22 1028.6C1859.52 1008.84 1871.92 1006.64 1933.92 1005.91C1996.65 1005.91 2007.59 1008.1 2050.62 1028.6C2076.88 1041.05 2115.53 1067.4 2136.68 1086.44L2176.07 1121.58L2230.77 1066.67L2285.47 1011.76L2222.75 975.892C2188.47 956.125 2160.02 938.554 2160.02 936.358C2160.02 934.162 2174.61 862.416 2192.12 776.76L2223.48 620.09L2178.99 625.215C2154.19 628.143 2090 638.393 2036.03 647.91C1982.06 657.427 1936.11 662.552 1933.92 659.624C1931 656.695 1918.6 628.875 1904.74 597.395C1891.62 566.647 1878.49 541.023 1874.84 541.023C1871.92 541.023 1828.89 586.413 1779.29 641.321C1664.05 769.439 1634.88 800.187 1634.88 792.866C1635.61 773.099 1658.95 516.864 1672.08 395.335C1680.1 317.732 1685.93 252.575 1684.48 251.843C1683.02 250.379 1645.09 267.217 1599.14 289.18C1553.92 311.875 1515.99 328.714 1514.53 327.249C1512.35 325.053 1457.64 230.612 1419.72 163.991C1410.96 147.884 1390.54 113.476 1375.95 87.1201C1360.64 60.7645 1341.67 27.8198 1334.38 13.9099C1321.25 -10.9815 1321.25 -5.85687 1321.25 304.554Z" fill="black"/>
<path d="M1253.42 63.6923C1171 215.969 1103.9 325.053 1094.42 322.856C1088.58 321.392 1052.12 305.286 1012.73 286.983C973.344 268.681 939.064 256.235 936.876 258.431C932.499 262.092 942.711 380.692 977.72 740.886C980.638 771.635 980.638 796.526 978.449 795.794C973.344 792.866 898.948 712.334 810.695 612.769C766.204 562.254 739.946 538.094 736.3 543.219C733.382 548.344 720.254 576.896 707.854 606.912C695.455 636.928 683.785 662.552 683.056 664.016C681.597 665.48 633.459 658.159 576.568 647.91C444.553 625.214 394.956 618.625 394.956 625.214C394.956 627.411 408.085 696.228 424.86 777.492C440.906 858.755 454.764 928.304 455.493 931.965C456.952 938.554 448.929 943.679 377.451 986.141C354.841 1000.05 336.607 1012.5 336.607 1015.42C336.607 1017.62 359.946 1041.78 389.121 1068.14L441.635 1117.19L485.397 1079.85C553.229 1022.01 595.532 1005.91 679.409 1005.91C741.405 1005.91 753.804 1008.1 796.108 1027.87C822.365 1039.58 863.21 1066.67 888.008 1087.17C931.041 1124.51 932.499 1124.51 990.119 1128.17C1057.95 1132.56 1125.05 1157.45 1172.46 1196.25L1203.82 1222.61L1208.2 1194.79C1210.39 1179.42 1219.14 1145.74 1226.43 1119.38C1249.04 1041.05 1257.07 981.016 1251.96 934.893C1249.04 911.466 1244.67 892.431 1242.48 892.431C1239.56 893.164 1225.7 911.466 1211.85 934.161C1181.94 981.748 1150.58 1005.18 1130.16 994.194C1122.86 990.533 1105.36 963.445 1090.77 934.893C1076.18 906.341 1060.14 877.789 1054.3 872.665C1048.47 866.808 1044.09 858.755 1044.09 854.362C1044.09 850.702 1036.07 837.524 1025.86 825.078C1001.79 796.526 1001.79 765.778 1026.59 746.743C1049.93 728.441 1075.46 726.976 1091.5 743.815C1100.98 753.332 1103.17 764.314 1100.25 789.205C1095.15 835.328 1104.63 883.646 1123.59 901.949L1138.91 917.323L1162.98 888.771C1175.38 872.665 1192.15 847.041 1199.45 830.935C1216.95 791.401 1230.81 776.759 1257.07 771.635C1273.11 767.974 1277.49 763.582 1273.11 754.796C1242.48 681.586 1241.75 663.284 1270.2 634.732L1292.08 612.769L1290.62 306.75L1288.43 -0.000528216L1253.42 63.6923Z" fill="#E90506"/>
<path d="M1860.98 1041.05C1767.62 1073.99 1706.36 1123.77 1672.08 1194.79C1631.23 1278.98 1687.39 1382.94 1772.73 1382.94C1831.08 1382.94 1978.41 1309.73 2009.05 1265.8C2019.26 1251.16 2019.99 1251.16 2022.9 1263.61C2025.09 1275.32 2027.28 1275.32 2044.05 1257.75C2054.27 1247.5 2064.48 1234.32 2066.67 1228.47C2068.85 1222.61 2072.5 1219.68 2074.69 1222.61C2077.61 1224.81 2073.96 1237.98 2066.67 1251.16C2057.91 1269.46 2039.68 1284.84 2001.02 1306.07C1911.31 1355.85 1858.8 1404.9 1895.26 1404.9C1916.42 1404.9 2024.36 1461.27 2045.51 1483.24C2114.07 1556.45 2110.43 1732.88 2036.03 1885.89C2019.99 1918.84 2006.86 1947.39 2006.86 1950.32C2006.86 1952.51 2015.61 1948.12 2026.55 1941.53C2042.6 1930.55 2065.94 1927.62 2146.9 1926.16C2227.13 1923.96 2247.55 1921.03 2247.55 1912.98C2247.55 1898.34 2260.68 1900.53 2268.7 1916.64C2281.1 1938.6 2316.84 1946.66 2405.82 1946.66C2545.13 1946.66 2581.6 1928.35 2596.91 1850.02C2600.56 1828.79 2604.94 1715.31 2606.4 1597.44C2608.58 1391.72 2607.86 1383.67 2593.27 1363.9C2563.36 1322.91 2545.13 1314.85 2468.55 1310.46C2365.71 1303.87 2318.3 1310.46 2281.83 1336.82C2254.11 1355.85 2250.47 1363.17 2238.07 1412.22C2222.75 1473.72 2217.64 1653.82 2227.86 1748.99C2236.61 1823.66 2227.86 1810.49 2211.81 1722.63C2182.63 1569.62 2186.28 1434.19 2220.56 1348.53L2238.07 1305.34L2221.29 1292.89C2211.81 1286.3 2190.66 1251.89 2173.15 1217.48C2149.08 1169.17 2130.85 1144.27 2095.11 1111.33C2009.77 1032.26 1943.4 1012.5 1860.98 1041.05Z" fill="black"/>
<path d="M625.436 1042.51C590.426 1054.96 529.889 1095.96 499.255 1128.17C486.856 1141.35 462.787 1179.42 446.012 1212.36C429.236 1244.57 405.896 1280.45 394.956 1291.43L374.534 1310.46L387.662 1337.55C413.92 1391.73 419.754 1429.06 419.754 1536.68C419.754 1606.96 415.378 1665.53 406.626 1710.19C392.768 1782.67 375.992 1806.09 385.474 1739.47C395.685 1667 391.309 1493.49 377.451 1430.53C354.111 1327.3 316.914 1305.34 170.311 1311.19C76.952 1314.85 49.2361 1324.37 24.4376 1358.78C2.55658 1389.53 1.09785 1420.28 6.93278 1646.5C12.7677 1840.5 14.2265 1858.07 28.8138 1888.82C38.2956 1907.86 52.8829 1926.16 63.8234 1931.28C96.6449 1945.93 191.463 1955.44 255.647 1950.32C310.349 1945.93 319.831 1943 338.065 1924.7C353.382 1909.32 359.946 1906.39 363.593 1913.71C367.969 1920.3 396.415 1923.96 464.246 1926.16C534.994 1928.36 564.898 1932.02 583.133 1941.53C595.532 1948.85 606.472 1952.52 606.472 1949.59C606.472 1947.39 595.532 1924.7 581.674 1900.54C537.183 1817.81 522.595 1757.04 522.595 1653.82C522.595 1571.82 524.054 1558.64 540.1 1529.36C549.582 1511.06 565.628 1489.09 576.568 1479.58C597.72 1460.54 706.396 1404.9 720.983 1404.9C726.089 1404.9 730.465 1401.97 730.465 1397.58C730.465 1385.87 649.505 1324.37 608.66 1306.07C561.252 1284.84 540.829 1263.61 540.829 1237.98L541.559 1218.22L552.499 1237.98C564.898 1261.41 591.885 1278.98 591.885 1264.34C591.885 1259.95 602.826 1265.8 615.954 1277.52C628.353 1289.96 656.799 1310.46 677.95 1324.37C828.929 1418.81 936.146 1397.58 952.922 1269.46C957.298 1237.25 955.11 1227.73 934.687 1188.93C905.513 1132.56 882.902 1109.13 828.2 1078.39C747.24 1033 683.056 1021.28 625.436 1042.51Z" fill="#E90506"/>
<path d="M1576.53 1174.29C1507.97 1183.08 1476.61 1197.72 1436.49 1242.38C1397.84 1285.57 1382.52 1316.32 1366.47 1382.94C1304.48 1638.44 1340.95 1804.63 1488.28 1940.8C1607.89 2050.62 1774.92 2074.04 1906.93 1999.37C1955.8 1972.28 1993.73 1922.5 2022.17 1848.56C2065.21 1736.54 2065.21 1651.62 2021.44 1560.84C1979.87 1473.72 1911.31 1431.99 1744.29 1393.92C1685.94 1380.74 1612.27 1362.44 1580.18 1353.66C1543.71 1343.41 1510.16 1339.01 1490.47 1341.21C1467.13 1343.41 1460.56 1342.67 1466.4 1336.82C1470.77 1332.42 1495.57 1327.3 1521.83 1325.84C1548.09 1324.37 1569.24 1319.98 1569.24 1317.05C1569.24 1309.73 1545.9 1290.69 1529.85 1284.84C1522.56 1282.64 1518.18 1278.25 1520.37 1276.05C1529.85 1266.54 1564.13 1281.91 1593.31 1309C1631.96 1343.41 1657.49 1360.98 1669.89 1360.98C1675.72 1360.98 1674.27 1355.12 1664.05 1344.87C1648.01 1327.3 1627.59 1267.27 1627.59 1237.25C1627.59 1226.27 1630.5 1206.5 1634.88 1193.32C1638.53 1179.41 1641.44 1167.7 1639.99 1166.97C1639.26 1166.24 1610.81 1169.9 1576.53 1174.29Z" fill="black"/>
<path d="M979.908 1198.45C990.119 1235.79 982.096 1290.69 960.944 1328.76C951.463 1346.33 944.898 1360.98 946.357 1360.98C956.568 1360.98 985.743 1341.21 1016.38 1313.39C1049.93 1282.64 1084.21 1268.73 1092.23 1281.18C1094.42 1284.84 1091.5 1287.76 1085.67 1287.76C1080.56 1287.76 1068.16 1295.82 1058.68 1306.07L1041.9 1324.37H1077.64C1160.06 1324.37 1169.54 1342.67 1090.04 1348.53C1058.68 1350.73 1014.92 1358.78 993.037 1366.83C971.156 1374.88 910.618 1390.26 858.104 1401.24C698.372 1434.92 634.917 1474.45 591.155 1567.43C548.123 1661.14 552.499 1769.49 604.284 1880.04C656.069 1989.85 724.63 2034.51 846.434 2040.37C980.637 2046.95 1072.54 2007.42 1161.52 1906.39C1204.55 1858.07 1230.08 1814.15 1252.69 1752.65C1272.38 1698.47 1273.84 1686.76 1273.84 1591.59C1273.11 1505.2 1270.2 1476.65 1253.42 1410.03C1229.35 1313.39 1213.31 1280.44 1167.36 1235.79C1126.51 1196.25 1089.31 1180.88 1020.75 1175.02L972.614 1171.36L979.908 1198.45Z" fill="#E90506"/>
<path d="M151.333 2134.8C68.5334 2143.2 22.2667 2177.07 7.86671 2239.87C4.40004 2254.8 2.93337 2292.4 5.33337 2308.13C11.2 2348.53 32.2667 2378.13 68.1334 2396.53C82.2667 2403.73 113.867 2414.13 141.6 2420.8C201.333 2434.93 218.133 2442.67 225.6 2459.73C228.933 2467.2 230.267 2484.4 228 2491.2C224.267 2502.67 215.867 2508.4 202.667 2508.27C179.6 2508.13 172.4 2497.87 170.8 2462.67L170 2444.67H88.6667H7.33337V2506.67V2568.67L24.6667 2577.6C83.0667 2607.6 137.6 2618.93 214 2616.93C307.067 2614.4 361.867 2588.67 385.6 2536.27C401.733 2500.8 403.733 2439.07 390.133 2399.73C380.4 2371.87 357.467 2348.53 324.667 2333.2C308.267 2325.47 292.667 2320.8 252 2311.07C208.267 2300.8 196.933 2297.2 186.667 2290.53C176.267 2283.87 172.8 2276.93 173.6 2264C173.867 2257.47 174.933 2253.73 176.8 2251.07C186.933 2237.2 215.6 2238.13 223.6 2252.67C227.067 2258.8 228.8 2266.8 230 2281.73L230.933 2292L308.4 2291.73L386 2291.33V2236.8V2182.13L367.333 2172.67C329.6 2153.47 294.4 2142.4 253.333 2136.53C236.533 2134.13 169.067 2132.93 151.333 2134.8Z" fill="black"/>
<path d="M2344.67 2134.8C2261.87 2143.2 2215.6 2177.07 2201.2 2239.87C2197.73 2254.8 2196.27 2292.4 2198.67 2308.13C2204.53 2348.53 2225.6 2378.13 2261.47 2396.53C2275.6 2403.73 2307.2 2414.13 2334.93 2420.8C2394.67 2434.93 2411.47 2442.67 2418.93 2459.73C2422.27 2467.2 2423.6 2484.4 2421.33 2491.2C2417.6 2502.67 2409.2 2508.4 2396 2508.27C2372.93 2508.13 2365.73 2497.87 2364.13 2462.67L2363.33 2444.67H2282H2200.67V2506.67V2568.67L2218 2577.6C2276.4 2607.6 2330.93 2618.93 2407.33 2616.93C2500.4 2614.4 2555.2 2588.67 2578.93 2536.27C2595.07 2500.8 2597.07 2439.07 2583.47 2399.73C2573.73 2371.87 2550.8 2348.53 2518 2333.2C2501.6 2325.47 2486 2320.8 2445.33 2311.07C2401.6 2300.8 2390.27 2297.2 2380 2290.53C2369.6 2283.87 2366.13 2276.93 2366.93 2264C2367.2 2257.47 2368.27 2253.73 2370.13 2251.07C2380.27 2237.2 2408.93 2238.13 2416.93 2252.67C2420.4 2258.8 2422.13 2266.8 2423.33 2281.73L2424.27 2292L2501.73 2291.73L2579.33 2291.33V2236.8V2182.13L2560.67 2172.67C2522.93 2153.47 2487.73 2142.4 2446.67 2136.53C2429.87 2134.13 2362.4 2132.93 2344.67 2134.8Z" fill="black"/>
<path d="M597.467 2136.13C521.867 2142.93 472.667 2173.33 457.467 2223.07C450 2247.73 450 2246.53 450 2378C450 2510.93 450 2510.27 458.133 2534.93C471.733 2576.27 516.533 2604.4 582.667 2613.33C613.467 2617.47 672.4 2617.2 705.333 2612.67C735.2 2608.53 764.133 2600.27 788.8 2588.67C801.867 2582.67 824.4 2569.87 831.733 2564.4L836 2561.2V2483.87V2406.67H753.333H670.667V2441.6C670.667 2481.07 669.467 2489.6 663.2 2496.13C654.4 2505.33 634.933 2504.53 625.733 2494.53C618.533 2486.67 618.667 2488.13 618.667 2373.47V2267.2L621.733 2261.33C626.4 2252.13 630.267 2250.13 643.733 2249.6C658.133 2249.07 663.067 2251.2 668 2260C671.2 2265.73 671.333 2267.07 671.733 2293.73L672.267 2321.33L753.733 2321.07L835.333 2320.67L835.733 2255.87L836 2190.93L821.6 2181.6C781.6 2155.47 736.4 2140.4 684.933 2136.13C665.467 2134.53 616.133 2134.53 597.467 2136.13Z" fill="black"/>
<path d="M1038.67 2136C975.2 2142 929.333 2162.93 907.333 2196C900.133 2206.8 895.867 2217.87 891.733 2235.6C888.8 2248.53 888.8 2250.4 888.267 2366.67C887.867 2490.13 888.133 2500.27 893.6 2522.67C898.533 2543.2 906.667 2557.2 921.467 2571.47C939.067 2588 961.2 2599.47 991.6 2607.33C1036.8 2619.2 1124.8 2619.47 1172.53 2608.13C1228.4 2594.8 1262 2566.8 1272.67 2524.93C1278.53 2501.6 1278.93 2491.07 1278.27 2366C1277.87 2253.33 1277.73 2248.13 1275.07 2236C1269.47 2210.67 1263.73 2198.8 1248.8 2183.07C1226.4 2159.33 1193.07 2144.93 1144 2137.87C1127.33 2135.47 1057.87 2134.27 1038.67 2136ZM1099.6 2252C1102 2253.33 1104.93 2256.53 1106.27 2258.93C1108.53 2263.07 1108.67 2270 1108.67 2375.33V2487.33L1105.73 2492C1100.93 2499.73 1095.73 2502 1082.67 2502C1069.87 2502 1064.8 2499.87 1060.53 2492.8C1058.13 2488.8 1058 2484 1058 2376.67C1058 2266.13 1058 2264.67 1060.8 2260C1065.6 2251.73 1070.8 2249.33 1083.87 2249.33C1092.93 2249.33 1096.27 2249.87 1099.6 2252Z" fill="black"/>
<path d="M1324.93 2143.47C1324.4 2144 1324 2164.8 1324 2189.73V2234.93L1329.87 2240.67C1341.6 2252 1340.67 2240 1340.67 2374.67C1340.67 2510.27 1341.33 2502.13 1329.87 2511.47L1324 2516.27V2562.13V2608H1428H1532V2562.13V2516.27L1524.8 2512.13C1514.93 2506.67 1509.33 2497.87 1509.33 2488V2484.27L1554.4 2483.6C1609.87 2482.67 1627.33 2480.67 1650.8 2472C1694 2456.27 1719.2 2418.4 1727.33 2356.67C1730.67 2332.4 1730.67 2275.87 1727.47 2255.6C1721.73 2219.2 1710 2194.93 1688.8 2175.07C1671.73 2159.07 1650.27 2150 1618 2145.2C1606.13 2143.33 1326.67 2141.73 1324.93 2143.47ZM1538 2257.47C1549.87 2259.47 1556 2263.33 1560 2271.33C1563.07 2277.6 1563.33 2279.47 1563.73 2304.67C1564.67 2347.73 1561.6 2359.07 1547.33 2366.13C1540.93 2369.2 1537.73 2369.73 1524.67 2370.4L1509.33 2371.07V2313.47V2256H1519.6C1525.2 2256 1533.47 2256.67 1538 2257.47Z" fill="black"/>
<path d="M1758.27 2143.6C1757.73 2144 1757.33 2164.67 1757.33 2189.47V2234.67L1764.53 2241.6C1769.6 2246.53 1772.27 2250.4 1773.2 2254.27C1775.47 2262.8 1774.53 2492.13 1772.27 2499.07C1771.2 2502 1767.6 2506.93 1763.87 2510.53L1757.33 2516.8V2562.4V2608H1950.67H2144V2525.33V2442.67H2066.8H1989.73L1988.93 2454.27C1986.8 2483.6 1979.2 2491.6 1951.73 2493.87L1942.67 2494.53V2456.67V2418.67H1995.33H2048V2368.67V2318.67H1995.33H1942.67V2287.87V2256.93L1953.73 2257.6C1969.73 2258.53 1981.2 2264.13 1986.27 2273.73C1987.33 2275.87 1988.53 2281.73 1988.93 2286.8L1989.73 2296H2066.8H2144V2219.33V2142.67H1951.6C1845.73 2142.67 1758.67 2143.07 1758.27 2143.6Z" fill="black"/>
<path d="M380 2682.67C355.467 2684.27 339.333 2688.27 321.467 2697.07C309.6 2702.8 297.867 2713.73 292.8 2723.73C284.8 2739.47 284.667 2741.2 284.667 2826.67C284.667 2896.4 284.933 2905.6 286.933 2913.73C293.333 2938.4 308.933 2953.6 337.733 2963.47C366.533 2973.33 423.467 2974.53 457.067 2966C484 2959.07 502.667 2946.13 510.933 2928.53C518.4 2912.67 518.8 2905.47 518.4 2821.07C517.867 2748.8 517.733 2744.13 515.2 2735.87C511.467 2724 507.067 2716.67 498.4 2708.4C477.2 2688.53 434.267 2679.07 380 2682.67ZM412.933 2753.87L416.667 2757.07V2826.53C416.667 2895.2 416.667 2896 413.867 2898.67C408.133 2904.53 394.533 2904.53 388.8 2898.67C386 2896 386 2894.93 385.6 2830.93C385.333 2787.07 385.6 2764.4 386.667 2761.07C388.667 2753.87 393.467 2750.67 402.133 2750.67C407.6 2750.67 410 2751.33 412.933 2753.87Z" fill="#E90506"/>
<path d="M1296 2682.67C1253.47 2686 1222.93 2701.6 1211.33 2726C1204.4 2740.67 1203.73 2750.4 1204.27 2832.4C1204.8 2898.67 1205.07 2908.27 1207.07 2915.33C1210.67 2927.6 1214.27 2934.13 1222.4 2942.8C1228.27 2949.2 1232.4 2952.13 1243.2 2957.33C1250.67 2960.93 1261.73 2965.07 1268 2966.67C1292.4 2972.4 1333.73 2973.33 1364.13 2968.67C1389.07 2964.93 1413.87 2955.6 1428.67 2944.27L1435.33 2939.2L1435.73 2873.6L1436 2808H1380H1324V2838.67V2869.33H1332.13H1340.4L1339.73 2879.73C1338.8 2891.6 1336.13 2899.07 1331.87 2901.33C1328.13 2903.47 1317.33 2903.47 1313.6 2901.47C1312 2900.67 1309.6 2898 1308.4 2895.6C1306.13 2891.73 1306 2885.87 1306 2827.33C1306 2768.93 1306.27 2762.93 1308.27 2759.07C1311.6 2753.2 1315.6 2750.67 1322.13 2750.67C1333.2 2750.67 1338.67 2758.8 1338.67 2775.33V2785.33H1387.33H1436V2752.13V2719.07L1428.4 2713.73C1393.47 2689.73 1346.67 2678.8 1296 2682.67Z" fill="#E90506"/>
<path d="M1676.67 2682.67C1624.93 2686.4 1596.13 2704.53 1586.4 2739.47C1583.47 2749.73 1583.47 2751.6 1583.33 2826.67C1583.33 2907.47 1583.47 2910 1589.6 2926.4C1593.07 2935.73 1605.73 2949.33 1616.53 2955.2C1638 2967.07 1658.67 2971.07 1698 2971.07C1746 2971.2 1772.8 2964.53 1806.4 2944.53L1814.67 2939.47V2892.4V2845.33H1765.33H1716V2866.93C1716 2878.93 1715.33 2890.93 1714.53 2893.73C1712.8 2900 1708.53 2902.93 1700.8 2902.93C1693.73 2902.93 1690.53 2901.33 1687.2 2896.4C1684.8 2892.8 1684.67 2889.2 1684.67 2825.6V2758.4L1689.07 2754.53C1692.67 2751.33 1694.53 2750.67 1700.67 2750.67C1713.87 2750.67 1717.2 2756.53 1717.33 2780.93V2793.33H1766H1814.67V2754.27V2715.33L1803.47 2708.27C1770.67 2687.6 1728 2678.93 1676.67 2682.67Z" fill="#E90506"/>
<path d="M2.66666 2714.53V2742.4L6.66666 2746.67C8.79999 2748.93 11.0667 2753.07 11.6 2755.73C12.1333 2758.4 12.6667 2790.93 12.6667 2828C12.6667 2900 12.5333 2901.87 5.99999 2908L2.66666 2911.07V2938.93V2966.67H85.7333C131.333 2966.67 174.4 2966 181.333 2965.33C207.067 2962.67 222.4 2956.4 233.867 2943.87C246.8 2929.87 252 2913.47 252 2886.93C251.867 2850.4 240.8 2832.8 212.267 2823.33L205.2 2821.07L213.6 2817.07C239.467 2804.93 248.533 2789.47 248.533 2758C248.533 2734 243.333 2719.33 230.8 2707.6C219.2 2696.8 202.4 2690.8 175.333 2688.13C166.667 2687.2 129.333 2686.67 81.7333 2686.67H2.66666V2714.53ZM137.2 2756.53C143.733 2758.8 147.067 2763.87 147.6 2772.27C148.667 2786 139.733 2793.2 121.733 2793.33H112V2774V2754.67L122.4 2754.8C128 2754.8 134.8 2755.6 137.2 2756.53ZM138.8 2855.47C145.067 2859.07 148 2865.47 148 2875.33C147.867 2892 140.667 2899.07 121.6 2900.8L112 2901.73V2876.67V2851.6L123.067 2852.27C130.933 2852.67 135.6 2853.6 138.8 2855.47Z" fill="#E90506"/>
<path d="M532 2714.53V2742.53L536 2746.93C540 2751.2 585.333 2823.2 585.333 2825.2C585.333 2826.27 536 2902.53 531.867 2907.87C529.6 2910.67 529.333 2913.73 529.333 2938.8V2966.67H578.533H627.733L628.267 2942.93L628.667 2919.33L635.733 2904.67L642.933 2890L645.333 2894.8C646.8 2897.47 649.867 2904.4 652.267 2910.13C656.4 2920.27 656.533 2921.47 657.067 2943.6L657.6 2966.67H715.467H773.333V2939.47V2912.13L765.6 2899.73C743.733 2864.8 718.4 2821.2 719.067 2819.47C720.133 2816.93 762 2754 766.8 2747.87L770.667 2742.93V2714.8V2686.67H722H673.333V2703.07C673.333 2713.6 672.667 2721.87 671.467 2726C669.067 2733.87 659.733 2754.67 658.667 2754.67C658.133 2754.67 655.333 2749.47 652.267 2742.93C645.867 2729.6 644 2719.73 644 2700.27V2686.67H588H532V2714.53Z" fill="#E90506"/>
<path d="M790.667 2715.07C790.667 2741.73 790.8 2743.47 793.333 2744.93C794.8 2745.87 796.933 2748.53 798.267 2750.93C800.533 2755.07 800.667 2760.8 800.667 2826.67C800.667 2903.87 800.8 2901.87 793.467 2908.53C790.8 2910.93 790.667 2912.27 790.667 2938.93V2966.67H850.667H910.667V2938.8V2910.93L906.8 2906.8C904.8 2904.67 902.667 2900.8 902.133 2898.53C900.8 2891.33 901.2 2759.73 902.667 2754.4C903.467 2751.73 905.6 2748.13 907.333 2746.4L910.667 2743.33V2714.93V2686.67H850.667H790.667V2715.07Z" fill="#E90506"/>
<path d="M934.667 2715.07C934.667 2741.73 934.8 2743.47 937.333 2744.93C938.8 2745.87 940.933 2748.53 942.267 2750.93C944.533 2755.07 944.667 2760.8 944.667 2826.67C944.667 2903.87 944.8 2901.87 937.467 2908.53C934.8 2910.93 934.667 2912.27 934.667 2938.93V2966.67H984H1033.33V2938.93V2911.07L1030.13 2909.47C1024.4 2906.27 1023.6 2902.27 1022.93 2874.67C1022.67 2860.4 1022.67 2848.93 1023.07 2849.33C1023.47 2849.73 1026.8 2857.47 1030.4 2866.67C1034.13 2875.87 1045.47 2901.87 1055.87 2924.67L1074.53 2966L1122.67 2966.4L1170.67 2966.67V2863.07C1170.67 2798.8 1171.2 2757.47 1172 2754.53C1172.67 2752 1175.07 2748.13 1177.33 2746L1181.33 2742.13V2714.4V2686.67H1130.67H1080V2714.4V2742.13L1083.33 2745.07C1085.2 2746.8 1087.47 2749.73 1088.27 2751.73C1090.27 2756.4 1091.33 2810.93 1089.47 2808C1088.67 2806.93 1077.07 2779.2 1063.73 2746.4L1039.33 2686.67H987.067H934.667V2715.07Z" fill="#E90506"/>
<path d="M1841.33 2715.07C1841.33 2741.73 1841.47 2743.47 1844 2744.93C1845.47 2745.87 1847.6 2748.53 1848.93 2750.93C1851.2 2755.07 1851.33 2760.8 1851.33 2826.67C1851.33 2903.87 1851.47 2901.87 1844.13 2908.53C1841.47 2910.93 1841.33 2912.27 1841.33 2938.93V2966.67H1954.67H2068V2894V2821.33H2024.13H1980.13L1979.73 2852.93C1979.33 2880.27 1979.07 2885.33 1976.93 2888.93C1973.6 2895.07 1969.73 2897.2 1960.13 2898.13L1951.87 2899.07L1952.27 2827.2C1952.67 2759.47 1952.8 2755.07 1955.2 2751.2C1956.53 2748.93 1959.47 2746 1961.47 2744.8L1965.33 2742.53V2714.53V2686.67H1903.33H1841.33V2715.07Z" fill="#E90506"/>
<path d="M2080 2714.8V2742.93L2083.33 2745.6C2090.13 2750.93 2090 2749.47 2090.8 2826C2091.33 2888 2091.87 2899.47 2093.87 2908.67C2099.2 2932.8 2110.8 2947.33 2133.73 2958.67C2151.47 2967.47 2165.73 2970.53 2194 2971.6C2254.4 2973.87 2292.4 2959.07 2307.33 2927.73C2315.87 2909.87 2316.27 2905.87 2317.2 2826.67C2317.87 2762 2318.27 2754.93 2320.4 2751.07C2321.6 2748.67 2323.87 2746.13 2325.33 2745.33C2327.87 2744 2328 2742.53 2328 2715.33V2686.67H2272H2216V2714.27C2216 2737.6 2216.27 2742.13 2218.13 2744.13C2223.6 2750.27 2223.87 2753.87 2224 2824.27C2224 2864.13 2223.47 2893.2 2222.67 2895.2C2222 2897.07 2220 2899.47 2218.13 2900.67C2214.13 2903.33 2201.47 2903.6 2197.47 2901.07C2191.47 2897.33 2191.33 2895.2 2191.33 2822.53V2753.87L2195.07 2748.27L2198.67 2742.67V2714.67V2686.67H2139.33H2080V2714.8Z" fill="#E90506"/>
<path d="M2350.67 2714.53V2742.4L2354.67 2746.67C2356.8 2748.93 2359.07 2753.07 2359.6 2755.73C2360.13 2758.4 2360.67 2790.93 2360.67 2828C2360.67 2900 2360.53 2901.87 2354 2908L2350.67 2911.07V2938.93V2966.67H2433.73C2479.33 2966.67 2522.4 2966 2529.33 2965.33C2555.07 2962.67 2570.4 2956.4 2581.87 2943.87C2594.8 2929.87 2600 2913.47 2600 2886.93C2599.87 2850.4 2588.8 2832.8 2560.27 2823.33L2553.2 2821.07L2561.6 2817.07C2587.47 2804.93 2596.53 2789.47 2596.53 2758C2596.53 2734 2591.33 2719.33 2578.8 2707.6C2567.2 2696.8 2550.4 2690.8 2523.33 2688.13C2514.67 2687.2 2477.33 2686.67 2429.73 2686.67H2350.67V2714.53ZM2485.2 2756.53C2491.73 2758.8 2495.07 2763.87 2495.6 2772.27C2496.67 2786 2487.73 2793.2 2469.73 2793.33H2460V2774V2754.67L2470.4 2754.8C2476 2754.8 2482.8 2755.6 2485.2 2756.53ZM2486.8 2855.47C2493.07 2859.07 2496 2865.47 2496 2875.33C2495.87 2892 2488.67 2899.07 2469.6 2900.8L2460 2901.73V2876.67V2851.6L2471.07 2852.27C2478.93 2852.67 2483.6 2853.6 2486.8 2855.47Z" fill="#E90506"/>
<path d="M0 3112.67V3196H1295.33H2590.67V3112.67V3029.33H1295.33H0V3112.67ZM1020 3070.67V3080H1006.67H993.333V3070.67V3061.33H1006.67H1020V3070.67ZM1462.67 3070.67V3080H1449.33H1436V3070.67V3061.33H1449.33H1462.67V3070.67ZM185.333 3078.67V3093.33H197.333H209.333V3078.67V3064H224H238.667V3107.33V3150.67H224H209.333V3134V3117.33H197.333H185.333V3134V3150.67H170.667H156V3107.33V3064H170.667H185.333V3078.67ZM442.667 3107.33V3150.67H429.333H416V3107.33V3064H429.333H442.667V3107.33ZM536 3078V3092.13L539.733 3089.33C550.667 3081.2 566.933 3083.87 575.2 3095.07C577.733 3098.53 578 3100.93 578.4 3124.8L578.8 3150.67H566.133H553.6L553.067 3130.27C552.667 3107.6 551.867 3105.33 544.933 3105.33C536.8 3105.33 536 3107.47 536 3130.27V3150.67H522.667H509.333V3107.33V3064H522.667H536V3078ZM864 3107.33V3150.67H852.667H841.333V3147.07V3143.6L838.267 3146.4C831.333 3152.93 818.933 3155.2 810.267 3151.47C804.133 3148.93 796.667 3139.87 794.533 3132.27C786.267 3103.6 806.4 3076.53 828.933 3086C831.733 3087.2 834.933 3089.07 836.267 3090.27C838.533 3092.27 838.667 3091.73 838.667 3078.27V3064H851.333H864V3107.33ZM985.333 3075.33V3086.67H966.667H948V3092.67V3098.67H962.667H977.467L977.067 3109.6L976.667 3120.67L962.4 3121.07L948 3121.47V3136V3150.67H933.333H918.667V3107.33V3064H952H985.333V3075.33ZM1670.4 3074.27L1670 3084.67L1649.73 3085.07L1629.33 3085.47V3090.67V3096H1646.67H1664.13L1663.73 3106.27L1663.33 3116.67L1646.4 3117.07L1629.33 3117.47V3123.33V3129.33H1650.67H1672V3140V3150.67H1636H1600V3107.33V3064H1635.33H1670.8L1670.4 3074.27ZM2058.53 3066.13C2084.4 3073.73 2085.87 3111.6 2060.67 3122.13C2057.6 3123.33 2049.87 3124.53 2042.4 3125.07L2029.33 3125.73V3138.13V3150.67H2014.67H2000V3107.33V3064H2025.73C2045.2 3064 2053.2 3064.53 2058.53 3066.13ZM2358.67 3078V3092.13L2362.4 3089.33C2373.33 3081.2 2389.6 3083.87 2397.87 3095.07C2400.4 3098.53 2400.67 3100.93 2401.07 3124.8L2401.47 3150.67H2388.8H2376.27L2375.73 3130.27C2375.33 3107.6 2374.53 3105.33 2367.6 3105.33C2359.47 3105.33 2358.67 3107.47 2358.67 3130.27V3150.67H2345.33H2332V3107.33V3064H2345.33H2358.67V3078ZM487.733 3076.93L488.133 3086.67H494H500V3094V3101.33H494H487.867L488.267 3116.27L488.667 3131.33L494.4 3131.73L500.133 3132.13L499.733 3141.73L499.333 3151.33H485.333C463.067 3151.33 461.333 3149.07 461.333 3119.87V3101.33H456.667H452V3094V3086.67H456.667H461.333V3076.67V3066.53L474.4 3066.93L487.333 3067.33L487.733 3076.93ZM1065.07 3076.93L1065.47 3086.67H1071.33H1077.33V3094V3101.33H1071.33H1065.2L1065.6 3116.27L1066 3131.33L1071.73 3131.73L1077.47 3132.13L1077.07 3141.73L1076.67 3151.33H1062.67C1040.4 3151.33 1038.67 3149.07 1038.67 3119.87V3101.33H1034H1029.33V3094V3086.67H1034H1038.67V3076.67V3066.53L1051.73 3066.93L1064.67 3067.33L1065.07 3076.93ZM301.733 3086.67C314.133 3091.33 322.4 3103.33 323.067 3117.6L323.333 3124.67L299.733 3125.07C274 3125.47 273.333 3125.6 278.8 3132.53C282.267 3137.07 291.6 3137.47 295.333 3133.33C297.467 3131.07 299.467 3130.67 309.6 3130.67C317.6 3130.67 321.333 3131.2 321.333 3132.27C321.333 3133.07 319.867 3136.27 318 3139.47C311.333 3150.93 290.267 3156.53 272.8 3151.47C252.267 3145.47 243.333 3121.07 254.4 3100.93C262.4 3086.13 283.467 3079.87 301.733 3086.67ZM390 3088C401.333 3093.73 402 3095.2 402.4 3122.4C402.667 3135.33 403.333 3146.53 404.133 3147.2C406.8 3150.13 404.8 3150.67 392.133 3150.67C380 3150.67 378.8 3150.4 378 3148C377.2 3145.33 377.067 3145.33 373.6 3147.73C364.667 3154.13 347.467 3155.07 340.4 3149.87C333.733 3144.93 331.6 3140.67 331.6 3132.8C331.6 3119.47 337.467 3115.07 360.4 3111.47C367.467 3110.4 374 3109.07 374.667 3108.67C376.8 3107.33 376.267 3101.73 373.867 3100.8C368.133 3098.67 360 3101.33 360 3105.47C360 3106.13 354.267 3106.67 347.2 3106.67H334.267L335.067 3101.73C336.933 3090.27 350.267 3083.73 370.667 3084.4C380.933 3084.67 384.533 3085.33 390 3088ZM687.333 3088C698.667 3093.73 699.333 3095.2 699.733 3122.4C700 3135.33 700.667 3146.53 701.467 3147.2C704.133 3150.13 702.133 3150.67 689.467 3150.67C677.333 3150.67 676.133 3150.4 675.333 3148C674.533 3145.33 674.4 3145.33 670.933 3147.73C662 3154.13 644.8 3155.07 637.733 3149.87C631.067 3144.93 628.933 3140.67 628.933 3132.8C628.933 3119.47 634.8 3115.07 657.733 3111.47C664.8 3110.4 671.333 3109.07 672 3108.67C674.133 3107.33 673.6 3101.73 671.2 3100.8C665.467 3098.67 657.333 3101.33 657.333 3105.47C657.333 3106.13 651.6 3106.67 644.533 3106.67H631.6L632.4 3101.73C634.267 3090.27 647.6 3083.73 668 3084.4C678.267 3084.67 681.867 3085.33 687.333 3088ZM770.667 3087.33C775.2 3089.73 779.467 3094.53 781.2 3099.07C782 3101.2 782.667 3113.07 782.667 3126.8V3150.67H770.133H757.6L757.067 3130.27C756.667 3107.6 755.867 3105.33 748.933 3105.33C740.8 3105.33 740 3107.47 740 3130.27V3150.67H726.667H713.333V3118.67V3086.67H725.333H737.333V3090.93V3095.2L741.2 3091.47C748.4 3084.53 761.6 3082.67 770.667 3087.33ZM1144 3087.33C1148.53 3089.73 1152.8 3094.53 1154.53 3099.07C1155.33 3101.2 1156 3113.07 1156 3126.8V3150.67H1143.47H1130.93L1130.4 3130.27C1130 3107.6 1129.2 3105.33 1122.27 3105.33C1114.13 3105.33 1113.33 3107.47 1113.33 3130.27V3150.67H1100H1086.67V3118.67V3086.67H1098.67H1110.67V3090.93V3095.2L1114.53 3091.47C1121.73 3084.53 1134.93 3082.67 1144 3087.33ZM1217.73 3086.67C1230.13 3091.33 1238.4 3103.33 1239.07 3117.6L1239.33 3124.67L1215.73 3125.07C1190 3125.47 1189.33 3125.6 1194.8 3132.53C1198.27 3137.07 1207.6 3137.47 1211.33 3133.33C1213.47 3131.07 1215.47 3130.67 1225.6 3130.67C1233.6 3130.67 1237.33 3131.2 1237.33 3132.27C1237.33 3133.07 1235.87 3136.27 1234 3139.47C1227.33 3150.93 1206.27 3156.53 1188.8 3151.47C1168.27 3145.47 1159.33 3121.07 1170.4 3100.93C1178.4 3086.13 1199.47 3079.87 1217.73 3086.67ZM1294.13 3086C1301.87 3088.27 1308.93 3094.8 1310.13 3101.07L1311.07 3105.33H1300C1289.87 3105.33 1288.8 3105.07 1286.4 3102C1282.67 3097.2 1273.33 3097.73 1273.33 3102.67C1273.33 3105.33 1276.4 3106.8 1291.87 3110.8C1307.07 3114.8 1312.13 3119.2 1312.93 3129.47C1313.47 3135.47 1313.07 3137.47 1310.4 3141.33C1305.87 3148.27 1296.53 3152.27 1283.73 3153.07C1262.13 3154.27 1250.67 3148.53 1246.67 3134.53L1245.47 3130.67H1258.8C1271.2 3130.67 1272 3130.8 1272 3133.33C1272 3139.33 1285.33 3140.13 1286.4 3134.13C1287.2 3130.53 1285.6 3129.6 1272 3125.87C1252.53 3120.67 1248 3116.8 1248 3104.93C1248 3098.53 1251.6 3091.73 1256.27 3089.2C1266 3083.87 1282.53 3082.53 1294.13 3086ZM1367.47 3086C1375.2 3088.27 1382.27 3094.8 1383.47 3101.07L1384.4 3105.33H1373.33C1363.2 3105.33 1362.13 3105.07 1359.73 3102C1356 3097.2 1346.67 3097.73 1346.67 3102.67C1346.67 3105.33 1349.73 3106.8 1365.2 3110.8C1380.4 3114.8 1385.47 3119.2 1386.27 3129.47C1386.8 3135.47 1386.4 3137.47 1383.73 3141.33C1379.2 3148.27 1369.87 3152.27 1357.07 3153.07C1335.47 3154.27 1324 3148.53 1320 3134.53L1318.8 3130.67H1332.13C1344.53 3130.67 1345.33 3130.8 1345.33 3133.33C1345.33 3139.33 1358.67 3140.13 1359.73 3134.13C1360.53 3130.53 1358.93 3129.6 1345.33 3125.87C1325.87 3120.67 1321.33 3116.8 1321.33 3104.93C1321.33 3098.53 1324.93 3091.73 1329.6 3089.2C1339.33 3083.87 1355.87 3082.53 1367.47 3086ZM1534.67 3087.33C1539.2 3089.73 1543.47 3094.53 1545.2 3099.07C1546 3101.2 1546.67 3113.07 1546.67 3126.8V3150.67H1534.13H1521.6L1521.07 3130.27C1520.67 3107.6 1519.87 3105.33 1512.93 3105.33C1504.8 3105.33 1504 3107.47 1504 3130.27V3150.67H1490.67H1477.33V3118.67V3086.67H1489.33H1501.33V3090.93V3095.2L1505.2 3091.47C1512.4 3084.53 1525.6 3082.67 1534.67 3087.33ZM1801.73 3086.67C1814.13 3091.33 1822.4 3103.33 1823.07 3117.6L1823.33 3124.67L1799.73 3125.07C1774 3125.47 1773.33 3125.6 1778.8 3132.53C1782.27 3137.07 1791.6 3137.47 1795.33 3133.33C1797.47 3131.07 1799.47 3130.67 1809.6 3130.67C1817.6 3130.67 1821.33 3131.2 1821.33 3132.27C1821.33 3133.07 1819.87 3136.27 1818 3139.47C1811.33 3150.93 1790.27 3156.53 1772.8 3151.47C1752.27 3145.47 1743.33 3121.07 1754.4 3100.93C1762.4 3086.13 1783.47 3079.87 1801.73 3086.67ZM1879.73 3097.73L1880.13 3110.67H1873.33C1867.87 3110.67 1865.87 3111.33 1863.33 3114C1860.13 3117.07 1860 3118 1860 3134V3150.67H1846.67H1833.33V3118.67V3086.67H1845.33H1857.33V3091.6L1857.47 3096.67L1859.6 3093.2C1862.13 3089.07 1865.87 3086.53 1871.33 3085.2C1879.07 3083.33 1879.33 3083.6 1879.73 3097.73ZM2229.33 3087.33C2233.87 3089.73 2238.13 3094.53 2239.87 3099.07C2240.67 3101.2 2241.33 3113.07 2241.33 3126.8V3150.67H2228.8H2216.27L2215.73 3130.27C2215.33 3107.6 2214.53 3105.33 2207.6 3105.33C2199.47 3105.33 2198.67 3107.47 2198.67 3130.27V3150.67H2185.33H2172V3118.67V3086.67H2184H2196V3090.93V3095.2L2199.87 3091.47C2207.07 3084.53 2220.27 3082.67 2229.33 3087.33ZM2301.87 3085.87C2313.33 3089.33 2322.67 3099.6 2322.67 3108.67C2322.67 3112 2322.67 3112 2310.27 3112H2297.87L2295.87 3107.6C2294.27 3104 2293.2 3103.33 2288.53 3102.93C2280.27 3102.27 2278 3105.6 2278 3118.67C2278 3130.93 2280.27 3134.67 2287.6 3134.67C2292.27 3134.67 2297.33 3130.8 2297.33 3127.33C2297.33 3125.73 2299.6 3125.33 2310 3125.33H2322.67V3128.67C2322.67 3134.13 2317.73 3142.4 2312 3146.53C2296.53 3157.73 2268.67 3154.53 2257.87 3140.27C2243.87 3122 2252 3092.53 2272.93 3086.13C2281.2 3083.6 2293.87 3083.47 2301.87 3085.87ZM1020 3118.67V3150.67H1006.67H993.333V3118.67V3086.67H1006.67H1020V3118.67ZM1462.67 3118.67V3150.67H1449.33H1436V3118.67V3086.67H1449.33H1462.67V3118.67ZM1706.13 3104.53C1708.93 3114.4 1711.73 3121.87 1712.13 3121.07C1712.67 3120.27 1715.07 3112.27 1717.47 3103.2L1722 3086.67H1734.4C1741.07 3086.67 1746.67 3087.07 1746.67 3087.47C1746.67 3087.87 1742.13 3102.27 1736.53 3119.47L1726.4 3150.8L1711.6 3150.4L1696.93 3150L1692.53 3137.33C1690.27 3130.4 1685.33 3116.13 1681.6 3105.6L1675.07 3086.67H1688H1700.93L1706.13 3104.53ZM1913.87 3105.73L1919.07 3124.27L1924.4 3105.47L1929.6 3086.67H1942H1954.4L1942.13 3124.27C1935.33 3145.07 1928.8 3164 1927.47 3166.4C1926.27 3168.8 1923.33 3171.87 1921.2 3173.2C1916.13 3176.27 1904.8 3177.87 1896.67 3176.67L1890.67 3175.73V3165.87V3156.13L1897.07 3155.73C1902.93 3155.33 1903.33 3155.07 1903.73 3151.33C1903.87 3148.93 1899.6 3135.47 1892.8 3116.93L1881.6 3086.53L1895.07 3086.93L1908.53 3087.33L1913.87 3105.73ZM2114.67 3106.4C2114.67 3129.07 2115.6 3132 2123.33 3132C2131.07 3132 2132 3129.07 2132 3106.4V3086.67H2145.33H2158.67V3118.67V3150.67H2146.67H2134.67V3146.67V3142.53L2129.73 3146.53C2116.93 3156.8 2097.6 3153.6 2091.33 3140.4C2089.33 3136.27 2088.8 3130.8 2088.27 3110.93L2087.6 3086.67H2101.2H2114.67V3106.4ZM2441.33 3137.33V3150.67H2428H2414.67V3137.33V3124H2428H2441.33V3137.33Z" fill="#E90506"/>
<path d="M449.6 3323.73C432.533 3329.87 423.733 3348.13 428 3368.4C430.267 3379.47 436.4 3387.73 445.733 3392.53C452.4 3395.87 454.933 3396.53 463.733 3396.4C487.067 3396.4 501.333 3382.27 501.333 3359.33C501.333 3344.13 494 3331.2 482.133 3325.07C474.267 3321.07 458.933 3320.4 449.6 3323.73ZM473.333 3342.67C476.933 3346.27 477.733 3350.27 477.067 3362.13C476.667 3371.33 476.267 3372.67 472.933 3375.47C466.267 3381.2 455.867 3379.07 452.667 3371.33C450.267 3365.87 450 3351.73 452.133 3347.6C455.333 3341.33 457.6 3340 464.267 3340C468.8 3340 471.467 3340.8 473.333 3342.67Z" fill="black"/>
<path d="M1101.33 3323.33C1082.67 3329.2 1073.07 3352.4 1080.53 3374.27C1083.47 3382.93 1093.2 3392.4 1101.47 3394.8C1121.07 3400.13 1140.53 3393.33 1148.27 3378.13C1152.27 3370.4 1153.2 3353.47 1150 3343.87C1144 3326 1122.4 3316.8 1101.33 3323.33ZM1123.6 3342C1127.33 3344.67 1129.87 3356.4 1128.53 3364.93C1126.93 3376.13 1118.27 3381.47 1108.8 3377.2C1100 3373.2 1098.67 3347.87 1107.07 3342C1110.8 3339.47 1119.87 3339.47 1123.6 3342Z" fill="black"/>
<path d="M1516 3322.53C1500.4 3327.33 1490.67 3341.47 1490.67 3359.33C1490.67 3382.27 1504.93 3396.4 1528.27 3396.4C1537.07 3396.53 1539.6 3395.87 1546.27 3392.53C1555.6 3387.73 1561.73 3379.47 1564 3368.4C1568.27 3348.4 1559.6 3330.27 1543.2 3324C1535.73 3321.33 1522.67 3320.53 1516 3322.53ZM1537.47 3343.47C1540.13 3346.4 1540.67 3348.4 1541.07 3357.07C1541.6 3370.27 1538.93 3376.13 1531.87 3377.87C1520.27 3380.67 1514.67 3374.53 1514.67 3358.93C1514.67 3344.4 1517.73 3340.13 1528.13 3340C1532.93 3340 1534.8 3340.67 1537.47 3343.47Z" fill="black"/>
<path d="M1758.13 3324C1744.53 3329.47 1736.93 3341.47 1736.93 3358C1736.8 3375.33 1743.87 3387.73 1757.2 3393.73C1769.33 3399.2 1790.13 3396.4 1799.07 3388.27C1802.53 3385.2 1806.27 3377.6 1807.33 3371.6L1808.27 3366.67H1797.47C1787.07 3366.67 1786.67 3366.8 1785.87 3370C1784 3377.47 1773.47 3381.07 1766.8 3376.53C1760.67 3372.13 1758.27 3360.27 1761.33 3349.07C1763.07 3342.8 1767.07 3340 1774 3340C1779.87 3340 1785.33 3344 1785.33 3348.4C1785.33 3350.4 1786.93 3350.67 1796.8 3350.67H1808.27L1807.33 3346.27C1805.07 3336.13 1800.13 3329.47 1791.47 3325.07C1783.47 3320.93 1766.93 3320.4 1758.13 3324Z" fill="black"/>
<path d="M506.667 3332.67V3342.67H516.667H526.667V3368.67V3394.67H538.667H550.667V3368.67V3342.67H560.667H570.667V3332.67V3322.67H538.667H506.667V3332.67Z" fill="black"/>
<path d="M574.933 3332.27L575.333 3342L585.733 3342.4L596 3342.8V3368.67V3394.67H607.333H618.667V3368.67V3342.8L629.067 3342.4L639.333 3342V3332.67V3323.33L606.933 3322.93L574.533 3322.67L574.933 3332.27Z" fill="black"/>
<path d="M660.667 3324.27C660.267 3325.2 658.533 3330.13 656.8 3335.33C655.067 3340.4 649.733 3355.87 644.8 3369.6L636.133 3394.67H647.333H658.4L660 3390L661.6 3385.2L673.067 3385.6L684.533 3386L685.6 3390.27L686.8 3394.67H698C704.267 3394.67 709.333 3394.27 709.2 3393.6C709.2 3393.07 703.6 3377.07 696.933 3358L684.667 3323.33L672.933 3322.93C664.4 3322.67 661.067 3323.07 660.667 3324.27ZM676.667 3358.8C678.4 3364.93 679.6 3370.13 679.467 3370.4C679.2 3370.67 676 3370.67 672.4 3370.4L665.733 3370L669.067 3358.27C670.933 3351.87 672.667 3346.8 672.933 3347.07C673.2 3347.33 674.8 3352.67 676.667 3358.8Z" fill="black"/>
<path d="M709.333 3324.27C709.333 3325.2 713.067 3341.47 717.6 3360.27L725.867 3394.67H737.467H749.067L750.4 3388.27C751.2 3384.8 752.8 3375.87 754.133 3368.27C755.467 3360.67 756.933 3355.33 757.467 3356.27C757.867 3357.2 759.6 3365.2 761.2 3374C765.333 3396.8 763.733 3394.67 776.667 3394.67C786.133 3394.67 787.867 3394.27 788.533 3392.27C789.067 3390.4 796.667 3358.4 803.333 3330.27L805.067 3322.67H794H782.933L780 3342.27C778.267 3353.2 776.533 3363.07 776.133 3364.4C775.6 3365.87 773.6 3358 771.2 3345.07L767.2 3323.33L757.733 3322.93L748.267 3322.53L746.933 3328.93C746.133 3332.4 744.133 3342.4 742.533 3350.93C740.8 3359.6 739.2 3366.4 738.933 3366C738.667 3365.73 736.8 3356 734.8 3344.4L731.2 3323.33L720.267 3322.93C712 3322.67 709.333 3322.93 709.333 3324.27Z" fill="black"/>
<path d="M827.867 3326.27C825.6 3332.13 804 3393.6 804 3394.13C804 3394.4 809.067 3394.67 815.2 3394.67H826.267L827.467 3390.27L828.8 3386L840.267 3385.6L851.867 3385.2L853.067 3389.6L854.133 3394L865.733 3394.4L877.333 3394.8L868.533 3369.73C863.733 3356 858.133 3339.87 856.133 3334L852.4 3323.33L840.933 3322.93C829.333 3322.53 829.333 3322.53 827.867 3326.27ZM846.667 3368.27C846.667 3370.27 845.467 3370.67 839.867 3370.67C834.133 3370.67 833.2 3370.4 833.867 3368.27C834.267 3367.07 835.867 3361.47 837.467 3356L840.533 3346L843.6 3356C845.333 3361.47 846.667 3367.07 846.667 3368.27Z" fill="black"/>
<path d="M973.467 3328.53C971.867 3335.07 968.933 3338.4 966.4 3336.4C965.467 3335.6 963.6 3334.67 962.267 3334.27C960 3333.47 959.867 3333.87 960.667 3338.93C961.2 3342.13 962.267 3345.47 962.933 3346.27C963.733 3347.2 964 3349.2 963.6 3350.67C963.2 3352.13 963.467 3353.33 964.133 3353.33C964.8 3353.33 965.333 3354.27 965.333 3355.33C965.333 3358.67 963.067 3357.6 958.267 3352L953.6 3346.53L952.8 3350C951.867 3353.87 950.933 3354 942.4 3351.47C936.667 3349.6 936.267 3349.73 936.933 3351.73C937.333 3352.93 938.267 3354.67 938.933 3355.6C939.6 3356.4 940.667 3358.8 941.2 3360.93C942 3364 941.733 3365.07 939.2 3366.8L936 3368.8L946 3378.53C953.067 3385.33 956 3389.2 956 3391.47V3394.67H978H1000L998.667 3391.47C997.6 3388.67 998.533 3387.33 1007.07 3379.07C1016.4 3370 1016.53 3369.73 1014 3367.6C1012.27 3366.13 1011.87 3365.07 1012.8 3364.4C1014 3363.47 1017.6 3351.87 1016.93 3351.07C1016.67 3350.93 1014 3351.47 1010.8 3352.13C1005.87 3353.2 1004.8 3353.07 1003.33 3351.07C1001.6 3348.8 1001.2 3348.93 996.667 3353.33L991.733 3358L992.667 3345.6C993.6 3333.87 993.6 3333.33 991.2 3334.13C989.733 3334.67 988 3335.6 987.067 3336.27C985.6 3337.47 983.467 3334.8 979.733 3326.27C977.333 3321.07 975.2 3321.87 973.467 3328.53Z" fill="#E90506"/>
<path d="M1162.67 3358.67V3394.67H1174H1185.33V3375.73V3356.93L1196.4 3375.47L1207.47 3394L1219.07 3394.4L1230.67 3394.8L1230.4 3359.07L1230 3323.33L1219.07 3322.93L1208 3322.53V3342.8V3363.07L1204.4 3356.4C1202.27 3352.67 1197.07 3343.6 1192.67 3336.13L1184.67 3322.67H1173.73H1162.67V3358.67Z" fill="black"/>
<path d="M1238.67 3332.67V3342.67H1248.67H1258.67V3368.67V3394.67H1270.67H1282.67V3368.67V3342.67H1292.67H1302.67V3332.67V3322.67H1270.67H1238.67V3332.67Z" fill="black"/>
<path d="M1323.87 3326.27C1321.6 3332.13 1300 3393.6 1300 3394.13C1300 3394.4 1305.07 3394.67 1311.2 3394.67H1322.27L1323.47 3390.27L1324.8 3386L1336.27 3385.6L1347.87 3385.2L1349.07 3389.6L1350.13 3394L1361.73 3394.4L1373.33 3394.8L1364.53 3369.73C1359.73 3356 1354.13 3339.87 1352.13 3334L1348.4 3323.33L1336.93 3322.93C1325.33 3322.53 1325.33 3322.53 1323.87 3326.27ZM1342.67 3368.27C1342.67 3370.27 1341.47 3370.67 1335.87 3370.67C1330.13 3370.67 1329.2 3370.4 1329.87 3368.27C1330.27 3367.07 1331.87 3361.47 1333.47 3356L1336.53 3346L1339.6 3356C1341.33 3361.47 1342.67 3367.07 1342.67 3368.27Z" fill="black"/>
<path d="M1380 3358.53V3394.67H1391.33H1402.67V3382.67V3370.67H1410.4C1414.67 3370.67 1418.8 3371.33 1419.73 3372.27C1420.67 3373.2 1421.33 3376.27 1421.33 3379.2C1421.33 3382.27 1421.73 3386.93 1422.13 3389.6L1423.07 3394.67H1434.93C1445.87 3394.67 1446.8 3394.4 1445.87 3392.27C1445.33 3391.07 1444.53 3385.47 1444 3380C1443.07 3368.93 1441.33 3364.67 1437.33 3363.33C1433.87 3362.27 1434 3360.53 1437.47 3358.67C1443.47 3355.47 1445.73 3342.8 1442 3333.87C1440.53 3330.4 1438.53 3328.53 1433.73 3326.27C1428.13 3323.73 1424.53 3323.33 1403.73 3322.93L1380 3322.4V3358.53ZM1421.47 3342.8C1423.07 3345.47 1422.93 3349.87 1421.07 3351.73C1420.13 3352.67 1415.87 3353.33 1411.07 3353.33H1402.67V3346.53V3339.6L1411.47 3340.4C1416.8 3340.8 1420.8 3341.73 1421.47 3342.8Z" fill="black"/>
<path d="M1456 3358.67V3394.67H1468H1480L1479.73 3358.93L1479.33 3323.33L1467.73 3322.93L1456 3322.53V3358.67Z" fill="black"/>
<path d="M1647.33 3326.27C1646.93 3328.4 1645.47 3331.47 1644.13 3333.2C1641.87 3336.13 1641.33 3336.27 1637.33 3334.93L1633.07 3333.33L1633.87 3337.73C1634.4 3340 1635.07 3344.4 1635.6 3347.33C1636 3350.27 1636.93 3353.33 1637.6 3354.27C1638.27 3355.2 1638.27 3356.13 1637.47 3356.53C1636.8 3356.93 1634.13 3354.93 1631.6 3352C1626.93 3346.4 1625.33 3345.6 1625.33 3348.27C1625.2 3352.67 1623.33 3353.33 1616.4 3351.47L1609.6 3349.6L1612.13 3356.93C1614.67 3364.53 1614.53 3366.67 1611.2 3366.67C1607.87 3366.67 1609.07 3368.53 1619.33 3378.67C1626 3385.2 1629.33 3389.6 1629.33 3391.6C1629.33 3394.67 1629.33 3394.67 1651.33 3394.67C1663.47 3394.67 1673.33 3394.27 1673.33 3393.87C1673.33 3393.47 1672.8 3392.13 1672 3390.8C1670.93 3388.8 1672.53 3386.67 1680.8 3378.67C1689.07 3370.53 1690.4 3368.8 1688.67 3367.47C1686.93 3366.13 1686.93 3365.2 1688.67 3358.67C1689.73 3354.67 1690.4 3351.2 1690.13 3350.93C1689.87 3350.67 1687.07 3351.2 1684 3352C1678.27 3353.6 1677.6 3353.33 1675.47 3348.67C1675.07 3347.87 1672.67 3349.73 1670 3352.67L1665.07 3358L1666 3345.6L1667.07 3333.2L1663.33 3334.67C1660 3336 1659.2 3335.73 1656.4 3332.4C1654.8 3330.4 1652.93 3327.33 1652.53 3325.6C1651.33 3321.47 1648.4 3321.87 1647.33 3326.27Z" fill="#E90506"/>
<path d="M1835.33 3324.27C1834.93 3325.2 1833.2 3330.13 1831.47 3335.33C1829.73 3340.4 1824.4 3355.87 1819.47 3369.6L1810.8 3394.67H1822H1833.07L1834.67 3390L1836.27 3385.2L1847.73 3385.6L1859.2 3386L1860.27 3390.27L1861.47 3394.67H1872.67C1878.93 3394.67 1884 3394.27 1883.87 3393.6C1883.87 3393.07 1878.27 3377.07 1871.6 3358L1859.33 3323.33L1847.6 3322.93C1839.07 3322.67 1835.73 3323.07 1835.33 3324.27ZM1851.33 3358.8C1853.07 3364.93 1854.27 3370.13 1854.13 3370.4C1853.87 3370.67 1850.67 3370.67 1847.07 3370.4L1840.4 3370L1843.73 3358.27C1845.6 3351.87 1847.33 3346.8 1847.6 3347.07C1847.87 3347.33 1849.47 3352.67 1851.33 3358.8Z" fill="black"/>
<path d="M1890.67 3358.67V3394.67H1902H1913.33V3375.73V3356.93L1924.4 3375.47L1935.47 3394L1947.07 3394.4L1958.67 3394.8L1958.4 3359.07L1958 3323.33L1947.07 3322.93L1936 3322.53V3342.8V3363.07L1932.4 3356.4C1930.27 3352.67 1925.07 3343.6 1920.67 3336.13L1912.67 3322.67H1901.73H1890.67V3358.67Z" fill="black"/>
<path d="M1989.2 3326.27C1986.93 3332.13 1965.33 3393.6 1965.33 3394.13C1965.33 3394.4 1970.4 3394.67 1976.53 3394.67H1987.6L1988.8 3390.27L1990.13 3386L2001.6 3385.6L2013.2 3385.2L2014.4 3389.6L2015.47 3394L2027.07 3394.4L2038.67 3394.8L2029.87 3369.73C2025.07 3356 2019.47 3339.87 2017.47 3334L2013.73 3323.33L2002.27 3322.93C1990.67 3322.53 1990.67 3322.53 1989.2 3326.27ZM2008 3368.27C2008 3370.27 2006.8 3370.67 2001.2 3370.67C1995.47 3370.67 1994.53 3370.4 1995.2 3368.27C1995.6 3367.07 1997.2 3361.47 1998.8 3356L2001.87 3346L2004.93 3356C2006.67 3361.47 2008 3367.07 2008 3368.27Z" fill="black"/>
<path d="M2045.33 3358.8V3394.93L2067.73 3394.4C2087.6 3394 2090.53 3393.6 2095.6 3391.07C2106.8 3385.07 2112.67 3373.6 2112.53 3358C2112.27 3345.47 2109.87 3338.8 2102.8 3331.87C2095.07 3324 2089.2 3322.67 2064 3322.67H2045.33V3358.8ZM2084.8 3344.4C2087.87 3347.07 2088.53 3348.93 2089.07 3355.73C2090.13 3371.2 2086.93 3376 2075.33 3376H2068V3358.67V3341.33H2074.53C2079.6 3341.33 2082 3342.13 2084.8 3344.4Z" fill="black"/>
<path d="M2139.87 3326.27C2137.6 3332.13 2116 3393.6 2116 3394.13C2116 3394.4 2121.07 3394.67 2127.2 3394.67H2138.27L2139.47 3390.27L2140.8 3386L2152.27 3385.6L2163.87 3385.2L2165.07 3389.6L2166.13 3394L2177.73 3394.4L2189.33 3394.8L2180.53 3369.73C2175.73 3356 2170.13 3339.87 2168.13 3334L2164.4 3323.33L2152.93 3322.93C2141.33 3322.53 2141.33 3322.53 2139.87 3326.27ZM2158.67 3368.27C2158.67 3370.27 2157.47 3370.67 2151.87 3370.67C2146.13 3370.67 2145.2 3370.4 2145.87 3368.27C2146.27 3367.07 2147.87 3361.47 2149.47 3356L2152.53 3346L2155.6 3356C2157.33 3361.47 2158.67 3367.07 2158.67 3368.27Z" fill="black"/>
<path d="M822.267 3107.6C817.467 3113.07 818.533 3129.07 824 3132C828.533 3134.4 832.933 3133.47 836 3129.6C838.4 3126.53 838.8 3124.67 838.4 3117.87C838.133 3113.33 837.067 3108.67 836.133 3107.47C833.733 3104.53 825.067 3104.67 822.267 3107.6Z" fill="#E90506"/>
<path d="M2029.33 3093.87V3102.67H2036.53C2047.87 3102.67 2050.67 3101.07 2050.67 3094.8C2050.67 3088 2048.53 3086.53 2038 3085.6L2029.33 3084.93V3093.87Z" fill="#E90506"/>
<path d="M280.267 3102.27C278.8 3103.6 277.2 3106 276.667 3107.6C275.867 3110.67 276 3110.67 286.533 3110.67C296.267 3110.67 297.333 3110.4 297.333 3108.13C297.333 3104.67 291.2 3100 286.667 3100C284.667 3100 281.733 3101.07 280.267 3102.27Z" fill="#E90506"/>
<path d="M368.667 3124.93C360.533 3127.33 358.667 3128.8 358.667 3132.8C358.667 3136.53 362.4 3138 368.8 3136.8C373.867 3135.73 376.4 3132.27 375.733 3126.8L375.333 3123.07L368.667 3124.93Z" fill="#E90506"/>
<path d="M666 3124.93C657.867 3127.33 656 3128.8 656 3132.8C656 3136.53 659.733 3138 666.133 3136.8C671.2 3135.73 673.733 3132.27 673.067 3126.8L672.667 3123.07L666 3124.93Z" fill="#E90506"/>
<path d="M1196.27 3102.27C1194.8 3103.6 1193.2 3106 1192.67 3107.6C1191.87 3110.67 1192 3110.67 1202.53 3110.67C1212.27 3110.67 1213.33 3110.4 1213.33 3108.13C1213.33 3104.67 1207.2 3100 1202.67 3100C1200.67 3100 1197.73 3101.07 1196.27 3102.27Z" fill="#E90506"/>
<path d="M1780.27 3102.27C1778.8 3103.6 1777.2 3106 1776.67 3107.6C1775.87 3110.67 1776 3110.67 1786.53 3110.67C1796.27 3110.67 1797.33 3110.4 1797.33 3108.13C1797.33 3104.67 1791.2 3100 1786.67 3100C1784.67 3100 1781.73 3101.07 1780.27 3102.27Z" fill="#E90506"/>
</svg>
