<svg width="476" height="373" viewBox="0 0 476 373" fill="none" xmlns="http://www.w3.org/2000/svg">
<path d="M240.803 55.4665C240.803 95.3332 241.203 113.333 242.269 114C243.069 114.4 244.803 117.467 246.269 120.8C248.269 125.467 248.403 127.333 247.336 129.467C246.136 131.733 246.403 132.667 248.536 134.933C252.136 138.533 254.269 137.333 257.869 130C261.469 122.933 263.736 100.933 260.936 99.3332C260.136 98.7999 259.469 96.6665 259.469 94.5332C259.469 92.3999 258.803 90.2665 258.003 89.8665C257.336 89.3332 256.136 87.4665 255.336 85.5999C253.869 81.7332 255.469 78.1332 260.136 75.0665C262.936 73.1999 263.603 73.1999 267.336 75.0665C272.003 77.5999 273.336 80.9332 272.003 86.9332C270.669 93.0665 270.269 98.6665 269.736 114.533C269.469 122.267 268.269 133.333 267.069 139.2C265.736 145.067 263.603 157.333 262.136 166.533C260.669 175.733 259.203 184.4 258.936 185.867C258.536 187.333 259.736 192.667 261.469 197.867C263.336 202.933 264.803 208.8 264.803 210.8C264.803 212.933 265.336 214.533 266.003 214.533C266.536 214.533 271.069 212.667 276.003 210.533C282.536 207.467 287.869 206.267 295.869 205.6C306.536 204.8 306.936 204.533 314.803 198.133C319.203 194.533 326.669 189.6 331.469 187.333C339.203 183.733 341.469 183.333 352.803 183.2C364.269 183.2 366.269 183.6 374.136 187.333C378.936 189.6 386.003 194.4 389.869 197.867L397.069 204.267L407.069 194.267L417.069 184.267L405.603 177.733C399.336 174.133 394.136 170.933 394.136 170.533C394.136 170.133 396.803 157.067 400.003 141.467L405.736 112.933L397.603 113.867C393.069 114.4 381.336 116.267 371.469 118C361.603 119.733 353.203 120.667 352.803 120.133C352.269 119.6 350.003 114.533 347.469 108.8C345.069 103.2 342.669 98.5332 342.003 98.5332C341.469 98.5332 333.603 106.8 324.536 116.8C303.469 140.133 298.136 145.733 298.136 144.4C298.269 140.8 302.536 94.1332 304.936 71.9999C306.403 57.8665 307.469 45.9999 307.203 45.8665C306.936 45.5999 300.003 48.6665 291.603 52.6665C283.336 56.7999 276.403 59.8665 276.136 59.5999C275.736 59.1999 265.736 41.9999 258.803 29.8665C257.203 26.9332 253.469 20.6665 250.803 15.8665C248.003 11.0665 244.536 5.06655 243.203 2.53322C240.803 -2.00012 240.803 -1.06678 240.803 55.4665Z" fill="black"/>
<path d="M228.403 11.5999C213.336 39.3333 201.069 59.2 199.336 58.8C198.269 58.5333 191.603 55.6 184.403 52.2666C177.203 48.9333 170.936 46.6666 170.536 47.0666C169.736 47.7333 171.603 69.3333 178.003 134.933C178.536 140.533 178.536 145.067 178.136 144.933C177.203 144.4 163.603 129.733 147.469 111.6C139.336 102.4 134.536 98 133.869 98.9333C133.336 99.8666 130.936 105.067 128.669 110.533C126.403 116 124.269 120.667 124.136 120.933C123.869 121.2 115.069 119.867 104.669 118C80.5361 113.867 71.4695 112.667 71.4695 113.867C71.4695 114.267 73.8695 126.8 76.9361 141.6C79.8695 156.4 82.4028 169.067 82.5361 169.733C82.8028 170.933 81.3361 171.867 68.2695 179.6C64.1361 182.133 60.8028 184.4 60.8028 184.933C60.8028 185.333 65.0695 189.733 70.4028 194.533L80.0028 203.467L88.0028 196.667C100.403 186.133 108.136 183.2 123.469 183.2C134.803 183.2 137.069 183.6 144.803 187.2C149.603 189.333 157.069 194.267 161.603 198C169.469 204.8 169.736 204.8 180.269 205.467C192.669 206.267 204.936 210.8 213.603 217.867L219.336 222.667L220.136 217.6C220.536 214.8 222.136 208.667 223.469 203.867C227.603 189.6 229.069 178.667 228.136 170.267C227.603 166 226.803 162.533 226.403 162.533C225.869 162.667 223.336 166 220.803 170.133C215.336 178.8 209.603 183.067 205.869 181.067C204.536 180.4 201.336 175.467 198.669 170.267C196.003 165.067 193.069 159.867 192.003 158.933C190.936 157.867 190.136 156.4 190.136 155.6C190.136 154.933 188.669 152.533 186.803 150.267C182.403 145.067 182.403 139.467 186.936 136C191.203 132.667 195.869 132.4 198.803 135.467C200.536 137.2 200.936 139.2 200.403 143.733C199.469 152.133 201.203 160.933 204.669 164.267L207.469 167.067L211.869 161.867C214.136 158.933 217.203 154.267 218.536 151.333C221.736 144.133 224.269 141.467 229.069 140.533C232.003 139.867 232.803 139.067 232.003 137.467C226.403 124.133 226.269 120.8 231.469 115.6L235.469 111.6L235.203 55.8666L234.803 -5.23031e-05L228.403 11.5999Z" fill="#E90506"/>
<path d="M339.469 189.6C322.403 195.6 311.203 204.667 304.936 217.6C297.469 232.933 307.736 251.867 323.336 251.867C334.003 251.867 360.936 238.533 366.536 230.533C368.403 227.867 368.536 227.867 369.069 230.133C369.469 232.267 369.869 232.267 372.936 229.067C374.803 227.2 376.669 224.8 377.069 223.733C377.469 222.667 378.136 222.133 378.536 222.667C379.069 223.067 378.403 225.467 377.069 227.867C375.469 231.2 372.136 234 365.069 237.867C348.669 246.933 339.069 255.867 345.736 255.867C349.603 255.867 369.336 266.133 373.203 270.133C385.736 283.467 385.069 315.6 371.469 343.467C368.536 349.467 366.136 354.667 366.136 355.2C366.136 355.6 367.736 354.8 369.736 353.6C372.669 351.6 376.936 351.067 391.736 350.8C406.403 350.4 410.136 349.867 410.136 348.4C410.136 345.733 412.536 346.133 414.003 349.067C416.269 353.067 422.803 354.533 439.07 354.533C464.536 354.533 471.203 351.2 474.003 336.933C474.67 333.067 475.47 312.4 475.736 290.933C476.136 253.467 476.003 252 473.336 248.4C467.87 240.933 464.536 239.467 450.536 238.667C431.736 237.467 423.069 238.667 416.403 243.467C411.336 246.933 410.669 248.267 408.403 257.2C405.603 268.4 404.669 301.2 406.536 318.533C408.136 332.133 406.536 329.733 403.603 313.733C398.269 285.867 398.936 261.2 405.203 245.6L408.403 237.733L405.336 235.467C403.603 234.267 399.736 228 396.536 221.733C392.136 212.933 388.803 208.4 382.269 202.4C366.669 188 354.536 184.4 339.469 189.6Z" fill="black"/>
<path d="M113.603 189.867C107.203 192.133 96.1361 199.6 90.5361 205.467C88.2695 207.867 83.8695 214.8 80.8028 220.8C77.7361 226.667 73.4695 233.2 71.4695 235.2L67.7361 238.667L70.1361 243.6C74.9361 253.467 76.0028 260.267 76.0028 279.867C76.0028 292.667 75.2028 303.333 73.6028 311.467C71.0695 324.667 68.0028 328.933 69.7361 316.8C71.6028 303.6 70.8028 272 68.2695 260.533C64.0028 241.733 57.2028 237.733 30.4028 238.8C13.3361 239.467 8.26947 241.2 3.73613 247.467C-0.263867 253.067 -0.530533 258.667 0.536133 299.867C1.6028 335.2 1.86947 338.4 4.53613 344C6.26947 347.467 8.93613 350.8 10.9361 351.733C16.9361 354.4 34.2695 356.133 46.0028 355.2C56.0028 354.4 57.7361 353.867 61.0695 350.533C63.8695 347.733 65.0695 347.2 65.7361 348.533C66.5361 349.733 71.7361 350.4 84.1361 350.8C97.0695 351.2 102.536 351.867 105.869 353.6C108.136 354.933 110.136 355.6 110.136 355.067C110.136 354.667 108.136 350.533 105.603 346.133C97.4695 331.067 94.8028 320 94.8028 301.2C94.8028 286.267 95.0695 283.867 98.0028 278.533C99.7361 275.2 102.669 271.2 104.669 269.467C108.536 266 128.403 255.867 131.069 255.867C132.003 255.867 132.803 255.333 132.803 254.533C132.803 252.4 118.003 241.2 110.536 237.867C101.869 234 98.1361 230.133 98.1361 225.467L98.2695 221.867L100.269 225.467C102.536 229.733 107.469 232.933 107.469 230.267C107.469 229.467 109.469 230.533 111.869 232.667C114.136 234.933 119.336 238.667 123.203 241.2C150.803 258.4 170.403 254.533 173.469 231.2C174.269 225.333 173.869 223.6 170.136 216.533C164.803 206.267 160.669 202 150.669 196.4C135.869 188.133 124.136 186 113.603 189.867Z" fill="#E90506"/>
<path d="M287.469 213.867C274.936 215.467 269.203 218.133 261.869 226.267C254.803 234.133 252.003 239.733 249.069 251.867C237.736 298.4 244.403 328.667 271.336 353.467C293.203 373.467 323.736 377.733 347.869 364.133C356.803 359.2 363.736 350.133 368.936 336.667C376.803 316.267 376.803 300.8 368.803 284.267C361.203 268.4 348.669 260.8 318.136 253.867C307.469 251.467 294.003 248.133 288.136 246.533C281.469 244.667 275.336 243.867 271.736 244.267C267.469 244.667 266.269 244.533 267.336 243.467C268.136 242.667 272.669 241.733 277.469 241.467C282.269 241.2 286.136 240.4 286.136 239.867C286.136 238.533 281.869 235.067 278.936 234C277.603 233.6 276.803 232.8 277.203 232.4C278.936 230.667 285.203 233.467 290.536 238.4C297.603 244.667 302.269 247.867 304.536 247.867C305.603 247.867 305.336 246.8 303.469 244.933C300.536 241.733 296.803 230.8 296.803 225.333C296.803 223.333 297.336 219.733 298.136 217.333C298.803 214.8 299.336 212.667 299.069 212.533C298.936 212.4 293.736 213.067 287.469 213.867Z" fill="black"/>
<path d="M178.403 218.267C180.269 225.067 178.803 235.067 174.936 242C173.203 245.2 172.003 247.867 172.269 247.867C174.136 247.867 179.469 244.267 185.069 239.2C191.203 233.6 197.469 231.067 198.936 233.333C199.336 234 198.803 234.533 197.736 234.533C196.803 234.533 194.536 236 192.803 237.867L189.736 241.2H196.269C211.336 241.2 213.069 244.533 198.536 245.6C192.803 246 184.803 247.467 180.803 248.933C176.803 250.4 165.736 253.2 156.136 255.2C126.936 261.333 115.336 268.533 107.336 285.467C99.4695 302.533 100.269 322.267 109.736 342.4C119.203 362.4 131.736 370.533 154.003 371.6C178.536 372.8 195.336 365.6 211.603 347.2C219.469 338.4 224.136 330.4 228.269 319.2C231.869 309.333 232.136 307.2 232.136 289.867C232.003 274.133 231.469 268.933 228.403 256.8C224.003 239.2 221.069 233.2 212.669 225.067C205.203 217.867 198.403 215.067 185.869 214L177.069 213.333L178.403 218.267Z" fill="#E90506"/>
</svg>
