<svg width="474" height="373" viewBox="0 0 474 373" fill="none" xmlns="http://www.w3.org/2000/svg">
<path d="M238 54.6019C238 94.4686 238.4 112.469 239.467 113.135C240.267 113.535 242 116.602 243.467 119.935C245.467 124.602 245.6 126.469 244.533 128.602C243.333 130.869 243.6 131.802 245.733 134.069C249.333 137.669 251.467 136.469 255.067 129.135C258.667 122.069 260.933 100.069 258.133 98.4686C257.333 97.9352 256.667 95.8019 256.667 93.6686C256.667 91.5353 256 89.4019 255.2 89.0019C254.533 88.4686 253.333 86.6019 252.533 84.7353C251.067 80.8686 252.667 77.2686 257.333 74.2019C260.133 72.3353 260.8 72.3353 264.533 74.2019C269.2 76.7353 270.533 80.0686 269.2 86.0686C267.867 92.2019 267.467 97.8019 266.933 113.669C266.667 121.402 265.467 132.469 264.267 138.335C262.933 144.202 260.8 156.469 259.333 165.669C257.867 174.869 256.4 183.535 256.133 185.002C255.733 186.469 256.933 191.802 258.667 197.002C260.533 202.069 262 207.935 262 209.935C262 212.069 262.533 213.669 263.2 213.669C263.733 213.669 268.267 211.802 273.2 209.669C279.733 206.602 285.067 205.402 293.067 204.735C303.733 203.935 304.133 203.669 312 197.269C316.4 193.669 323.867 188.735 328.667 186.469C336.4 182.869 338.667 182.469 350 182.335C361.467 182.335 363.467 182.735 371.333 186.469C376.133 188.735 383.2 193.535 387.067 197.002L394.267 203.402L404.267 193.402L414.267 183.402L402.8 176.869C396.533 173.269 391.333 170.069 391.333 169.669C391.333 169.269 394 156.202 397.2 140.602L402.933 112.069L394.8 113.002C390.267 113.535 378.533 115.402 368.667 117.135C358.8 118.869 350.4 119.802 350 119.269C349.467 118.735 347.2 113.669 344.667 107.935C342.267 102.335 339.867 97.6686 339.2 97.6686C338.667 97.6686 330.8 105.935 321.733 115.935C300.667 139.269 295.333 144.869 295.333 143.535C295.467 139.935 299.733 93.2686 302.133 71.1353C303.6 57.0019 304.667 45.1353 304.4 45.0019C304.133 44.7353 297.2 47.8019 288.8 51.8019C280.533 55.9353 273.6 59.0019 273.333 58.7353C272.933 58.3353 262.933 41.1353 256 29.0019C254.4 26.0686 250.667 19.8019 248 15.0019C245.2 10.2019 241.733 4.20192 240.4 1.66859C238 -2.86475 238 -1.93141 238 54.6019Z" fill="black"/>
<path d="M230.6 11.6001C215.533 39.3334 203.267 59.2001 201.533 58.8001C200.467 58.5334 193.8 55.6001 186.6 52.2667C179.4 48.9334 173.133 46.6667 172.733 47.0667C171.933 47.7334 173.8 69.3334 180.2 134.933C180.733 140.533 180.733 145.067 180.333 144.933C179.4 144.4 165.8 129.733 149.667 111.6C141.533 102.4 136.733 98.0001 136.067 98.9334C135.533 99.8667 133.133 105.067 130.867 110.533C128.6 116 126.467 120.667 126.333 120.933C126.067 121.2 117.267 119.867 106.867 118C82.7333 113.867 73.6667 112.667 73.6667 113.867C73.6667 114.267 76.0667 126.8 79.1333 141.6C82.0667 156.4 84.6 169.067 84.7333 169.733C85 170.933 83.5333 171.867 70.4667 179.6C66.3333 182.133 63 184.4 63 184.933C63 185.333 67.2667 189.733 72.6 194.533L82.2 203.467L90.2 196.667C102.6 186.133 110.333 183.2 125.667 183.2C137 183.2 139.267 183.6 147 187.2C151.8 189.333 159.267 194.267 163.8 198C171.667 204.8 171.933 204.8 182.467 205.467C194.867 206.267 207.133 210.8 215.8 217.867L221.533 222.667L222.333 217.6C222.733 214.8 224.333 208.667 225.667 203.867C229.8 189.6 231.267 178.667 230.333 170.267C229.8 166 229 162.533 228.6 162.533C228.067 162.667 225.533 166 223 170.133C217.533 178.8 211.8 183.067 208.067 181.067C206.733 180.4 203.533 175.467 200.867 170.267C198.2 165.067 195.267 159.867 194.2 158.933C193.133 157.867 192.333 156.4 192.333 155.6C192.333 154.933 190.867 152.533 189 150.267C184.6 145.067 184.6 139.467 189.133 136C193.4 132.667 198.067 132.4 201 135.467C202.733 137.2 203.133 139.2 202.6 143.733C201.667 152.133 203.4 160.933 206.867 164.267L209.667 167.067L214.067 161.867C216.333 158.933 219.4 154.267 220.733 151.333C223.933 144.133 226.467 141.467 231.267 140.533C234.2 139.867 235 139.067 234.2 137.467C228.6 124.133 228.467 120.8 233.667 115.6L237.667 111.6L237.4 55.8667L237 7.62939e-05L230.6 11.6001Z" fill="#E90506"/>
<path d="M336.683 190.255C319.617 196.255 308.417 205.322 302.15 218.255C294.683 233.589 304.95 252.522 320.55 252.522C331.217 252.522 358.15 239.189 363.75 231.189C365.617 228.522 365.75 228.522 366.283 230.789C366.683 232.922 367.083 232.922 370.15 229.722C372.017 227.855 373.883 225.455 374.283 224.389C374.683 223.322 375.35 222.789 375.75 223.322C376.283 223.722 375.617 226.122 374.283 228.522C372.683 231.855 369.35 234.655 362.283 238.522C345.883 247.589 336.283 256.522 342.95 256.522C346.817 256.522 366.55 266.789 370.417 270.789C382.95 284.122 382.283 316.255 368.683 344.122C365.75 350.122 363.35 355.322 363.35 355.855C363.35 356.255 364.95 355.455 366.95 354.255C369.883 352.255 374.15 351.722 388.95 351.455C403.617 351.055 407.35 350.522 407.35 349.055C407.35 346.389 409.75 346.789 411.217 349.722C413.483 353.722 420.017 355.189 436.283 355.189C461.75 355.189 468.417 351.855 471.217 337.589C471.883 333.722 472.683 313.055 472.95 291.589C473.35 254.122 473.217 252.655 470.55 249.055C465.083 241.589 461.75 240.122 447.75 239.322C428.95 238.122 420.283 239.322 413.617 244.122C408.55 247.589 407.883 248.922 405.617 257.855C402.817 269.055 401.883 301.855 403.75 319.189C405.35 332.789 403.75 330.389 400.817 314.389C395.483 286.522 396.15 261.855 402.417 246.255L405.617 238.389L402.55 236.122C400.817 234.922 396.95 228.655 393.75 222.389C389.35 213.589 386.017 209.055 379.483 203.055C363.883 188.655 351.75 185.055 336.683 190.255Z" fill="black"/>
<path d="M113.603 190.864C107.203 193.131 96.1361 200.598 90.5361 206.464C88.2695 208.864 83.8695 215.798 80.8028 221.798C77.7361 227.664 73.4695 234.198 71.4695 236.198L67.7361 239.664L70.1361 244.598C74.9361 254.464 76.0028 261.264 76.0028 280.864C76.0028 293.664 75.2028 304.331 73.6028 312.464C71.0695 325.664 68.0028 329.931 69.7361 317.798C71.6028 304.598 70.8028 272.998 68.2695 261.531C64.0028 242.731 57.2028 238.731 30.4028 239.798C13.3361 240.464 8.26947 242.198 3.73613 248.464C-0.263867 254.064 -0.530533 259.664 0.536133 300.864C1.6028 336.198 1.86947 339.398 4.53613 344.998C6.26947 348.464 8.93613 351.798 10.9361 352.731C16.9361 355.398 34.2695 357.131 46.0028 356.198C56.0028 355.398 57.7361 354.864 61.0695 351.531C63.8695 348.731 65.0695 348.198 65.7361 349.531C66.5361 350.731 71.7361 351.398 84.1361 351.798C97.0695 352.198 102.536 352.864 105.869 354.598C108.136 355.931 110.136 356.598 110.136 356.064C110.136 355.664 108.136 351.531 105.603 347.131C97.4695 332.064 94.8028 320.998 94.8028 302.198C94.8028 287.264 95.0695 284.864 98.0028 279.531C99.7361 276.198 102.669 272.198 104.669 270.464C108.536 266.998 128.403 256.864 131.069 256.864C132.003 256.864 132.803 256.331 132.803 255.531C132.803 253.398 118.003 242.198 110.536 238.864C101.869 234.998 98.1361 231.131 98.1361 226.464L98.2695 222.864L100.269 226.464C102.536 230.731 107.469 233.931 107.469 231.264C107.469 230.464 109.469 231.531 111.869 233.664C114.136 235.931 119.336 239.664 123.203 242.198C150.803 259.398 170.403 255.531 173.469 232.198C174.269 226.331 173.869 224.598 170.136 217.531C164.803 207.264 160.669 202.998 150.669 197.398C135.869 189.131 124.136 186.998 113.603 190.864Z" fill="#E90506"/>
<path d="M284.683 214.522C272.15 216.122 266.416 218.789 259.083 226.922C252.016 234.789 249.216 240.389 246.283 252.522C234.95 299.055 241.616 329.322 268.55 354.122C290.416 374.122 320.95 378.389 345.083 364.789C354.016 359.855 360.95 350.789 366.15 337.322C374.016 316.922 374.016 301.455 366.016 284.922C358.416 269.055 345.883 261.455 315.35 254.522C304.683 252.122 291.216 248.789 285.35 247.189C278.683 245.322 272.55 244.522 268.95 244.922C264.683 245.322 263.483 245.189 264.55 244.122C265.35 243.322 269.883 242.389 274.683 242.122C279.483 241.855 283.35 241.055 283.35 240.522C283.35 239.189 279.083 235.722 276.15 234.655C274.816 234.255 274.016 233.455 274.416 233.055C276.15 231.322 282.416 234.122 287.75 239.055C294.816 245.322 299.483 248.522 301.75 248.522C302.816 248.522 302.55 247.455 300.683 245.589C297.75 242.389 294.016 231.455 294.016 225.989C294.016 223.989 294.55 220.389 295.35 217.989C296.016 215.455 296.55 213.322 296.283 213.189C296.15 213.055 290.95 213.722 284.683 214.522Z" fill="black"/>
<path d="M178.403 219.264C180.269 226.064 178.803 236.064 174.936 242.998C173.203 246.198 172.003 248.864 172.269 248.864C174.136 248.864 179.469 245.264 185.069 240.198C191.203 234.598 197.469 232.064 198.936 234.331C199.336 234.998 198.803 235.531 197.736 235.531C196.803 235.531 194.536 236.998 192.803 238.864L189.736 242.198H196.269C211.336 242.198 213.069 245.531 198.536 246.598C192.803 246.998 184.803 248.464 180.803 249.931C176.803 251.398 165.736 254.198 156.136 256.198C126.936 262.331 115.336 269.531 107.336 286.464C99.4695 303.531 100.269 323.264 109.736 343.398C119.203 363.398 131.736 371.531 154.003 372.598C178.536 373.798 195.336 366.598 211.603 348.198C219.469 339.398 224.136 331.398 228.269 320.198C231.869 310.331 232.136 308.198 232.136 290.864C232.003 275.131 231.469 269.931 228.403 257.798C224.003 240.198 221.069 234.198 212.669 226.064C205.203 218.864 198.403 216.064 185.869 214.998L177.069 214.331L178.403 219.264Z" fill="#E90506"/>
</svg>
