<svg width="69" height="400" viewBox="0 0 69 400" fill="none" xmlns="http://www.w3.org/2000/svg">
<path d="M31.5867 99.1727C31.5867 153.723 31.0508 199.626 30.3808 201.334C29.1749 204.75 29.3089 207.74 30.9168 210.729C31.5867 212.01 31.1848 213.824 29.7109 215.746C28.103 217.881 27.835 219.375 28.7729 220.657C29.7109 222.044 28.7729 224.393 25.2891 230.051C19.2595 239.765 7.46823 256.205 5.05638 258.554C0.366666 263.037 -0.303293 273.499 0.0986822 327.729C0.500657 361.463 1.17062 380.678 1.97457 380.891C2.64453 381.105 2.91251 381.959 2.51053 382.813C2.10856 383.667 2.77852 385.482 3.98444 386.976C5.19037 388.471 5.72634 389.645 5.32436 389.645C4.38642 389.645 5.45835 390.392 12.6939 395.196C14.3018 396.264 15.5077 396.691 15.5077 396.264C15.5077 395.837 16.0437 396.05 16.5797 396.584C17.9196 398.185 27.567 400.32 27.567 399.146C27.567 398.612 26.763 398.185 25.6911 398.185C23.2793 398.185 22.0733 395.516 23.8152 394.129C24.8872 393.275 24.8872 392.527 23.6812 391.46C22.4753 390.179 22.6093 389.752 23.9492 389.325C25.4231 388.898 25.6911 389.645 25.4231 392.527C25.1551 395.303 25.5571 396.05 27.031 395.623C27.969 395.303 28.7729 395.41 28.7729 395.837C28.3709 397.972 29.0409 398.399 30.6488 396.691C32.2567 394.983 32.3907 394.983 32.5247 397.011C32.6587 398.185 31.7207 399.359 30.5148 399.573C29.3089 399.786 31.7207 400 36.0085 400C41.9041 400 43.646 399.573 43.11 398.505C42.7081 397.758 42.976 397.118 43.512 397.118C44.182 397.118 44.9859 397.758 45.3879 398.399C45.7899 399.466 46.4598 399.466 47.7998 398.292C49.0057 397.331 49.0057 397.118 48.0677 397.545C47.1298 397.972 46.3258 397.865 46.3258 397.224C46.3258 395.303 47.9337 392.848 49.2737 392.848C50.0776 392.848 49.9436 393.488 49.0057 394.449C47.6658 395.73 47.7997 396.05 49.5416 396.05C50.8816 396.05 51.4175 396.584 50.8816 397.224C50.3456 397.972 51.1495 397.972 53.1594 397.118C57.1792 395.41 58.3851 394.449 55.4373 395.303C54.2314 395.623 52.8914 395.303 52.6235 394.449C51.8195 392.848 52.7574 391.78 54.9013 391.78C55.7053 391.78 55.4373 392.314 54.3653 392.848C52.7574 393.702 53.1594 393.915 55.9732 393.915C59.993 393.915 62.6728 392.1 66.1566 387.19C68.1665 384.094 68.4345 378.436 68.8365 328.903C69.2384 281.505 68.9704 273.285 67.2286 268.908C66.0226 266.133 65.0847 263.144 65.0847 262.397C65.0847 261.543 64.0128 259.941 62.8068 258.767C60.127 256.418 57.7151 252.896 46.5938 235.495C40.8322 226.528 39.2243 222.898 39.4923 219.696C39.6263 217.454 39.0903 215.639 38.2863 215.639C36.5444 215.639 36.5444 210.622 38.2863 209.768C39.8942 208.914 40.0282 202.082 38.4203 201.334C35.8745 200.053 35.6065 188.738 35.4725 95.7566C35.3385 17.9343 34.9365 0 33.5966 0C32.1227 0 31.7207 18.5749 31.5867 99.1727ZM36.0085 204.11C36.4105 205.391 36.4104 207.099 35.7405 207.846C34.1326 210.195 31.4528 207.099 32.5247 204.11C33.4626 201.121 35.0705 201.121 36.0085 204.11ZM36.8124 219.482C34.5346 221.724 30.1128 221.404 31.1848 219.055C32.3907 216.493 34.5346 215.532 36.5444 216.92C37.8844 217.774 37.8844 218.415 36.8124 219.482ZM28.9069 230.798C27.433 234.001 25.2891 239.445 24.2172 242.754C23.1453 246.064 20.4654 251.828 18.3216 255.458C13.7658 263.251 10.684 272.218 8.94214 282.466L7.8702 289.832L7.60222 284.281C7.46823 278.196 9.21012 270.403 12.4259 262.183C13.8998 258.554 14.0338 256.845 13.0959 256.312C12.1579 255.885 15.1058 250.013 21.2694 240.085C26.6291 231.438 31.0508 224.606 31.3188 224.713C31.4528 224.82 30.3808 227.595 28.9069 230.798ZM46.0579 240.512C54.7673 254.07 55.3033 255.244 52.3555 254.71C49.2737 254.07 49.2737 254.177 50.4796 257.272C51.5515 259.514 52.7574 260.475 54.9013 260.475C56.5092 260.475 59.0551 261.222 60.529 262.183C63.0748 263.891 62.8068 263.891 56.1072 262.183C52.3555 261.222 52.2215 262.503 55.0353 271.684C56.1072 275.207 56.9112 281.185 56.7772 285.028L56.6432 291.967L55.5713 284.281C54.0974 274.246 44.5839 246.277 35.8745 226.314C34.2666 222.685 37.0804 226.528 46.0579 240.512ZM37.3484 237.523C39.3583 243.395 41.2342 249.266 41.7701 250.547C42.5741 252.682 42.0381 252.789 33.0607 253.216C27.835 253.323 23.5472 253.429 23.5472 253.323C23.5472 253.216 25.6911 248.199 28.237 242.007C30.7828 235.922 32.9267 229.73 32.9267 228.449C32.9267 224.606 33.7306 226.101 37.3484 237.523ZM42.0381 260.048C48.2017 261.436 44.5839 262.076 31.5867 262.076C24.2172 262.076 18.1876 261.97 18.1876 261.756C18.1876 259.941 35.4725 258.66 42.0381 260.048ZM7.46823 263.144C6.53029 263.998 5.19037 264.745 4.52041 264.745C3.71646 264.745 3.85045 263.998 4.78839 263.144C5.72634 262.29 7.06625 261.543 7.73621 261.543C8.54016 261.543 8.40617 262.29 7.46823 263.144ZM49.0057 378.97C49.0057 379.504 48.7377 380.037 48.4697 380.037C48.0677 380.037 47.3978 379.504 46.9958 378.97C46.5938 378.329 46.8618 377.902 47.5318 377.902C48.3357 377.902 49.0057 378.329 49.0057 378.97ZM12.9619 381.425C12.0239 382.172 11.086 382.279 10.1481 381.532C9.34411 380.891 9.88008 380.464 11.756 380.358C13.8998 380.144 14.1678 380.464 12.9619 381.425ZM18.9915 380.998C18.4556 381.532 18.9915 382.279 19.7955 382.493C20.7334 382.813 20.1974 383.133 18.5895 383.133C16.4457 383.24 15.7757 382.813 16.3117 381.639C16.8477 380.785 17.6516 380.037 18.4556 380.037C19.1255 380.037 19.3935 380.464 18.9915 380.998ZM8.54016 383.133C10.0141 383.88 9.88008 384.094 8.13819 384.628C6.93226 385.055 6.3963 384.948 6.79827 384.307C7.20025 383.667 6.93226 383.24 6.2623 383.24C5.45835 383.24 4.78839 383.774 4.78839 384.521C4.78839 385.161 4.38642 385.482 3.98444 385.055C3.0465 384.307 4.52041 382.172 5.86033 382.172C6.3963 382.172 7.60222 382.599 8.54016 383.133ZM18.1876 384.948C18.1876 385.161 16.9816 385.375 15.5077 385.375C14.0338 385.375 12.8279 384.948 12.8279 384.414C12.8279 383.88 14.0338 383.667 15.5077 383.987C16.9816 384.307 18.1876 384.734 18.1876 384.948ZM27.567 383.667C27.567 383.88 26.6291 384.414 25.4231 384.734C24.3512 385.055 23.8152 384.948 24.2172 384.307C25.0211 383.24 27.567 382.813 27.567 383.667ZM23.8152 386.869C24.7532 386.442 24.8872 386.656 24.3512 387.403C23.0113 389.005 20.8674 387.83 21.0014 385.588C21.1354 383.987 21.2694 383.987 21.8053 385.695C22.0733 386.656 23.0113 387.19 23.8152 386.869ZM34.2666 384.734C34.2666 384.948 33.3286 385.482 32.1227 385.802C31.0508 386.122 30.5148 386.015 30.9168 385.375C31.7207 384.307 34.2666 383.88 34.2666 384.734ZM48.8717 385.268C50.2116 386.015 49.8096 386.229 47.2638 386.122C45.3879 386.015 44.182 385.588 44.5839 385.055C45.3879 384.094 46.5938 384.094 48.8717 385.268ZM58.3851 387.617C58.3851 388.151 57.3132 388.578 56.1072 388.471C54.6333 388.471 54.3653 388.151 55.4373 387.83C56.2412 387.617 56.6432 386.763 56.2412 386.229C55.7053 385.482 55.9732 385.375 56.7772 385.802C57.7151 386.229 58.3851 386.976 58.3851 387.617ZM34.9365 387.51C34.5346 388.044 33.0607 388.578 31.8547 388.471C29.9788 388.471 30.1128 388.257 32.2567 387.51C35.8745 386.336 35.8745 386.336 34.9365 387.51ZM11.488 388.578C12.5599 389.111 12.9619 389.645 12.1579 389.645C11.488 389.645 9.88008 389.111 8.80815 388.578C7.73621 388.044 7.46823 387.51 8.13819 387.51C8.94214 387.51 10.416 388.044 11.488 388.578ZM28.5049 390.926C28.103 391.78 27.701 391.46 27.701 390.286C27.567 389.111 27.969 388.471 28.3709 388.898C28.7729 389.218 28.9069 390.179 28.5049 390.926ZM15.1058 390.819C13.8998 391.46 13.0959 392.314 13.4979 392.954C14.0338 393.488 13.6319 393.915 12.9619 393.915C12.1579 393.915 11.488 393.488 11.488 393.061C11.488 391.78 14.4358 389.645 16.1777 389.645C16.8477 389.645 16.4457 390.179 15.1058 390.819ZM60.395 391.887C59.859 392.421 58.7871 392.848 57.9831 392.741C56.7772 392.741 56.9112 392.527 58.1171 392.1C58.9211 391.887 59.323 391.033 58.9211 390.499C58.3851 389.752 58.6531 389.645 59.591 390.072C60.395 390.499 60.797 391.353 60.395 391.887ZM20.1974 392.848C21.6714 393.381 22.2073 393.808 21.2694 393.808C20.3314 393.915 19.9295 394.769 20.3314 395.73C20.8674 397.224 20.5994 397.118 19.3935 395.516C18.4556 394.342 17.1156 393.061 16.3117 392.634C14.3018 391.567 16.8477 391.673 20.1974 392.848ZM38.8223 393.488C39.3583 394.449 39.3583 395.516 38.9563 395.837C38.6883 396.157 38.0184 395.623 37.6164 394.769C37.0804 393.702 35.6065 393.275 33.8646 393.488C31.0508 393.915 31.0508 393.915 33.5966 392.954C37.3484 391.46 37.8844 391.567 38.8223 393.488ZM37.8844 398.826C37.4824 399.146 36.2765 399.253 35.3385 398.932C34.2666 398.612 34.6686 398.292 36.1425 398.292C37.6164 398.185 38.4203 398.505 37.8844 398.826Z" fill="#222222"/>
</svg>
